<svg width="998" height="550" viewBox="0 0 998 550" fill="none" xmlns="http://www.w3.org/2000/svg">
<g clip-path="url(#clip0_169_13565)">
<path d="M616.51 341.219C631.682 326.358 652.252 375.02 659.401 393.523L673.697 377.205C663.777 365.404 627.744 319.51 657.212 307.854C677.49 299.841 677.053 355.497 676.323 374.146L695.58 352.146C690.62 340.636 666.841 282.066 699.665 279.589C721.694 277.841 704.187 332.185 698.206 349.086L718.63 325.629C726.216 307.272 748.099 259.192 762.979 274.49C783.841 296.053 738.616 321.258 721.839 329.709L702.291 352.146C719.505 341.947 765.605 316.596 768.377 337.722C772.462 369.921 711.627 359.285 698.498 356.662L677.636 380.556C692.079 376.768 753.059 362.344 749.266 385.073C743.576 417.709 686.535 387.841 676.177 382.159L661.297 399.205C661.443 399.497 661.443 399.642 661.589 399.788C677.928 402.265 737.011 412.609 724.757 431.55C707.397 458.649 668.154 412.609 659.255 401.536L626.431 439.272L622.638 435.921L656.045 397.748C639.414 388.57 595.065 362.053 616.51 341.219Z" fill="#3E28A9"/>
<path d="M695.142 518.384C678.366 518.384 662.027 513.722 656.045 500.027C642.77 469.722 678.366 443.06 701.561 432.133C710.315 427.907 719.505 424.411 728.404 421.06C736.428 418 744.889 414.795 752.913 411.152C774.066 401.391 793.177 387.987 809.662 371.378C810.683 370.358 812.142 370.066 813.601 370.649C814.914 371.232 815.789 372.543 815.789 374C814.768 397.311 813.163 419.894 803.973 440.583C796.97 456.172 785.445 471.179 767.647 487.497C758.457 495.947 746.056 506.291 731.176 512.119C722.131 515.47 708.564 518.384 695.142 518.384ZM754.226 413.921C746.202 417.563 737.741 420.914 729.571 423.974C720.818 427.325 711.627 430.821 703.02 434.901C680.992 445.391 646.854 470.596 659.109 498.57C669.321 521.735 713.232 515.325 729.863 508.768C744.16 503.086 756.268 492.887 765.313 484.729C782.819 468.702 794.053 454.133 800.909 438.98C809.954 418.874 811.559 396.583 812.434 373.709C812.434 373.709 812.434 373.563 812.288 373.417C812.142 373.272 811.996 373.417 811.996 373.417C795.22 390.464 775.817 404.013 754.226 413.921Z" fill="#35C4A6"/>
<path d="M405.415 427.761C390.243 412.901 369.673 461.563 362.524 480.066L348.228 463.748C358.148 451.947 394.181 406.053 364.713 394.397C344.435 386.384 344.872 442.04 345.602 460.689L326.345 438.543C331.305 427.033 355.084 368.463 322.26 365.987C300.231 364.238 317.738 418.583 323.719 435.483L303.295 412.026C295.709 393.669 273.826 345.589 258.946 360.887C238.084 382.45 283.309 407.656 300.086 416.106L319.634 438.543C302.42 428.344 256.32 402.993 253.548 424.119C249.463 456.318 310.298 445.682 323.427 443.059L344.289 466.954C329.846 463.165 268.866 448.742 272.659 471.47C278.349 504.106 335.39 474.238 345.748 468.556L360.628 485.602C360.482 485.894 360.482 486.04 360.336 486.185C343.997 488.662 284.914 499.006 297.168 517.947C314.528 545.046 353.771 499.006 362.67 487.934L395.494 525.669L399.287 522.318L365.88 484.146C382.511 475.112 426.714 448.596 405.415 427.761Z" fill="#3E28A9"/>
<path d="M350.562 403.722C346.477 380.702 338.162 358.411 326.199 338.305C325.324 336.848 326.783 334.954 328.387 335.536C349.978 342.093 371.715 349.523 389.367 363.51C404.685 375.894 415.918 392.649 425.109 409.987C431.966 422.808 437.801 436.358 439.552 450.781C442.032 470.887 435.759 514.305 410.375 518.384C378.572 523.338 362.524 482.543 357.856 458.503C354.501 440.437 353.771 421.934 350.562 403.722Z" fill="#3E28A9"/>
<path d="M794.052 56.8211V55.0728C797.846 55.0728 801.639 53.9072 804.994 52.0132L805.869 53.4702C802.368 55.6556 798.283 56.8211 794.052 56.8211ZM782.236 53.9072C778.589 51.8675 775.525 48.9536 773.337 45.4569L774.796 44.5827C776.838 47.788 779.61 50.5563 782.965 52.4503L782.236 53.9072ZM814.331 44.8741L812.872 44C814.768 40.649 815.789 36.8609 815.789 33.0728C815.789 32.6357 815.789 32.1986 815.789 31.6159L817.54 31.4702C817.54 31.9072 817.54 32.49 817.54 32.9271C817.54 37.298 816.373 41.3774 814.331 44.8741ZM769.981 33.8013C769.981 33.5099 769.981 33.3642 769.981 33.0728C769.981 29.139 771.003 25.351 772.753 22L774.212 22.7284C772.607 25.9337 771.586 29.4304 771.586 33.0728C771.586 33.3642 771.586 33.5099 771.586 33.8013H769.981ZM812.142 20.9801C810.1 17.7748 807.182 15.1523 803.681 13.4039L804.41 11.947C808.058 13.841 811.267 16.6092 813.455 20.1059L812.142 20.9801ZM781.944 14.4238L781.069 12.9668C784.57 10.7814 788.509 9.47016 792.74 9.32446L792.885 11.0728C788.801 11.2185 785.154 12.3841 781.944 14.4238Z" fill="white"/>
<path d="M153.423 430.238C149.484 429.947 145.399 429.51 141.46 428.636L141.898 427.033C145.691 427.907 149.63 428.344 153.569 428.636L153.423 430.238ZM165.385 429.947L165.239 428.199C169.178 427.762 172.971 427.033 176.764 426.013L177.202 427.616C173.409 428.781 169.324 429.51 165.385 429.947ZM129.935 424.993C126.288 423.536 122.641 421.642 119.14 419.603L120.015 418.146C123.37 420.185 126.872 421.934 130.519 423.391L129.935 424.993ZM188.435 423.536L187.706 421.934C191.207 420.331 194.708 418.291 197.918 416.106L198.939 417.563C195.584 419.894 192.082 421.934 188.435 423.536ZM109.511 412.609C106.448 409.987 103.676 407.073 101.05 404.159L102.363 402.993C104.843 405.907 107.615 408.821 110.678 411.298L109.511 412.609ZM208.276 410.132L207.109 408.967C209.88 406.344 212.652 403.285 214.986 400.225L216.299 401.245C213.965 404.45 211.193 407.364 208.276 410.132ZM94.0475 394.397C92.0051 390.901 90.2545 387.404 88.7957 383.616L90.4004 383.033C91.8593 386.675 93.6099 390.172 95.6523 393.523L94.0475 394.397ZM222.864 391.192L221.405 390.463C223.302 386.967 224.761 383.324 226.074 379.682L227.678 380.265C226.365 383.907 224.761 387.55 222.864 391.192ZM85.2944 372.106C84.4191 368.172 83.9815 364.238 83.6897 360.159L85.4403 360.013C85.5862 363.947 86.1697 367.881 86.8992 371.669L85.2944 372.106ZM230.45 368.463L228.7 368.172C229.283 364.384 229.575 360.45 229.575 356.516C229.575 354.185 229.429 351.709 229.283 349.377L231.034 349.232C231.325 351.709 231.325 354.185 231.325 356.516C231.471 360.45 231.18 364.53 230.45 368.463ZM85.7321 348.358L84.1274 348.212C84.565 344.278 85.2944 340.199 86.4615 336.411L88.0663 336.848C86.8992 340.636 86.1697 344.424 85.7321 348.358ZM227.387 337.722C226.365 333.934 225.052 330.291 223.448 326.649L225.052 325.92C226.657 329.563 228.116 333.351 229.137 337.285L227.387 337.722ZM92.151 325.92L90.5463 325.192C92.2969 321.55 94.1934 318.053 96.5276 314.848L97.9864 315.867C95.7982 318.927 93.7558 322.278 92.151 325.92ZM217.612 316.45C215.424 313.245 212.944 310.04 210.318 307.271L211.631 306.106C214.403 309.02 216.883 312.225 219.071 315.576L217.612 316.45ZM105.427 306.543L104.26 305.377C107.031 302.464 110.095 299.841 113.304 297.364L114.326 298.675C110.97 301.152 108.053 303.775 105.427 306.543ZM201.711 299.404C198.647 297.073 195.292 294.887 191.936 292.993L192.812 291.536C196.313 293.43 199.668 295.616 202.878 298.093L201.711 299.404ZM124.1 292.556L123.37 291.099C126.872 289.205 130.665 287.603 134.458 286.437L135.041 288.04C131.248 289.205 127.601 290.662 124.1 292.556ZM181.141 288.331C177.494 287.02 173.555 286.146 169.762 285.417L170.054 283.814C173.993 284.543 177.931 285.417 181.724 286.728L181.141 288.331ZM146.274 285.271L145.983 283.523C149.776 282.94 153.569 282.649 157.508 282.649H157.945V284.397H157.508C153.86 284.252 150.067 284.689 146.274 285.271Z" fill="white"/>
<path d="M882.361 358.702C878.277 358.411 874.338 357.245 870.691 355.351L871.42 353.894C874.775 355.642 878.568 356.808 882.361 357.099V358.702ZM894.47 357.245L893.886 355.642C897.533 354.331 900.889 352.437 903.661 349.669L904.828 350.98C901.764 353.748 898.263 355.788 894.47 357.245ZM861.354 347.629C858.728 344.424 856.977 340.781 855.956 336.848L857.561 336.411C858.582 340.199 860.333 343.55 862.667 346.609L861.354 347.629ZM911.83 341.073L910.225 340.344C911.83 336.848 912.56 333.06 912.56 329.126H914.31C914.31 333.205 913.581 337.285 911.83 341.073ZM912.56 326.066C912.122 322.278 910.955 318.49 909.058 315.139L910.517 314.265C912.56 317.907 913.872 321.695 914.31 325.775L912.56 326.066ZM856.831 324.901L855.081 324.609C855.664 320.53 857.123 316.742 859.312 313.245L860.77 314.119C858.874 317.47 857.415 321.113 856.831 324.901ZM901.326 306.689C898.263 304.358 894.762 302.755 890.969 301.881L891.406 300.278C895.345 301.152 899.138 302.901 902.493 305.377L901.326 306.689ZM868.94 305.96L867.919 304.503C871.274 302.172 875.067 300.57 879.152 299.841L879.444 301.444C875.651 302.318 872.149 303.775 868.94 305.96Z" fill="white"/>
<path d="M748.682 10.1987C748.682 15.8808 744.16 20.3974 738.47 20.3974C732.781 20.3974 728.258 15.8808 728.258 10.1987C728.258 4.51656 732.781 0 738.47 0C744.16 0 748.682 4.51656 748.682 10.1987Z" fill="white"/>
<path d="M84.0297 257.152C84.0297 262.252 79.7991 266.477 74.6931 266.477C69.5871 266.477 65.3564 262.252 65.3564 257.152C65.3564 252.053 69.5871 247.828 74.6931 247.828C79.7991 247.828 84.0297 252.053 84.0297 257.152Z" fill="white"/>
<path d="M860.479 302.172C864.265 302.172 867.335 299.106 867.335 295.324C867.335 291.543 864.265 288.477 860.479 288.477C856.692 288.477 853.622 291.543 853.622 295.324C853.622 299.106 856.692 302.172 860.479 302.172Z" fill="white"/>
<path d="M362.816 17.7748C362.816 21.1258 360.19 23.7483 356.835 23.7483C353.479 23.7483 350.854 21.1258 350.854 17.7748C350.854 14.4238 353.479 11.8013 356.835 11.8013C360.19 11.947 362.816 14.5695 362.816 17.7748Z" fill="white"/>
<path d="M324.594 109.417H267.699C263.906 109.417 260.843 112.477 260.843 116.265V152.98C260.843 156.768 263.906 159.828 267.699 159.828H284.622L290.02 169.152L296.147 179.788L302.274 169.152L307.672 159.828H324.594C328.387 159.828 331.451 156.768 331.451 152.98V116.265C331.451 112.477 328.387 109.417 324.594 109.417Z" fill="#E8DAFF"/>
<path d="M284.768 215.192C272.805 207.907 265.511 222.185 265.365 222.185C265.365 222.04 257.925 207.761 245.962 215.192C232.249 223.642 245.67 250.159 265.365 256.569C285.059 250.305 298.481 223.642 284.768 215.192Z" fill="#FF5C5B"/>
<path d="M205.698 138.556C210.658 139.139 215.618 139.139 220.578 138.702C221.745 138.556 223.058 138.411 224.08 137.828C225.101 137.245 225.83 136.079 225.538 134.914C226.414 134.914 227.143 134.185 227.872 133.603C228.164 133.311 228.456 133.02 228.602 132.728C228.748 132.291 228.748 131.854 228.748 131.417C228.748 130.106 228.018 128.795 226.851 128.212C227.873 127.92 228.748 127.046 229.185 125.881C229.477 124.861 229.331 123.55 228.602 122.675C228.164 122.093 227.581 121.801 226.851 121.51C227.289 121.073 228.018 120.927 228.456 120.344C229.04 119.616 228.748 118.45 228.018 117.867C227.289 117.285 226.414 116.993 225.538 116.993C223.934 116.848 222.183 116.993 220.578 117.139C218.974 117.139 217.077 116.848 215.618 116.119C215.326 113.934 215.764 111.748 215.18 109.563C214.451 106.94 211.971 104.901 209.345 104.755C208.762 104.755 208.178 104.755 207.886 105.192C207.594 105.483 207.594 105.92 207.594 106.212C207.594 107.96 208.178 109.709 208.616 111.311C209.053 113.06 209.053 114.954 208.178 116.411C207.74 116.993 207.303 117.43 206.865 118.013C206.427 118.887 206.427 119.907 206.281 120.781C206.136 121.656 205.406 122.675 204.385 122.53L205.698 138.556Z" fill="white"/>
<path d="M204.969 140.305H199.133C198.695 140.305 198.258 139.868 198.258 139.43V119.033C198.258 118.596 198.695 118.159 199.133 118.159H204.969C205.406 118.159 205.844 118.596 205.844 119.033V139.576C205.844 140.013 205.406 140.305 204.969 140.305Z" fill="#121B46"/>
<path d="M201.759 121.801C202.243 121.801 202.634 121.41 202.634 120.927C202.634 120.444 202.243 120.053 201.759 120.053C201.276 120.053 200.884 120.444 200.884 120.927C200.884 121.41 201.276 121.801 201.759 121.801Z" fill="white"/>
<path d="M809.954 171.629H753.059C749.266 171.629 746.202 174.689 746.202 178.477V215.192C746.202 218.98 749.266 222.04 753.059 222.04H769.982L775.379 231.364L781.507 242L787.634 231.364L793.031 222.04H809.954C813.747 222.04 816.811 218.98 816.811 215.192V178.477C816.811 174.689 813.747 171.629 809.954 171.629Z" fill="#FDB32C"/>
<path d="M776.838 213.152C781.798 213.735 786.759 213.735 791.719 213.298C792.886 213.152 794.199 213.007 795.22 212.424C796.241 211.841 796.971 210.676 796.679 209.51C797.554 209.51 798.284 208.782 799.013 208.199C799.305 207.907 799.596 207.616 799.742 207.325C799.888 206.888 799.888 206.45 799.888 206.013C799.888 204.702 799.159 203.391 797.992 202.808C799.013 202.517 799.888 201.642 800.326 200.477C800.618 199.457 800.472 198.146 799.742 197.272C799.305 196.689 798.721 196.397 797.992 196.106C798.429 195.669 799.159 195.523 799.596 194.94C800.18 194.212 799.888 193.046 799.159 192.464C798.429 191.881 797.554 191.589 796.679 191.589C795.074 191.444 793.323 191.589 791.719 191.735C790.114 191.881 788.217 191.444 786.759 190.715C786.467 188.53 786.904 186.344 786.321 184.159C785.591 181.537 783.111 179.497 780.486 179.351C779.902 179.351 779.318 179.351 779.027 179.788C778.735 180.08 778.735 180.517 778.735 180.808C778.735 182.556 779.318 184.305 779.756 185.907C780.194 187.656 780.194 189.55 779.318 191.007C778.881 191.589 778.443 192.027 778.005 192.609C777.568 193.484 777.568 194.503 777.422 195.378C777.13 196.252 776.547 197.272 775.525 197.126L776.838 213.152Z" fill="white"/>
<path d="M776.109 215.047H770.273C769.836 215.047 769.398 214.609 769.398 214.172V193.629C769.398 193.192 769.836 192.755 770.273 192.755H776.109C776.547 192.755 776.984 193.192 776.984 193.629V214.172C776.984 214.609 776.547 215.047 776.109 215.047Z" fill="#121B46"/>
<path d="M773.921 195.669C773.921 196.106 773.483 196.543 773.045 196.543C772.608 196.543 772.17 196.106 772.17 195.669C772.17 195.232 772.608 194.795 773.045 194.795C773.483 194.649 773.921 195.086 773.921 195.669Z" fill="white"/>
<path d="M780.048 518.384H763.417C764.73 528.583 765.751 536.305 766.189 539.656C766.189 539.656 754.664 547.523 746.786 546.503C746.348 546.503 745.911 546.649 745.619 546.94C745.327 547.377 745.036 548.252 745.765 549.126C746.057 549.417 746.348 549.563 746.64 549.563H777.86C779.027 549.563 780.048 548.689 780.194 547.523C780.34 546.212 780.486 543.007 779.61 540.093L780.048 518.384Z" fill="#CC6F49"/>
<path d="M761.812 542.424C761.812 542.424 764.584 544.172 765.022 546.066C765.168 547.086 768.231 546.795 771.149 546.503C774.066 546.066 776.838 544.755 779.318 543.152C779.756 542.861 780.194 542.57 780.485 542.715C781.507 542.861 781.507 549.417 780.194 550C779.027 550.437 750.433 550.146 745.911 550C745.619 550 745.327 549.709 745.327 549.417C745.327 548.252 745.473 546.212 747.224 545.921C749.266 545.338 761.812 542.424 761.812 542.424Z" fill="#121B46"/>
<path d="M818.124 518.384H801.493L805.578 540.093C805.286 543.007 805.87 546.212 806.307 547.523C806.745 548.689 807.766 549.563 808.933 549.563H834.901C834.901 548.397 834.901 547.377 834.901 546.212C827.607 544.901 818.853 539.656 818.853 539.656C818.999 536.305 818.562 528.583 818.124 518.384Z" fill="#CC6F49"/>
<path d="M824.251 542.424C824.251 542.424 821.48 544.172 821.042 546.066C820.896 547.086 817.832 546.795 814.915 546.503C811.997 546.066 809.225 544.755 806.745 543.152C806.307 542.861 805.87 542.57 805.578 542.715C804.557 542.861 804.557 549.417 805.87 550C807.037 550.437 835.63 550.146 840.153 550C840.445 550 840.736 549.709 840.736 549.417C840.736 548.252 840.59 546.212 838.84 545.921C836.797 545.338 824.251 542.424 824.251 542.424Z" fill="#121B46"/>
<path d="M760.353 324.464C760.353 324.464 750.725 333.205 751.6 340.344C752.475 347.483 758.894 368.901 756.998 383.616C754.956 398.331 750.433 411.007 751.6 426.596C752.767 442.185 762.396 528.437 762.396 528.437C762.396 528.437 784.278 521.152 791.864 524.503C799.45 527.854 820.458 530.768 823.376 529.603C823.376 529.603 818.561 413.338 802.66 391.483C802.66 391.483 799.888 360.159 802.66 353.166C805.432 346.172 802.076 326.795 795.074 324.464C787.78 322.132 760.353 324.464 760.353 324.464Z" fill="#FDB32C"/>
<path d="M767.21 335.245C772.608 334.517 777.86 333.934 783.111 333.06C785.737 332.622 788.363 332.04 790.843 331.457C793.469 330.874 795.949 330 798.575 329.271C794.053 332.185 788.655 333.788 783.403 334.808C780.777 335.245 778.005 335.536 775.379 335.682C772.608 335.682 769.982 335.682 767.21 335.245Z" fill="#121B46"/>
<path d="M773.337 473.947C776.984 469.43 780.777 465.06 784.133 460.397C787.634 455.881 790.843 451.073 794.199 446.265C792.011 451.656 788.947 456.755 785.446 461.417C781.944 466.079 778.005 470.305 773.337 473.947Z" fill="#121B46"/>
<path d="M784.57 471.616C785.3 469.139 786.467 466.954 787.78 464.768C789.093 462.583 790.552 460.543 792.448 458.795C791.719 461.271 790.552 463.457 789.239 465.642C787.78 467.828 786.321 469.868 784.57 471.616Z" fill="#121B46"/>
<path d="M784.862 385.218C785.008 383.907 776.109 381.576 776.401 380.556C776.693 379.682 779.027 379.391 780.194 379.536C780.485 379.536 780.631 379.391 780.631 379.099C780.631 378.662 780.34 377.934 779.027 377.788C777.422 377.642 774.212 377.351 770.565 378.516C770.128 378.225 766.189 376.185 760.353 372.834C759.332 376.331 758.311 379.828 756.998 383.179C760.937 383.907 764.876 384.49 768.961 384.781C771.149 386.821 776.401 391.483 779.318 392.503C779.61 392.649 779.756 392.357 779.61 392.066C779.464 391.629 778.735 390.609 776.693 389.006C776.693 389.006 781.944 391.192 782.82 390.755C783.695 390.318 777.568 386.675 777.568 386.675C777.568 386.675 783.695 388.569 784.278 387.841C784.862 387.112 778.297 384.198 778.297 384.198C778.297 384.198 784.862 385.801 784.862 385.218Z" fill="#CC6F49"/>
<path d="M757.144 327.232C757.144 327.232 744.889 339.761 737.887 349.523C730.885 359.285 729.572 364.675 731.176 370.795C732.927 376.914 743.431 380.41 746.64 381.43C749.704 382.45 765.022 385.218 765.022 385.218L767.502 376.185L749.85 365.987L767.939 339.907L757.144 327.232Z" fill="#FDB32C"/>
<path d="M743.431 363.51C744.598 363.51 745.765 363.801 746.932 364.093C748.099 364.384 749.12 364.821 750.141 365.258L749.12 366.424C748.391 365.113 747.807 363.801 747.515 362.199C748.828 363.219 749.704 364.384 750.579 365.55L751.892 367.589L749.558 366.715C748.537 366.278 747.37 365.987 746.348 365.404C745.327 364.967 744.452 364.384 743.431 363.51Z" fill="#121B46"/>
<path d="M759.04 355.788C759.77 354.185 760.937 352.874 762.104 351.709C763.271 350.543 764.584 349.523 766.335 348.795C765.605 350.397 764.438 351.709 763.271 352.874C762.104 354.04 760.791 355.205 759.04 355.788Z" fill="#121B46"/>
<path d="M804.702 390.318H751.163V358.265C751.163 356.954 752.184 355.788 753.643 355.788H802.368C803.681 355.788 804.848 356.808 804.848 358.265V390.318H804.702Z" fill="#DFDFDF"/>
<path d="M804.702 389.735H751.163V393.669H804.702V389.735Z" fill="#A1B0CF"/>
<path d="M782.82 374.437C782.82 377.06 780.631 379.245 778.005 379.245C775.379 379.245 773.191 377.06 773.191 374.437C773.191 371.815 775.379 369.629 778.005 369.629C780.631 369.629 782.82 371.815 782.82 374.437Z" fill="white"/>
<path d="M807.766 383.033L806.891 381.868C806.599 381.868 806.453 382.013 806.307 382.013C806.015 381.868 805.578 381.576 805.286 381.43C804.994 382.013 804.848 382.305 804.702 382.45C801.055 383.616 798.429 385.51 797.262 386.53C796.241 387.258 796.387 388.132 796.679 388.57C796.825 388.861 797.116 388.861 797.262 388.715C798.283 387.987 800.326 387.113 801.055 387.55C801.785 388.132 795.658 394.98 796.533 396C796.825 396.437 801.347 391.629 801.347 391.629C801.347 391.629 797.408 397.603 798.429 397.894C799.305 398.04 803.389 393.232 803.389 393.232C803.389 393.232 800.18 399.788 801.201 399.497C802.222 399.351 805.286 394.689 805.286 394.689C804.411 397.166 804.411 398.331 804.557 398.914C804.557 399.205 804.848 399.205 804.994 399.06C806.891 396.728 808.787 389.881 809.517 386.967C810.246 386.384 810.83 385.947 811.559 385.364C810.246 384.636 809.079 383.907 807.766 383.033Z" fill="#CC6F49"/>
<path d="M797.116 326.212C797.116 326.212 801.931 328.252 804.556 329.854C807.182 331.603 832.566 353.166 832.858 359.43C833.15 365.695 810.684 387.404 810.684 387.404L804.848 381.576L813.893 362.636L789.239 339.907L797.116 326.212Z" fill="#FDB32C"/>
<path d="M817.102 358.556C816.957 359.431 816.519 360.305 816.081 361.033C815.644 361.762 815.206 362.49 814.622 363.219L813.309 364.821L813.164 362.782C813.164 362.053 813.164 361.325 813.164 360.742C813.164 360.013 813.309 359.285 813.601 358.556C814.039 359.285 814.185 359.868 814.476 360.596C814.622 361.325 814.768 361.907 814.914 362.636L813.455 362.199C813.893 361.47 814.477 360.742 815.06 360.159C815.644 359.576 816.227 358.993 817.102 358.556Z" fill="#121B46"/>
<path d="M806.015 380.702C807.474 380.994 808.495 381.576 809.517 382.305C810.538 383.033 811.413 383.907 811.997 385.219C810.538 384.927 809.517 384.345 808.495 383.616C807.474 382.888 806.599 382.013 806.015 380.702Z" fill="#121B46"/>
<path d="M802.66 352.292L794.344 347.921L801.931 355.351L802.66 352.292Z" fill="#121B46"/>
<path d="M796.533 298.384C796.095 296.927 794.49 295.762 792.886 296.053C793.615 275.656 776.546 278.278 776.546 278.278C765.897 279.152 764.584 290.517 764.73 296.344C764.438 296.199 764 296.053 763.854 295.907C762.25 295.47 760.645 296.636 760.207 298.238C759.77 299.404 760.061 300.715 760.791 301.735C761.374 302.609 762.25 303.338 763.271 303.775C763.563 303.921 764.438 304.066 765.167 303.921C766.772 317.325 779.027 316.013 779.027 316.013C789.53 316.596 792.302 309.166 792.886 303.921C793.323 303.921 793.615 303.775 793.761 303.775C794.782 303.338 795.657 302.609 796.241 301.735C796.679 300.861 796.825 299.55 796.533 298.384Z" fill="#CC6F49"/>
<path d="M787.342 306.98C789.276 306.98 790.843 305.415 790.843 303.484C790.843 301.552 789.276 299.987 787.342 299.987C785.408 299.987 783.841 301.552 783.841 303.484C783.841 305.415 785.408 306.98 787.342 306.98Z" fill="#C4533A"/>
<path d="M770.273 306.98C772.207 306.98 773.775 305.415 773.775 303.484C773.775 301.552 772.207 299.987 770.273 299.987C768.34 299.987 766.772 301.552 766.772 303.484C766.772 305.415 768.34 306.98 770.273 306.98Z" fill="#C4533A"/>
<path d="M783.111 298.821C783.675 298.821 784.133 297.908 784.133 296.781C784.133 295.655 783.675 294.742 783.111 294.742C782.547 294.742 782.09 295.655 782.09 296.781C782.09 297.908 782.547 298.821 783.111 298.821Z" fill="#121B46"/>
<path d="M785.154 294.159C785.008 294.45 784.716 294.742 784.424 295.033C784.132 295.324 783.841 295.47 783.403 295.616C783.257 295.616 782.965 295.47 782.965 295.324C782.965 295.179 783.111 294.887 783.257 294.887C783.257 294.887 783.257 294.887 783.403 294.887C783.987 294.887 784.57 294.596 785.008 294.013C785.008 294.013 785.008 294.013 785.154 294.159C785.154 294.013 785.154 294.159 785.154 294.159Z" fill="#121B46"/>
<path d="M774.504 298.821C775.068 298.821 775.525 297.908 775.525 296.781C775.525 295.655 775.068 294.742 774.504 294.742C773.94 294.742 773.483 295.655 773.483 296.781C773.483 297.908 773.94 298.821 774.504 298.821Z" fill="#121B46"/>
<path d="M772.754 294.013C773.191 294.45 773.775 294.887 774.358 294.887C774.504 294.887 774.796 295.033 774.796 295.179C774.796 295.324 774.65 295.616 774.504 295.616C774.504 295.616 774.504 295.616 774.358 295.616C773.921 295.47 773.629 295.324 773.337 295.033C773.045 294.742 772.899 294.45 772.608 294.159V294.013C772.608 294.013 772.608 294.013 772.754 294.013Z" fill="#121B46"/>
<path d="M782.528 302.901C782.236 303.629 781.653 304.212 781.069 304.649C780.485 305.086 779.61 305.377 778.881 305.377C778.005 305.377 777.276 305.086 776.692 304.649C776.401 304.503 776.109 304.212 775.817 303.921C775.525 303.629 775.379 303.338 775.088 303.046C775.379 303.338 775.671 303.483 775.963 303.775C776.255 303.921 776.547 304.212 776.838 304.358C777.422 304.649 778.151 304.94 778.735 304.94C779.464 304.94 780.048 304.795 780.631 304.358C781.361 303.921 781.944 303.483 782.528 302.901Z" fill="#121B46"/>
<path d="M779.902 306.543C779.61 306.834 779.173 306.834 778.881 306.834C778.443 306.834 778.151 306.689 777.86 306.543C778.297 306.543 778.589 306.689 778.881 306.689C779.173 306.689 779.464 306.543 779.902 306.543Z" fill="#121B46"/>
<path d="M776.401 289.788C775.963 289.351 775.379 289.205 774.796 289.205C774.212 289.205 773.629 289.205 773.191 289.497C772.608 289.642 772.17 289.934 771.732 290.371C771.295 290.662 771.003 291.245 770.711 291.682C770.565 291.974 770.711 292.265 770.857 292.265C771.003 292.411 771.295 292.265 771.44 292.265C771.732 291.974 772.024 291.682 772.462 291.536C772.753 291.245 773.191 291.245 773.483 291.099C773.921 290.954 774.212 290.954 774.65 290.954C775.088 290.954 775.525 290.954 775.963 290.954H776.109C776.401 290.954 776.546 290.662 776.401 290.371C776.401 289.934 776.401 289.788 776.401 289.788Z" fill="#121B46"/>
<path d="M781.215 289.788C781.652 289.351 782.236 289.205 782.819 289.205C783.403 289.205 783.987 289.205 784.424 289.497C785.008 289.642 785.445 289.934 785.883 290.371C786.321 290.662 786.612 291.245 786.904 291.682C787.05 291.974 786.904 292.265 786.758 292.265C786.612 292.411 786.321 292.265 786.175 292.265C785.883 291.974 785.591 291.682 785.154 291.536C784.862 291.245 784.424 291.245 784.132 291.099C783.695 290.954 783.403 290.954 782.965 290.954C782.528 290.954 782.09 290.954 781.652 290.954H781.506C781.215 290.954 781.069 290.662 781.215 290.371C781.215 289.934 781.215 289.788 781.215 289.788Z" fill="#121B46"/>
<path d="M779.027 293.722C779.173 294.45 779.318 295.179 779.464 296.053C779.61 296.782 779.756 297.51 779.902 298.238C779.902 298.384 780.048 298.53 780.048 298.821C780.048 298.967 780.194 299.258 780.194 299.404C780.194 299.841 779.902 300.424 779.464 300.57C779.027 300.861 778.589 300.715 778.151 300.57C777.714 300.424 777.422 300.278 777.13 299.987C777.86 300.278 778.735 300.424 779.172 300.133C779.464 299.987 779.61 299.695 779.464 299.404C779.464 299.258 779.464 299.113 779.318 298.967C779.173 298.821 779.172 298.53 779.172 298.384C779.027 297.656 778.881 296.782 778.735 296.053C778.881 295.325 778.881 294.45 779.027 293.722Z" fill="#121B46"/>
<path d="M761.375 299.404C761.375 298.967 761.52 298.384 761.958 298.093C762.396 297.801 762.979 297.801 763.417 297.947C763.855 298.093 764.292 298.53 764.584 298.821C764.876 299.258 765.167 299.695 765.313 300.132C765.313 300.278 765.313 300.57 765.167 300.57C765.022 300.57 764.876 300.57 764.73 300.424C764.438 300.132 764 299.695 763.563 299.55C763.417 299.55 763.271 299.55 763.125 299.55C762.979 299.695 762.833 299.841 762.833 300.132C762.687 300.57 762.542 301.152 762.979 301.298C763.417 301.589 764 301.444 764.438 301.444C764 301.589 763.417 301.881 762.833 301.735C762.542 301.589 762.25 301.298 762.25 301.007C762.25 300.715 762.25 300.424 762.396 300.132C762.542 299.841 762.542 299.55 762.833 299.258C763.125 298.967 763.563 298.967 763.854 299.113C764.438 299.258 764.876 299.695 765.313 300.132L764.73 300.424C764.438 299.695 763.854 298.821 763.125 298.53C762.687 298.384 762.25 298.238 761.958 298.53C761.812 298.53 761.52 298.967 761.375 299.404Z" fill="#121B46"/>
<path d="M795.657 299.404C795.657 298.967 795.512 298.384 795.074 298.093C794.636 297.801 794.053 297.801 793.615 297.947C793.177 298.093 792.74 298.53 792.448 298.821C792.156 299.258 791.864 299.695 791.719 300.132C791.719 300.278 791.718 300.57 791.864 300.57C792.01 300.57 792.156 300.57 792.302 300.424C792.594 300.132 793.031 299.695 793.469 299.55C793.615 299.55 793.761 299.55 793.907 299.55C794.053 299.695 794.199 299.841 794.199 300.132C794.344 300.57 794.49 301.152 794.053 301.298C793.615 301.589 793.031 301.444 792.594 301.444C793.031 301.589 793.615 301.881 794.199 301.735C794.49 301.589 794.782 301.298 794.782 301.007C794.782 300.715 794.782 300.424 794.636 300.132C794.49 299.841 794.49 299.55 794.199 299.258C793.907 298.967 793.469 298.967 793.177 299.113C792.594 299.258 792.156 299.695 791.719 300.132L792.302 300.424C792.594 299.695 793.177 298.821 793.907 298.53C794.344 298.384 794.782 298.238 795.074 298.53C795.366 298.53 795.512 298.967 795.657 299.404Z" fill="#121B46"/>
<path d="M799.451 326.358H799.305C795.512 325.338 793.323 321.258 794.199 317.47C795.512 310.623 797.7 298.53 797.408 295.033C796.825 290.225 793.615 276.53 780.777 275.51C768.085 274.49 760.207 282.94 758.749 295.325C757.144 307.563 761.229 320.967 761.229 320.967C761.083 322.861 754.664 328.98 752.621 330.874C752.33 331.02 752.476 331.457 752.767 331.603C772.024 337.722 794.053 329.563 799.451 327.232C799.888 326.94 799.888 326.358 799.451 326.358ZM778.735 315.285C771.295 315.285 765.313 308.291 765.313 299.841C765.313 291.245 771.295 284.397 778.735 284.397C786.175 284.397 792.156 291.391 792.156 299.841C792.156 308.437 786.175 315.285 778.735 315.285Z" fill="#121B46"/>
<path d="M754.956 330.583C760.645 328.543 766.189 326.212 771.441 323.59C774.066 322.278 776.692 320.821 779.172 319.073C781.653 317.325 783.841 315.576 786.029 313.391C784.424 316.013 782.236 318.199 779.902 320.093C777.568 321.987 774.942 323.59 772.17 325.046C769.398 326.358 766.626 327.523 763.709 328.543C760.791 329.563 757.873 330.292 754.956 330.583Z" fill="white"/>
<path d="M770.565 313.245C768.815 312.662 767.21 311.497 765.897 310.186C764.584 308.874 763.417 307.272 762.687 305.523C761.958 303.775 761.52 301.881 761.666 299.987C761.666 299.113 761.812 298.093 761.958 297.219C762.104 296.345 762.396 295.47 762.687 294.596C762.687 295.47 762.687 296.49 762.687 297.364C762.833 298.239 762.687 299.113 762.979 299.987L763.125 301.298L763.417 302.609C763.563 303.047 763.709 303.484 763.854 303.921C764 304.358 764.146 304.795 764.292 305.086C764.876 306.689 765.897 308.146 766.918 309.603C767.793 310.768 769.106 312.08 770.565 313.245Z" fill="white"/>
<path d="M768.085 290.517C768.085 290.517 779.318 285.417 789.53 290.517C789.53 290.517 779.172 273.907 768.085 290.517Z" fill="white"/>
<path d="M671.363 550H401.038C384.553 550 371.278 536.742 371.278 520.278V61.9206C371.278 45.457 384.553 32.1987 401.038 32.1987H671.363C687.848 32.1987 701.124 45.457 701.124 61.9206V520.278C701.124 536.742 687.702 550 671.363 550Z" fill="#3E28A9"/>
<path d="M574.35 44.7285H497.906V50.4106H574.35V44.7285Z" fill="#ADADAD"/>
<path d="M572.453 521.152H499.948V535.868H572.453V521.152Z" fill="#ADADAD"/>
<path d="M693.246 65.7087H379.301V511.828H693.246V65.7087Z" fill="white"/>
<path d="M693.246 65.7087H379.301V82.7551H693.246V65.7087Z" fill="#121B46"/>
<path d="M407.165 418.216C414.094 418.216 419.711 412.606 419.711 405.686C419.711 398.766 414.094 393.156 407.165 393.156C400.236 393.156 394.619 398.766 394.619 405.686C394.619 412.606 400.236 418.216 407.165 418.216Z" fill="#6DB2E3"/>
<path d="M407.165 499.152C414.094 499.152 419.711 493.543 419.711 486.623C419.711 479.703 414.094 474.093 407.165 474.093C400.236 474.093 394.619 479.703 394.619 486.623C394.619 493.543 400.236 499.152 407.165 499.152Z" fill="#3CDEBC"/>
<path d="M442.032 418.216C448.961 418.216 454.578 412.606 454.578 405.686C454.578 398.766 448.961 393.156 442.032 393.156C435.103 393.156 429.486 398.766 429.486 405.686C429.486 412.606 435.103 418.216 442.032 418.216Z" fill="#6DB2E3"/>
<path d="M528.833 372.106H461.726V378.662H528.833V372.106Z" fill="white"/>
<path d="M675.594 426.375H396.807V432.931H675.594V426.375Z" fill="#CABFFF"/>
<path d="M675.594 439.779H396.807V446.335H675.594V439.779Z" fill="#CABFFF"/>
<path d="M463.915 453.037H396.807V459.593H463.915V453.037Z" fill="#CABFFF"/>
<path d="M491.925 476.278H424.817V482.835H491.925V476.278Z" fill="#CABFFF"/>
<path d="M419.394 145.509C420.992 138.776 416.822 132.024 410.08 130.428C403.338 128.833 396.577 132.997 394.98 139.731C393.382 146.464 397.552 153.216 404.294 154.811C411.036 156.407 417.796 152.243 419.394 145.509Z" fill="#FF5C5B"/>
<path d="M491.925 132.292H424.817V138.848H491.925V132.292Z" fill="white"/>
<path d="M569.973 408.017H461.726V414.573H569.973V408.017Z" fill="#CABFFF"/>
<path d="M693.578 82.6045H379.742V369.106H693.578V82.6045Z" fill="#C5A2FD"/>
<path d="M614.234 361.787C605.531 361.787 596.701 357.761 589.763 354.615C580.681 350.464 574.878 339.266 576.77 329.453C578.032 322.785 583.078 316.997 589.132 315.362C589.763 315.236 590.394 314.984 591.151 314.858C592.16 314.607 593.169 314.481 594.052 314.103C597.458 312.72 600.107 309.323 601.116 304.919C601.999 301.145 601.746 296.993 601.494 293.093V292.464C601.116 285.67 600.863 278.498 603.386 271.956C605.657 265.917 611.333 259.5 618.776 258.997C619.659 258.871 620.542 258.997 621.425 258.997C622.686 258.997 623.821 258.997 624.956 258.871C630.381 257.865 633.786 252.329 636.561 247.8C639.337 243.27 643.751 237.357 650.059 237.357C653.969 237.483 657.753 240.125 659.645 244.025C661.159 247.422 661.285 251.574 660.024 255.726C659.645 256.858 659.141 258.116 658.762 259.249C657.375 262.897 655.987 266.294 657.375 269.44C658.005 270.824 659.141 272.082 660.276 273.214C660.654 273.717 661.159 274.095 661.537 274.598C667.214 281.14 667.971 291.583 663.43 299.006C660.402 303.913 655.356 307.184 650.563 310.455C644.508 314.607 638.832 318.507 636.814 325.049C635.805 328.446 636.057 331.969 636.309 335.618C636.561 338.763 636.814 342.16 636.183 345.305C634.922 351.722 630.002 357.509 623.443 360.151C620.415 361.284 617.262 361.787 614.234 361.787ZM620.289 260.255C619.785 260.255 619.406 260.255 618.902 260.255C612.09 260.759 606.792 266.672 604.774 272.333C602.377 278.624 602.629 285.67 603.008 292.212V292.841C603.26 296.867 603.512 301.019 602.629 305.171C601.494 310.077 598.467 313.852 594.683 315.362C593.673 315.739 592.538 315.991 591.529 316.242C590.898 316.368 590.268 316.494 589.637 316.746C584.087 318.381 579.546 323.54 578.284 329.704C576.518 338.637 582.068 349.331 590.394 353.232C599.476 357.383 612.09 363.171 622.812 358.641C628.867 356.125 633.408 350.841 634.669 344.802C635.3 341.782 635.048 338.637 634.795 335.492C634.543 331.843 634.291 327.943 635.3 324.294C637.318 317.249 643.625 313.097 649.554 308.945C654.221 305.8 659.015 302.529 661.916 297.874C666.205 291.08 665.448 281.266 660.15 275.227C659.771 274.724 659.393 274.346 658.888 273.969C657.753 272.711 656.492 271.453 655.735 269.691C654.095 265.917 655.609 262.017 657.122 258.368C657.627 257.236 658.005 256.103 658.384 254.971C659.645 251.197 659.519 247.296 658.132 244.277C656.618 240.88 653.212 238.49 649.932 238.49C644.382 238.49 640.22 244.025 637.697 248.177C634.795 252.958 631.137 258.871 625.083 259.878C623.821 260.129 622.434 260.129 621.172 260.004C621.046 260.255 620.668 260.255 620.289 260.255Z" fill="#8771F3"/>
<path d="M663.048 226.993C659.838 226.993 657.358 224.371 657.358 221.311C657.358 218.106 659.984 215.629 663.048 215.629C666.111 215.629 668.737 218.251 668.737 221.311C668.737 224.516 666.257 226.993 663.048 226.993ZM663.048 217.232C660.86 217.232 658.963 218.98 658.963 221.311C658.963 223.496 660.714 225.39 663.048 225.39C665.382 225.39 667.133 223.642 667.133 221.311C667.133 219.126 665.236 217.232 663.048 217.232Z" fill="#8771F3"/>
<path d="M637.81 196.98C637.81 198.145 636.788 199.165 635.621 199.165C634.454 199.165 633.433 198.145 633.433 196.98C633.433 195.814 634.454 194.794 635.621 194.794C636.788 194.794 637.81 195.814 637.81 196.98Z" fill="#8771F3"/>
<path d="M409.354 322.132C410.884 322.132 412.125 320.893 412.125 319.364C412.125 317.835 410.884 316.596 409.354 316.596C407.823 316.596 406.582 317.835 406.582 319.364C406.582 320.893 407.823 322.132 409.354 322.132Z" fill="#8771F3"/>
<path d="M662.61 334.371C659.693 334.371 657.358 332.04 657.358 329.126C657.358 326.212 659.693 323.881 662.61 323.881C665.528 323.881 667.862 326.212 667.862 329.126C667.862 332.04 665.528 334.371 662.61 334.371ZM662.61 325.483C660.568 325.483 658.963 327.086 658.963 329.126C658.963 331.165 660.568 332.768 662.61 332.768C664.653 332.768 666.257 331.165 666.257 329.126C666.257 327.086 664.653 325.483 662.61 325.483Z" fill="#8771F3"/>
<path d="M489.153 318.635C489.153 318.635 472.668 345.735 467.854 369.337H578.58C578.58 369.337 570.119 328.543 560.491 318.927L489.153 318.635Z" fill="#121B46"/>
<path d="M486.527 326.649C489.736 326.503 492.946 326.357 496.155 326.212L505.784 325.92C512.203 325.775 518.622 325.775 525.186 325.775C531.605 325.775 538.024 325.775 544.589 325.92L554.218 326.212C557.427 326.357 560.636 326.503 563.846 326.649C560.636 326.795 557.427 326.94 554.218 327.086L544.589 327.377C538.17 327.523 531.751 327.523 525.186 327.523C518.767 327.523 512.349 327.523 505.784 327.377L496.155 327.086C492.946 326.795 489.736 326.795 486.527 326.649Z" fill="white"/>
<path d="M497.76 327.232C497.322 329.417 496.593 331.457 495.718 333.351C494.842 335.245 493.529 337.139 492.216 338.887C490.758 340.49 489.007 342.093 486.964 342.967C484.922 343.987 482.442 344.132 480.4 343.404C482.588 343.404 484.63 342.821 486.381 341.801C488.132 340.781 489.59 339.324 490.903 337.867C493.529 334.662 495.572 331.02 497.76 327.232Z" fill="white"/>
<path d="M530.876 326.357C531.168 331.748 531.314 337.285 531.46 342.675L531.605 350.834V358.993V359.285L531.314 359.576C528.396 362.49 525.478 365.549 522.415 368.463L520.956 369.92V367.881C521.102 361.033 520.956 354.04 521.102 347.192C521.248 340.344 521.393 333.351 521.685 326.503C521.977 333.351 522.123 340.344 522.269 347.192C522.415 354.04 522.415 361.033 522.415 367.881L520.956 367.298C523.874 364.384 526.937 361.324 529.855 358.41L529.563 358.993V350.834L529.709 342.675C530.438 337.285 530.584 331.748 530.876 326.357Z" fill="white"/>
<path d="M555.968 326.649C556.26 328.689 556.552 330.583 556.989 332.331C557.427 334.225 558.156 335.973 559.178 337.43C560.199 338.887 561.658 340.053 563.262 340.781C565.013 341.51 566.91 341.656 568.806 341.801C566.91 342.384 564.867 342.675 562.825 342.093C560.782 341.656 558.886 340.199 557.719 338.45C556.552 336.702 555.968 334.662 555.676 332.622C555.385 330.583 555.531 328.543 555.968 326.649Z" fill="white"/>
<path d="M616.656 207.033L602.943 207.47C602.943 207.47 598.567 227.576 592.439 254.384C590.397 251.179 588.5 248.265 586.896 245.351C580.768 257.298 573.328 268.371 565.305 279.152C569.827 286.874 575.079 295.324 581.06 304.066C581.206 304.212 581.206 304.357 581.352 304.503C591.856 320.093 616.219 314.41 618.699 295.761C618.699 295.616 618.699 295.324 618.845 295.179C622.492 267.059 623.075 236.463 616.656 207.033Z" fill="#F7BB8B"/>
<path d="M608.487 186.781C608.195 183.285 607.757 179.497 607.174 179.642C606.152 179.788 605.715 182.265 605.277 185.47C606.298 185.761 607.465 186.199 608.487 186.781Z" fill="#F28766"/>
<path d="M614.322 191.152C614.322 187.364 614.03 179.788 612.717 179.205C611.696 178.622 610.675 183.43 609.946 187.51C611.55 188.53 613.155 189.841 614.322 191.152Z" fill="#F28766"/>
<path d="M623.805 186.053C622.929 186.636 621.325 188.53 619.428 193.775C619.428 193.775 620.741 182.119 619.428 180.371C618.407 179.06 615.781 187.947 614.76 191.735C615.489 192.609 615.927 193.629 616.219 194.503C616.656 195.96 616.802 197.417 616.656 198.583C618.261 202.954 615.635 208.053 610.821 209.656C609.07 210.238 607.174 210.384 605.277 210.093C603.818 210.53 602.359 210.675 600.901 210.53C601.922 212.424 603.235 214.318 604.694 216.066L614.176 214.318C614.176 214.318 624.534 194.649 624.68 186.49C624.826 186.053 624.242 185.762 623.805 186.053Z" fill="#F7BB8B"/>
<path d="M590.397 275.364C590.251 271.867 590.397 268.225 590.689 264.728C590.834 262.98 590.98 261.232 591.126 259.483C591.272 257.735 591.564 255.987 591.71 254.238L593.023 254.675C591.272 257.298 589.522 259.92 587.625 262.397C588.792 259.483 590.251 256.715 591.856 253.947L593.46 251.033L593.315 254.384C593.169 256.132 593.023 257.881 592.877 259.629C592.731 261.377 592.585 263.126 592.293 264.874C591.856 268.516 591.272 272.013 590.397 275.364Z" fill="#121B46"/>
<path d="M595.357 181.245L611.696 211.987C612.426 213.298 613.885 213.881 615.343 213.589C618.407 212.715 623.221 210.821 624.388 207.033C626.139 201.351 611.405 172.649 611.405 172.649L595.357 181.245Z" fill="#DFDFDF"/>
<path d="M577.705 141.324L572.161 142.927C570.557 143.364 569.39 145.113 569.681 146.861C570.411 151.815 572.599 162.887 579.018 177.457C579.747 179.06 581.498 179.934 583.249 179.351L588.209 177.894L577.705 141.324Z" fill="#28AD92"/>
<path d="M604.986 126.609L578.872 134.477C575.079 135.642 575.225 147.444 579.164 160.848C583.249 174.252 589.522 184.159 593.461 183.139L619.574 175.271L604.986 126.609Z" fill="#35C4A6"/>
<path d="M619.136 148.755C623.221 162.159 623.367 173.96 619.428 175.126C615.635 176.291 609.216 166.384 605.131 152.834C601.047 139.43 600.901 127.629 604.84 126.464C608.779 125.444 615.197 135.351 619.136 148.755Z" fill="#3CDEBC"/>
<path d="M654.149 95.1389L605.715 132.437L605.861 135.788C606.444 148.463 610.529 160.993 617.386 171.483L677.636 171.775L654.149 95.1389Z" fill="#DFDFDF"/>
<path d="M686.097 127.483C692.516 148.901 689.745 168.569 679.97 171.483C672.384 173.814 662.756 165.218 655.899 151.377C653.857 147.298 652.106 142.781 650.647 137.973C649.334 133.603 648.459 129.377 647.876 125.298C645.687 109.271 649.043 96.3045 656.775 93.9734C666.549 91.0595 679.679 106.066 686.097 127.483Z" fill="#C4C4C4"/>
<path d="M666.111 133.457C670.05 146.715 670.488 159.39 668.008 167.841C661.297 162.304 654.732 151.377 650.648 138.119C646.709 124.861 646.271 112.185 648.751 103.735C655.608 109.271 662.172 120.198 666.111 133.457Z" fill="#919191"/>
<path d="M666.403 123.841L671.655 141.324L656.045 151.377C654.003 147.298 652.252 142.781 650.794 137.973C649.481 133.602 648.605 129.377 648.022 125.298L666.403 123.841Z" fill="#EBEBEB"/>
<path d="M672.968 131.417C674.427 136.225 673.843 140.742 671.655 141.324C669.467 142.053 666.549 138.556 665.09 133.748C663.631 128.94 664.215 124.424 666.403 123.841C668.592 123.258 671.509 126.609 672.968 131.417Z" fill="#35C4A6"/>
<path d="M610.675 129.523C611.259 133.165 612.134 136.953 612.863 140.596C613.739 144.238 614.614 147.881 615.781 151.377C616.948 154.874 618.261 158.371 619.72 161.722C621.325 165.073 623.221 168.278 625.409 171.338C622.638 168.715 620.303 165.655 618.553 162.304C616.656 158.953 615.343 155.457 614.176 151.814C613.009 148.172 612.134 144.53 611.55 140.741C611.113 137.099 610.675 133.311 610.675 129.523Z" fill="#121B46"/>
<path d="M589.667 177.894C593.169 176.145 596.67 174.98 600.317 173.814C603.964 172.794 607.611 171.774 611.404 171.337C607.903 173.086 604.402 174.251 600.755 175.417C597.108 176.582 593.46 177.457 589.667 177.894Z" fill="#121B46"/>
<path d="M670.78 131.563C670.926 132.437 671.217 133.311 671.217 134.185C671.217 134.622 671.217 135.059 671.217 135.496C671.217 135.788 671.217 135.934 671.071 136.225C670.926 136.516 670.78 136.808 670.342 136.953C669.904 137.099 669.613 136.953 669.321 136.808C669.029 136.662 668.883 136.516 668.591 136.371C668.3 136.079 668.008 135.642 667.716 135.205C667.278 134.331 666.841 133.457 666.695 132.583C666.403 131.708 666.403 130.689 666.403 129.814C666.403 129.377 666.549 128.794 666.695 128.357C666.841 128.066 666.841 127.92 666.987 127.629C667.133 127.338 667.424 127.192 667.862 127.046C668.3 127.046 668.591 127.192 668.737 127.338C668.883 127.483 669.029 127.775 669.175 127.92C669.467 128.357 669.613 128.794 669.758 129.086C670.342 129.814 670.488 130.689 670.78 131.563ZM670.78 131.563C670.634 130.689 670.196 129.96 669.758 129.086C669.467 128.649 669.321 128.357 669.029 128.066C668.737 127.775 668.3 127.629 668.154 127.775C668.008 127.775 668.008 128.212 667.862 128.503C667.862 128.94 667.862 129.232 667.862 129.669C668.008 130.397 668.154 131.271 668.3 132C668.445 132.728 668.737 133.602 669.029 134.331C669.175 134.768 669.321 135.059 669.467 135.351C669.613 135.642 669.904 135.934 670.05 135.934C670.196 135.934 670.488 135.642 670.634 135.205C670.78 134.768 670.926 134.331 670.926 133.894C671.071 133.311 670.926 132.437 670.78 131.563Z" fill="#121B46"/>
<path d="M658.379 95.5759C662.172 96.4501 665.82 98.1984 669.029 100.53C670.634 101.695 671.947 103.152 673.26 104.755C674.573 106.357 675.448 107.96 676.615 109.708C680.7 116.41 683.909 123.695 686.243 131.271C687.411 135.059 688.286 138.847 688.869 142.781C689.453 146.715 689.453 150.794 688.869 154.728C688.14 158.662 687.119 162.45 684.785 165.947C683.618 167.549 682.013 169.006 680.116 169.735C678.22 170.463 676.032 170.463 674.281 169.735C675.156 170.026 676.177 170.172 677.199 170.026C678.22 170.026 679.095 169.735 679.97 169.298C681.721 168.424 683.034 167.112 684.055 165.51C686.098 162.304 686.973 158.371 687.556 154.583C688.578 147.006 686.973 139.139 684.639 131.854C682.305 124.424 679.241 117.285 675.448 110.437C674.427 108.834 673.551 107.086 672.384 105.483C671.217 103.881 669.904 102.569 668.446 101.258C665.528 98.7812 662.027 96.8872 658.379 95.5759Z" fill="#121B46"/>
<path d="M602.214 213.735C602.214 213.735 596.524 201.351 597.108 198.437C597.691 195.669 604.11 188.675 607.174 189.841C610.237 191.007 605.569 199.748 605.569 199.748C605.569 199.748 613.155 208.927 612.28 213.589C611.404 218.252 602.214 213.735 602.214 213.735Z" fill="#F7BB8B"/>
<path d="M546.923 203.682C546.923 203.682 571.578 216.794 575.954 221.894C580.185 226.993 591.564 251.033 591.564 251.033L566.764 284.106C566.764 284.106 540.504 244.914 546.923 203.682Z" fill="#FDB32C"/>
<path d="M551.884 212.278C550.862 210.53 550.425 208.781 550.716 207.179C549.258 206.159 548.091 204.993 546.923 203.682C546.486 202.079 545.465 198.291 544.735 193.92C544.006 189.987 543.568 185.761 543.86 182.41C544.006 180.808 544.298 179.351 545.027 178.331L507.534 157.205C507.534 157.351 507.534 157.496 507.534 157.496C508.118 160.993 512.64 188.238 507.972 202.808C505.2 204.119 501.699 204.993 497.323 205.139C492.654 205.285 488.132 206.887 484.776 210.092C481.129 213.589 477.92 219.271 477.774 228.887C481.275 229.324 484.631 230.053 488.132 230.636C498.344 232.53 508.556 234.424 518.914 236.172C532.189 238.357 545.756 238.794 559.178 240.397C558.448 230.49 556.552 220.145 551.884 212.278Z" fill="#F7BB8B"/>
<path d="M544.589 193.92C524.165 196.543 513.808 172.212 513.516 171.192C517.309 177.165 522.707 180.225 528.104 181.682C534.669 183.43 541.088 182.848 543.714 182.41H543.86C543.422 185.761 544.006 190.132 544.589 193.92Z" fill="#EBA771"/>
<path d="M506.951 202.516C506.951 202.516 531.022 229.179 538.17 224.808C545.319 220.583 547.069 204.41 547.069 204.41C547.069 204.41 571.286 225.391 574.787 232.238C578.143 239.086 577.851 252.344 569.39 273.324C560.928 294.304 564.138 322.569 564.138 322.569H486.381C486.381 322.569 492.946 309.02 490.904 293.139C488.861 277.258 470.188 226.702 470.188 226.702C470.188 226.702 466.541 203.391 506.951 202.516Z" fill="#FDB32C"/>
<path d="M506.367 205.43C508.264 207.47 510.16 209.51 512.203 211.55C514.245 213.589 516.142 215.483 518.33 217.377C520.518 219.126 522.561 221.02 524.895 222.622C527.229 224.225 529.563 225.682 532.043 226.556C534.523 227.576 537.295 227.867 539.629 226.848C542.109 225.973 543.86 223.788 545.173 221.311C546.486 218.834 547.215 216.212 547.653 213.444C548.236 210.675 548.528 207.907 548.528 205.139C548.966 210.675 548.674 216.503 546.34 221.894C545.173 224.516 543.13 226.993 540.359 228.304C538.9 228.887 537.441 229.179 535.836 229.179C534.377 229.033 532.918 228.742 531.46 228.304C528.688 227.285 526.208 225.682 523.874 224.079C521.539 222.331 519.351 220.583 517.455 218.543C513.37 214.318 509.577 209.947 506.367 205.43Z" fill="#121B46"/>
<path d="M562.387 236.755C563.7 240.543 565.451 244.04 567.347 247.536C569.098 251.033 570.849 254.821 571.286 258.901C571.724 262.98 571.14 267.06 570.119 270.848C569.098 274.781 567.493 278.424 565.888 281.92C566.91 278.132 568.077 274.344 568.806 270.411C569.536 266.622 569.973 262.689 569.681 258.901C569.39 255.112 567.785 251.47 566.18 247.828C565.451 246.079 564.575 244.185 563.992 242.291C563.263 240.543 562.679 238.649 562.387 236.755Z" fill="#121B46"/>
<path d="M526.062 281.192C528.834 280.172 531.752 280.026 534.523 280.172C537.441 280.464 540.213 281.192 542.693 282.503C539.775 282.358 537.149 282.066 534.377 281.775C531.606 281.629 528.834 281.629 526.062 281.192Z" fill="#121B46"/>
<path d="M462.164 274.344C460.559 272.887 458.955 271.43 457.35 269.973C450.056 263.126 442.47 256.424 435.321 249.576C433.279 251.761 431.236 253.947 429.194 256.278C424.526 261.523 419.711 267.205 415.043 273.179C408.916 280.755 408.77 291.39 414.46 299.258C418.253 304.503 422.192 309.602 426.422 314.702C438.677 329.417 452.682 343.404 468.583 354.914L478.503 345.589C478.503 345.589 464.644 320.821 447.867 290.371C452.682 284.834 457.496 279.443 462.164 274.344Z" fill="#F7BB8B"/>
<path d="M467.854 352.145C467.854 352.145 473.105 373.708 478.503 379.973C478.795 380.41 479.378 380.265 479.524 379.682C479.816 378.662 479.67 376.185 477.774 371.086C477.774 371.086 484.484 380.702 486.673 380.993C488.715 381.285 481.858 367.881 481.858 367.881C481.858 367.881 490.612 377.934 492.508 377.496C494.405 377.059 486.089 364.675 486.089 364.675C486.089 364.675 495.718 374.437 496.447 373.563C498.052 371.377 484.922 357.245 486.673 355.934C488.132 354.914 492.508 356.808 494.55 358.265C494.988 358.556 495.572 358.41 495.718 357.973C496.155 357.099 496.447 355.496 494.405 353.894C491.195 351.417 484.339 346.172 473.981 344.569L467.854 352.145Z" fill="#F7BB8B"/>
<path d="M441.302 283.814C442.907 284.397 444.074 285.417 445.096 286.437C446.117 287.603 447.138 288.768 447.721 290.225C446.117 289.642 444.95 288.622 443.928 287.603C442.907 286.583 441.886 285.271 441.302 283.814Z" fill="#121B46"/>
<path d="M428.61 255.258L456.912 281.338L492.654 244.622C492.654 244.622 494.988 206.45 487.256 205.722C475.877 204.556 439.26 239.669 428.61 255.258Z" fill="#FDB32C"/>
<path d="M480.545 256.715L494.988 243.165L484.484 269.39L480.545 256.715Z" fill="#121B46"/>
<path d="M563.846 148.318C563.408 137.245 562.095 125.881 558.302 116.119C553.342 103.589 530.292 98.6355 514.099 112.622C506.659 119.179 505.054 130.834 505.492 141.616C505.054 141.47 504.762 141.324 504.471 141.179C501.261 140.304 497.906 142.781 496.885 145.841C496.155 148.318 496.593 151.086 498.052 153.271C499.219 155.02 501.115 156.768 503.158 157.496C503.595 157.642 505.929 158.079 507.534 157.934C509.139 165.073 512.64 171.483 518.33 176.145C525.332 181.973 534.377 184.304 543.422 182.41C550.424 180.953 560.782 176.437 563.262 169.298C563.992 167.404 563.992 165.364 563.992 163.324C563.992 162.887 563.992 162.45 563.992 161.867C563.992 157.642 563.992 152.98 563.846 148.318Z" fill="#F7BB8B"/>
<path d="M563.992 162.159C563.408 162.305 562.825 162.45 562.095 162.45C558.156 162.45 554.947 159.245 554.947 155.311C554.947 151.377 558.156 148.172 562.095 148.172C562.679 148.172 563.262 148.172 563.846 148.318C563.992 152.98 563.992 157.642 563.992 162.159Z" fill="#EBA771"/>
<path d="M519.351 155.165C519.351 159.099 522.56 162.305 526.499 162.305C530.438 162.305 533.648 159.099 533.648 155.165C533.648 151.232 530.438 148.026 526.499 148.026C522.56 148.026 519.351 151.232 519.351 155.165Z" fill="#EBA771"/>
<path d="M551.154 141.324C551.154 143.655 552.029 145.549 553.196 145.549C554.363 145.549 555.239 143.655 555.239 141.324C555.239 138.993 554.363 137.099 553.196 137.099C552.175 137.099 551.154 138.993 551.154 141.324Z" fill="#121B46"/>
<path d="M557.573 135.788C557.281 136.516 556.698 137.099 556.114 137.536C555.53 138.119 554.801 138.41 553.926 138.702C553.488 138.847 553.05 138.556 553.05 138.119C552.905 137.682 553.196 137.245 553.634 137.245H553.78C554.947 137.245 556.26 136.516 557.135 135.496C557.281 135.351 557.427 135.351 557.427 135.496C557.573 135.496 557.573 135.642 557.573 135.788Z" fill="#121B46"/>
<path d="M527.958 140.742C528.833 141.761 530.146 142.49 531.314 142.49C531.751 142.49 532.043 142.781 532.043 143.218C532.043 143.655 531.751 143.947 531.314 143.947H531.168C530.292 143.801 529.563 143.364 528.979 142.781C528.396 142.198 527.958 141.616 527.521 141.033C527.521 140.887 527.521 140.742 527.666 140.742C527.666 140.596 527.812 140.742 527.958 140.742Z" fill="#121B46"/>
<path d="M530.584 142.636C531.313 141.907 532.043 141.324 532.918 141.033C533.793 140.596 534.815 140.45 535.69 140.596C536.711 140.742 537.586 140.887 538.316 141.324C538.754 141.47 539.045 141.761 539.483 142.053L540.504 142.927C540.65 143.073 540.796 143.364 540.504 143.51C540.358 143.655 540.067 143.801 539.921 143.655L538.899 142.927C538.608 142.781 538.17 142.49 537.878 142.344C537.149 142.053 536.419 141.907 535.69 141.907C534.961 141.907 534.231 142.053 533.502 142.49C532.918 142.781 532.189 143.364 531.751 143.801C531.459 144.238 530.876 144.238 530.584 143.947C530.438 143.51 530.292 142.927 530.584 142.636Z" fill="#121B46"/>
<path d="M552.029 154.146C551.3 155.602 550.278 156.768 548.966 157.642C547.653 158.516 546.048 159.245 544.297 159.245C542.692 159.245 540.942 158.662 539.629 157.642C538.899 157.205 538.462 156.622 537.878 156.04C537.441 155.457 536.857 154.728 536.419 154.146C537.003 154.583 537.586 155.165 538.17 155.602C538.754 156.04 539.337 156.477 540.067 156.768C541.38 157.496 542.692 157.934 544.151 157.934C545.61 157.934 546.923 157.496 548.236 156.768C549.695 156.185 551.008 155.165 552.029 154.146Z" fill="#121B46"/>
<path d="M546.485 161.576C545.902 162.159 545.027 162.304 544.297 162.304C543.568 162.304 542.692 162.013 542.109 161.576C542.838 161.722 543.568 161.867 544.297 161.867C545.027 161.867 545.756 161.722 546.485 161.576Z" fill="#121B46"/>
<path d="M539.191 126.609C538.17 125.735 537.149 125.444 535.982 125.444C534.815 125.444 533.648 125.589 532.626 125.881C531.459 126.172 530.438 126.901 529.563 127.629C528.687 128.358 528.104 129.377 527.52 130.252C527.229 130.689 527.374 131.271 527.958 131.563C528.396 131.709 528.833 131.709 529.125 131.417L529.271 131.271C530 130.689 530.584 130.106 531.313 129.669C532.043 129.232 532.772 128.94 533.502 128.795C534.231 128.649 535.106 128.503 535.982 128.503C536.857 128.503 537.732 128.503 538.608 128.358H538.899C539.483 128.212 539.775 127.629 539.629 127.046C539.483 127.046 539.337 126.755 539.191 126.609Z" fill="#121B46"/>
<path d="M549.549 126.609C550.57 125.735 551.591 125.444 552.759 125.444C553.926 125.444 555.093 125.589 556.114 125.881C557.281 126.172 558.302 126.901 559.177 127.629C560.053 128.358 560.636 129.377 561.22 130.252C561.512 130.689 561.366 131.271 560.782 131.563C560.345 131.709 559.907 131.709 559.615 131.417L559.469 131.271C558.74 130.689 558.156 130.106 557.427 129.669C556.697 129.232 555.968 128.94 555.239 128.795C554.509 128.649 553.634 128.503 552.759 128.503C551.883 128.503 551.008 128.503 550.133 128.358H549.841C549.257 128.212 548.966 127.629 549.111 127.046C549.257 127.046 549.403 126.755 549.549 126.609Z" fill="#121B46"/>
<path d="M544.735 134.914C545.172 136.516 545.318 138.119 545.61 139.722C545.902 141.324 546.194 142.781 546.631 144.384C546.777 144.821 546.777 145.113 546.923 145.404C547.069 145.695 547.361 146.278 547.215 146.715C547.215 147.735 546.631 148.755 545.756 149.192C544.881 149.629 543.859 149.629 542.984 149.338C542.109 149.046 541.525 148.609 540.796 148.026C542.255 148.609 544.005 149.046 545.027 148.172C545.61 147.735 545.902 147.298 545.756 146.715C545.756 146.424 545.61 146.278 545.464 145.841C545.318 145.404 545.172 145.113 545.027 144.675C544.589 143.073 544.297 141.47 544.297 139.867C544.589 138.119 544.589 136.516 544.735 134.914Z" fill="#121B46"/>
<path d="M499.51 148.318C499.51 147.298 499.802 146.278 500.678 145.55C501.553 144.821 502.866 144.821 503.887 145.258C504.908 145.55 505.784 146.278 506.513 147.152C507.242 148.026 507.68 148.901 508.118 149.921C508.264 150.212 508.118 150.649 507.68 150.795C507.388 150.94 507.097 150.795 506.951 150.649C506.221 149.921 505.346 149.192 504.616 149.046C504.179 148.901 503.887 148.901 503.595 149.192C503.304 149.338 503.012 149.775 502.866 150.358C502.574 151.232 502.282 152.397 503.012 152.834C503.887 153.272 505.054 153.126 506.075 152.98C505.054 153.417 503.887 153.854 502.574 153.417C501.991 153.272 501.407 152.397 501.407 151.815C501.407 151.086 501.407 150.503 501.553 149.921C501.699 149.338 501.991 148.755 502.574 148.172C503.158 147.589 504.033 147.589 504.762 147.735C506.075 148.172 506.951 148.901 507.826 149.775L506.659 150.503C506.075 148.901 504.908 147.152 503.449 146.424C502.72 145.987 501.699 145.841 500.969 146.278C500.24 146.424 499.802 147.298 499.51 148.318Z" fill="#121B46"/>
<path d="M560.345 119.761C559.469 115.828 557.719 112.04 554.947 108.98C548.966 102.424 539.337 100.675 530.438 100.384C524.457 100.238 518.33 100.675 512.932 103.298C504.471 107.377 499.365 116.119 493.092 123.112C483.755 133.602 471.063 141.179 457.35 144.384C446.117 147.006 434.446 146.569 422.921 147.735C411.396 148.755 399.579 151.377 390.68 158.808C383.824 164.636 379.155 173.086 371.132 177.02C366.755 179.351 361.649 179.934 356.689 180.662L348.52 181.682C336.557 183.285 329.846 196.543 336.119 206.887C336.119 206.887 336.265 207.033 336.265 207.179C340.35 213.735 347.061 218.98 349.541 226.41C351.875 233.112 350.27 240.543 350.854 247.682C351.729 258.9 358.148 269.245 366.901 276.238C375.654 283.232 386.741 287.02 397.975 288.185C402.059 288.622 406.144 288.768 410.375 288.622C409.791 283.232 411.396 277.549 414.897 273.033C419.711 267.059 424.38 261.523 429.048 256.132C429.048 255.987 429.194 255.987 429.34 255.841L428.465 255.112C439.26 239.523 475.731 204.41 487.11 205.576C489.882 204.993 492.362 204.993 494.696 205.43C495.572 205.285 496.301 205.285 497.176 205.139C501.407 204.993 504.908 204.119 507.826 202.808C512.349 188.821 508.264 162.596 507.388 157.934C505.784 158.079 503.595 157.642 503.012 157.496C500.969 156.768 499.073 155.02 497.906 153.271C496.447 151.086 496.009 148.318 496.739 145.841C497.614 143.073 500.532 140.742 503.595 141.033C505.054 143.51 506.659 145.695 508.701 147.589C509.285 148.172 510.014 148.755 510.89 148.755C512.057 148.755 512.786 147.589 513.224 146.569C513.953 145.258 515.12 143.947 515.704 142.636C523.728 143.073 531.897 139.576 537.149 133.311C538.754 131.417 540.067 129.232 541.234 127.192C542.984 124.424 544.735 121.51 546.34 118.742C550.133 122.967 556.114 130.689 561.804 131.271C562.241 131.563 562.387 125.881 560.345 119.761Z" fill="#121B46"/>
<path d="M289.144 503.669C286.227 504.689 283.746 505.563 282.142 506.146C278.203 504.106 274.556 503.815 272.805 503.669C271.492 503.523 271.054 504.252 271.054 504.835C271.054 505.126 271.2 505.272 271.346 505.272C272.513 505.417 274.847 506.146 274.993 507.02C275.285 508.04 265.803 508.914 265.657 510.371C265.657 510.954 272.367 510.371 272.367 510.371C272.367 510.371 265.219 512.265 265.803 513.139C266.386 513.868 272.951 512.993 272.951 512.993C272.951 512.993 266.094 515.762 266.97 516.344C267.845 516.927 273.535 515.47 273.535 515.47C271.054 516.782 270.325 517.656 270.033 518.093C269.887 518.384 270.033 518.53 270.325 518.53C272.805 518.239 277.182 515.616 280.245 513.722V513.868C284.184 514.305 288.269 514.305 292.208 514.305C290.895 510.808 290.02 507.311 289.144 503.669Z" fill="#F28766"/>
<path d="M332.472 458.066L314.966 493.907L282.725 504.689L284.038 515.47C284.038 515.47 322.26 513.139 328.387 507.02C334.515 500.901 346.185 471.179 346.623 468.119C347.061 465.205 332.472 458.066 332.472 458.066Z" fill="#FDB32C"/>
<path d="M343.122 452.821C343.122 452.821 335.098 461.126 335.39 467.537C335.682 473.947 336.265 509.497 336.265 509.497L332.91 511.099L326.053 508.623C326.053 508.623 329.409 471.033 329.409 467.099C329.409 463.166 330.722 456.901 334.515 455.152C338.453 453.55 343.122 452.821 343.122 452.821Z" fill="#FDB32C"/>
<path d="M238.522 524.795C224.225 526.543 214.305 528 214.305 528L211.096 541.696L239.835 541.987C239.252 536.159 238.814 530.477 238.522 524.795Z" fill="#F08D6E"/>
<path d="M216.348 527.272C216.348 527.272 213.284 524.066 211.971 521.298C210.658 518.53 211.388 506 205.115 506.874V535.722L207.74 538.345H204.823V544.172C204.823 544.172 211.242 546.358 215.181 544.318C215.181 544.318 211.388 540.093 213.138 535.576C214.889 530.914 216.348 527.272 216.348 527.272Z" fill="#FDB32C"/>
<path d="M231.082 523.775V543.153H368.798C368.798 543.153 363.983 515.47 352.75 511.828C341.517 508.331 231.082 523.775 231.082 523.775Z" fill="#FF5C5B"/>
<path d="M242.023 520.57L221.891 531.788L220.287 541.404L224.955 546.795L229.331 545.338C229.331 545.338 229.331 545.338 229.623 545.192C231.082 544.61 239.398 541.113 251.068 536.305C247.859 531.06 244.795 525.815 242.023 520.57Z" fill="#FA9778"/>
<path d="M222.475 529.894C222.475 529.894 218.244 528.437 215.91 526.543C213.576 524.649 208.324 513.285 203.218 516.782L216.494 542.424L219.995 543.59L217.515 544.901L220.141 550C220.141 550 226.851 548.98 229.331 545.338C229.331 545.338 224.08 543.298 223.496 538.49C222.767 533.828 222.475 529.894 222.475 529.894Z" fill="#FDB32C"/>
<path d="M230.936 525.086L238.96 541.696L289.728 521.59C289.728 521.59 348.228 554.08 363.838 547.96C379.593 541.841 380.469 511.682 374.05 508.04C367.631 504.398 332.91 509.205 332.91 509.205L331.159 510.808C331.159 510.808 296.585 496.239 288.269 496.53C279.954 496.821 230.936 525.086 230.936 525.086Z" fill="#3E28A9"/>
<path d="M239.543 540.967C243.628 539.073 247.713 537.179 251.944 535.431C256.028 533.682 260.259 531.934 264.49 530.331C268.72 528.729 272.951 527.126 277.182 525.523C281.412 524.066 285.643 522.464 289.874 521.007L289.728 521.444C288.853 520.278 287.977 519.113 287.102 517.947C288.123 518.967 289.144 520.133 290.02 521.153L290.311 521.444L290.02 521.59C285.935 523.484 281.704 525.232 277.619 526.98C273.389 528.729 269.304 530.331 265.073 531.934C260.843 533.537 256.612 535.139 252.381 536.596C248.151 538.199 243.92 539.656 239.543 540.967Z" fill="#121B46"/>
<path d="M336.703 543.152C334.661 542.424 332.764 541.55 330.722 540.821L324.74 538.345C320.801 536.596 316.863 534.848 312.924 533.099C308.985 531.205 305.192 529.457 301.253 527.417L295.563 524.503C293.667 523.484 291.77 522.464 289.874 521.444C291.916 522.172 293.959 523.047 295.855 523.775L301.836 526.252C305.775 528 309.714 529.748 313.653 531.497C317.592 533.391 321.385 535.139 325.324 537.179L331.013 540.093C332.91 540.967 334.806 541.987 336.703 543.152Z" fill="#121B46"/>
<path d="M331.305 510.808C333.931 511.391 336.265 512.556 338.599 513.722C340.934 515.033 343.122 516.345 345.164 518.239C342.538 517.656 340.204 516.49 337.87 515.325C335.536 514.013 333.348 512.702 331.305 510.808Z" fill="#121B46"/>
<path d="M348.812 515.47C346.623 515.762 344.435 515.616 342.393 515.179C340.35 514.742 338.308 514.305 336.265 513.285C338.454 512.994 340.642 513.139 342.684 513.576C344.727 514.013 346.769 514.45 348.812 515.47Z" fill="#121B46"/>
<path d="M373.758 456.027C372.153 454.424 369.819 453.696 367.63 453.55C365.588 453.404 363.837 452.967 362.379 452.384C360.044 445.245 362.233 431.841 362.524 430.093V429.947L343.997 440.292C344.289 440.874 344.435 441.457 344.581 442.331C344.726 443.934 344.581 446.119 344.143 448.013C343.705 450.199 343.268 452.093 343.122 452.821C341.663 454.57 339.62 455.59 336.995 457.047C336.995 457.775 336.994 458.504 336.849 459.232C336.119 463.457 337.432 469.576 337.286 473.947C336.995 479.192 336.849 484.292 336.995 489.537C336.995 496.093 337.286 502.212 337.724 508.477H372.736C371.715 499.153 374.049 485.312 376.675 470.013C377.988 462.292 376.092 458.212 373.758 456.027Z" fill="#FA9778"/>
<path d="M344.289 448.013C354.355 449.325 359.461 437.232 359.607 436.795C357.71 439.709 355.084 441.166 352.458 441.894C349.249 442.768 346.039 442.477 344.726 442.331C344.872 443.934 344.581 446.119 344.289 448.013Z" fill="#FA7C55"/>
<path d="M343.122 453.113C343.122 453.113 339.183 461.272 342.1 463.02C344.872 464.914 362.67 452.239 362.67 452.239C362.67 452.239 372.299 453.404 374.925 460.106C377.551 466.954 373.758 508.914 373.758 508.914C373.758 508.914 341.225 510.954 332.91 508.914C332.91 508.914 333.056 488.08 332.034 481.669C331.013 475.113 331.597 464.186 333.639 459.669C334.806 457.484 343.122 453.113 343.122 453.113Z" fill="white"/>
<path d="M362.816 451.802C362.816 451.802 347.79 458.795 349.249 466.371C350.708 473.947 357.273 549.709 357.273 549.709C357.273 549.709 376.967 550.292 384.407 546.504C391.847 542.715 375.071 490.848 375.946 486.04C376.821 481.232 381.198 459.232 374.925 455.298C368.506 451.364 362.816 451.802 362.816 451.802Z" fill="#FDB32C"/>
<path d="M358.294 542.57C362.67 544.172 367.193 545.047 371.861 545.047C374.195 545.047 376.383 544.901 378.572 544.464C380.906 544.027 382.948 543.153 385.282 542.424C383.386 543.881 381.344 545.047 379.009 545.775C377.842 546.212 376.675 546.358 375.508 546.649C374.341 546.795 373.174 546.941 371.861 546.795C369.381 546.795 367.047 546.358 364.713 545.629C362.378 545.047 360.19 544.027 358.294 542.57Z" fill="#121B46"/>
<path d="M308.846 472.942L311.02 470.786L298.683 458.38L296.509 460.536L308.846 472.942Z" fill="#121B46"/>
<path d="M302.128 473.947C302.128 473.947 302.857 475.258 303.295 475.404C303.733 475.695 306.504 476.278 306.504 476.278C306.65 476.424 308.985 478.464 312.632 481.378C313.799 479.921 314.966 478.318 316.133 476.861C316.862 475.841 317.738 474.821 318.467 473.801C316.862 473.073 315.549 472.49 314.528 472.053L312.194 470.305C311.173 468.993 308.109 464.186 306.796 464.331C305.046 464.477 305.192 465.06 305.192 465.06C305.192 465.06 307.817 468.411 307.234 469.722C306.65 471.033 300.961 464.768 300.961 464.768L299.502 463.603C299.502 463.603 299.21 467.099 300.523 468.265C300.523 468.265 299.794 470.159 301.107 471.616C301.107 471.47 301.253 473.364 302.128 473.947Z" fill="#FA9778"/>
<path d="M361.357 457.338L349.832 486.04L313.069 470.305C313.069 470.305 306.65 478.318 307.38 478.609C307.963 478.755 340.496 510.371 354.063 508.04C367.63 505.709 376.821 465.788 376.821 465.788L361.357 457.338Z" fill="#FDB32C"/>
<path d="M353.625 508.186C353.625 508.186 357.71 507.749 360.482 504.106C363.108 500.464 372.736 480.941 372.736 480.941C372.736 480.941 367.485 514.742 353.625 508.186Z" fill="#121B46"/>
<path d="M355.668 488.662C354.501 488.517 353.48 488.225 352.458 487.934C351.437 487.497 350.416 487.06 349.541 486.623L347.498 485.603L349.687 485.166C351.145 484.874 352.604 484.729 354.209 484.874C352.896 485.748 351.583 486.331 350.124 486.768L350.27 485.311C351.291 485.748 352.167 486.186 353.188 486.768C353.917 487.205 354.793 487.788 355.668 488.662Z" fill="#121B46"/>
<path d="M317.592 487.643C320.509 489.1 323.135 490.848 325.615 492.742C328.096 494.636 330.576 496.676 332.618 499.153C329.7 497.696 327.074 495.947 324.594 494.053C322.114 492.159 319.78 490.119 317.592 487.643Z" fill="#121B46"/>
<path d="M324.157 474.821C325.616 474.821 326.929 475.258 328.242 475.695C329.409 476.278 330.576 477.007 331.597 478.172C330.138 478.172 328.825 477.735 327.512 477.298C326.199 476.715 325.032 475.987 324.157 474.821Z" fill="#121B46"/>
<path d="M355.959 464.331C355.959 463.02 356.397 461.855 356.981 460.689C357.564 459.523 358.148 458.358 359.023 457.484C359.898 456.609 361.065 455.735 362.233 455.153C363.546 454.715 364.858 454.57 366.171 455.007C364.858 455.298 363.837 455.735 362.816 456.318C361.941 456.901 361.065 457.629 360.19 458.504C359.315 459.378 358.731 460.252 358.002 461.272L355.959 464.331Z" fill="#121B46"/>
<path d="M367.776 424.411C367.339 422.954 365.734 421.642 364.129 422.079C363.983 422.079 363.837 422.225 363.692 422.225C363.983 416.98 363.108 411.152 359.461 407.947C351.583 401.099 340.204 403.43 337.724 409.695C334.952 416.834 334.806 425.576 334.952 433.007C334.952 434.027 334.952 435.046 335.39 435.921C336.703 439.417 341.663 441.748 345.164 442.331C349.541 443.205 354.063 442.04 357.418 439.272C360.19 436.94 361.941 433.735 362.67 430.238C363.4 430.238 364.567 430.093 364.859 430.093C365.88 429.656 366.755 428.927 367.339 428.053C367.922 426.887 368.068 425.576 367.776 424.411Z" fill="#FA9778"/>
<path d="M340.496 422.08C340.496 423.245 340.058 424.119 339.475 424.119C338.891 424.119 338.453 423.245 338.453 422.08C338.453 420.914 338.891 420.04 339.475 420.04C340.058 420.04 340.496 420.914 340.496 422.08Z" fill="#121B46"/>
<path d="M348.373 424.119C348.937 424.119 349.395 423.206 349.395 422.08C349.395 420.953 348.937 420.04 348.373 420.04C347.809 420.04 347.352 420.953 347.352 422.08C347.352 423.206 347.809 424.119 348.373 424.119Z" fill="#121B46"/>
<path d="M340.058 428.344C340.35 429.073 340.933 429.656 341.663 430.093C342.246 430.53 343.122 430.821 343.997 430.821C344.872 430.821 345.602 430.53 346.331 430.093C346.623 429.947 346.915 429.51 347.206 429.364C347.498 429.073 347.644 428.782 347.936 428.49C347.644 428.782 347.352 428.927 347.061 429.219C346.769 429.364 346.477 429.656 346.185 429.801C345.602 430.093 344.872 430.384 344.143 430.384C343.413 430.384 342.83 430.239 342.1 429.801C341.225 429.364 340.642 428.927 340.058 428.344Z" fill="#121B46"/>
<path d="M342.83 432.133C343.122 432.424 343.559 432.424 343.851 432.424C344.289 432.424 344.58 432.278 344.872 432.133C344.435 432.133 344.143 432.278 343.851 432.278C343.559 432.133 343.267 432.133 342.83 432.133Z" fill="#121B46"/>
<path d="M346.477 414.795C346.915 414.358 347.498 414.212 348.082 414.212C348.665 414.212 349.249 414.212 349.833 414.503C350.416 414.649 350.854 414.94 351.291 415.378C351.729 415.669 352.021 416.252 352.313 416.689C352.458 416.98 352.313 417.272 352.167 417.417C352.021 417.563 351.729 417.417 351.583 417.417C351.291 417.126 351 416.834 350.562 416.689C350.27 416.397 349.833 416.397 349.395 416.252C348.957 416.106 348.665 416.106 348.228 416.106C347.79 416.106 347.353 416.106 346.915 415.96H346.769C346.477 415.96 346.331 415.669 346.331 415.378C346.331 415.086 346.331 414.94 346.477 414.795Z" fill="#121B46"/>
<path d="M341.371 414.795C340.934 414.358 340.35 414.212 339.766 414.212C339.183 414.212 338.599 414.212 338.016 414.503C337.432 414.649 336.995 414.94 336.557 415.378C336.119 415.669 335.828 416.252 335.536 416.689C335.39 416.98 335.536 417.272 335.682 417.417C335.828 417.563 336.119 417.417 336.265 417.417C336.557 417.126 336.849 416.834 337.286 416.689C337.578 416.397 338.016 416.397 338.453 416.252C338.891 416.106 339.183 416.106 339.621 416.106C340.058 416.106 340.496 416.106 340.934 415.96H341.079C341.371 415.96 341.517 415.669 341.517 415.378C341.517 415.086 341.517 414.94 341.371 414.795Z" fill="#121B46"/>
<path d="M341.809 418.729C341.663 419.457 341.517 420.331 341.371 421.06C341.225 421.788 341.079 422.662 340.788 423.391C340.788 423.536 340.642 423.682 340.642 423.974C340.642 424.119 340.496 424.411 340.496 424.702C340.496 425.285 340.788 425.722 341.225 425.868C341.663 426.159 342.101 426.013 342.538 425.868C342.976 425.722 343.268 425.576 343.559 425.285C342.83 425.576 341.955 425.722 341.517 425.431C341.225 425.285 341.079 424.993 341.225 424.702C341.225 424.556 341.225 424.411 341.371 424.265C341.517 424.119 341.517 423.828 341.517 423.682C341.809 422.954 341.809 422.08 341.955 421.351C341.955 420.331 341.955 419.457 341.809 418.729Z" fill="#121B46"/>
<path d="M366.463 425.285C366.463 424.848 366.317 424.265 365.88 423.974C365.442 423.536 364.859 423.682 364.275 423.828C363.692 423.974 363.4 424.411 362.962 424.702C362.67 425.139 362.379 425.576 362.233 426.013C362.233 426.159 362.233 426.45 362.379 426.45C362.524 426.45 362.67 426.45 362.816 426.305C363.108 426.013 363.546 425.576 363.983 425.43C364.129 425.43 364.275 425.43 364.421 425.43C364.567 425.576 364.713 425.722 364.713 426.013C364.859 426.45 365.004 427.033 364.567 427.179C364.129 427.47 363.546 427.324 362.962 427.324C363.4 427.616 363.983 427.762 364.713 427.616C365.004 427.47 365.296 427.179 365.296 426.887C365.296 426.596 365.296 426.305 365.15 426.013C365.004 425.722 365.004 425.43 364.713 425.139C364.421 424.848 363.983 424.848 363.692 424.848C362.962 424.993 362.524 425.43 362.233 425.868L362.816 426.159C363.108 425.43 363.692 424.556 364.421 424.119C364.859 423.974 365.296 423.828 365.588 424.119C366.172 424.411 366.463 424.848 366.463 425.285Z" fill="#121B46"/>
<path d="M368.506 416.689C367.922 414.795 366.901 412.464 365.005 412.172C365.734 410.424 365.734 408.53 365.005 406.782C364.275 405.325 363.108 404.159 361.795 403.285C359.899 401.974 357.856 401.245 355.522 400.954C352.167 400.517 348.665 401.099 345.31 401.828C343.559 402.119 341.371 402.411 339.621 402.848C337.87 401.537 335.098 402.265 333.639 403.868C332.18 405.616 331.889 407.947 331.889 410.133C332.035 414.503 333.348 418.729 334.952 422.808C335.098 421.06 335.244 419.457 335.536 417.709C336.119 415.815 337.286 414.212 338.599 412.755C342.83 416.98 349.687 418.583 355.376 416.543C355.522 418 355.96 419.166 356.543 420.477C357.273 422.08 358.294 423.537 360.045 423.974C360.774 424.119 361.649 423.828 361.941 423.245C362.233 422.662 363.692 421.934 363.692 422.08C363.838 421.934 363.983 421.934 364.129 421.934C365.734 421.497 367.339 422.808 367.776 424.265C368.214 425.431 367.922 426.888 367.193 427.907C366.609 428.782 365.734 429.656 364.713 429.947C364.421 430.093 363.4 430.239 362.525 430.239C362.087 432.133 361.503 433.881 360.482 435.484C361.795 435.629 363.254 435.484 364.421 434.901C366.172 434.027 367.193 432.133 368.068 430.384C368.798 428.782 369.527 427.179 369.819 425.431C370.256 422.517 369.381 419.603 368.506 416.689Z" fill="#121B46"/>
<path d="M264.636 201.497C261.28 197.563 256.466 194.94 251.36 194.94C245.233 194.94 238.96 198 233.416 195.232C226.122 191.735 225.538 180.225 218.098 176.874C212.992 174.543 207.157 177.311 201.467 178.477C191.985 180.225 181.773 176.437 175.792 169.007C173.457 166.093 171.707 162.742 169.081 160.119C164.121 155.166 156.389 153.709 149.824 155.603C143.113 157.497 137.716 162.596 134.36 168.57C131.734 173.232 129.838 179.06 124.878 181.099C119.188 183.43 112.478 179.351 106.642 181.536C102.557 183.139 100.223 187.801 100.077 192.172C99.9314 195.377 100.661 198.437 101.536 201.351H264.636V201.497Z" fill="#D8BFFF"/>
<path d="M955.839 274.344C954.818 271.576 952.046 269.391 949.42 268.517C945.482 267.205 941.105 267.497 937.458 265.457C933.373 263.126 930.018 258.027 925.495 258.464C921.848 258.901 919.222 262.98 915.575 263.709C908.135 265.457 903.175 252.927 895.589 252.927C891.066 252.927 887.273 257.444 882.751 257.589C876.916 257.735 872.977 251.033 869.475 245.788C864.224 237.921 855.033 231.364 847.155 235.589C841.903 238.358 839.277 244.914 836.359 250.742C833.442 256.424 829.211 262.543 823.376 262.543C817.249 262.543 811.121 255.841 805.87 259.338C803.389 260.94 802.222 264.437 802.222 267.642C802.222 269.974 802.806 272.159 803.389 274.344H955.839Z" fill="#E0CCFF"/>
</g>
<defs>
<clipPath id="clip0_169_13565">
<rect width="998" height="550" fill="white"/>
</clipPath>
</defs>
</svg>
