<svg width="1178" height="482" viewBox="0 0 1178 482" fill="none" xmlns="http://www.w3.org/2000/svg">
<g clip-path="url(#clip0_169_13020)">
<path d="M188.727 481.502H25.4094L28.311 401.328L28.3939 398.922V398.425L162.696 392.286L181.97 391.415L182.551 398.881L184.996 431.813V431.855L185.908 443.8L186.281 448.985L188.727 481.502Z" fill="#E2B897"/>
<path d="M110.882 481.502H25.3267L26.8604 400.001L26.9018 398.383L28.3526 398.881L44.0211 404.273L82.9023 417.628C82.9023 417.628 82.9023 417.628 82.9852 417.628L108.726 426.463L110.882 481.502Z" fill="#E2B897"/>
<path d="M127.669 186.976L80.7053 192.493L79.5861 160.888L79.5032 158.689L79.3374 154.542L117.763 150.021L120.25 149.73L122.364 160.266L127.669 186.976Z" fill="#F8BD8C"/>
<path d="M73.4928 182.124C73.4928 182.124 18.7773 204.936 17.285 209.498C15.7513 214.061 9.69946 227.001 9.69946 227.001C9.69946 227.001 36.2696 291.581 29.4302 313.646C22.5908 335.712 27.1504 372.17 27.1504 383.576C27.1504 394.982 22.5908 399.544 30.9639 402.572C39.337 405.6 66.6533 404.107 81.8659 402.572C97.0785 401.037 128.208 403.028 135.048 404.314C141.887 405.6 182.924 398.756 182.924 398.756C182.924 398.756 188.23 369.889 186.737 355.413C185.204 340.979 187.276 306.761 187.027 301.452C186.737 296.143 189.639 293.862 187.069 280.921C184.499 267.98 197.39 197.304 197.39 197.304L134.343 174.326L73.4928 182.124Z" fill="#31185E"/>
<path d="M102.053 179.469L94.177 205.848L59.4824 188.345L67.8556 179.469H102.053Z" fill="#2A1656"/>
<path d="M94.55 206.761L58.446 188.511L67.6067 178.847H102.882L94.55 206.761ZM60.4771 188.179L93.7624 204.977L101.182 180.091H68.1042L60.4771 188.179Z" fill="#1D1647"/>
<path d="M95.2961 179.469L105.949 205.848L145.535 177.976L136.084 167.773L95.2961 179.469Z" fill="#2A1656"/>
<path d="M105.659 206.844L94.467 179.096L136.291 167.109L146.488 178.101L105.659 206.844ZM96.1251 179.884L106.198 204.895L144.581 177.852L135.877 168.437L96.1251 179.884Z" fill="#1D1647"/>
<path d="M36.7671 198.258C36.7671 198.258 60.1456 207.3 57.9901 299.005L143.131 279.47L153.576 322.647C153.576 322.647 60.1456 363.086 35.8966 362.423C11.6063 361.759 -4.06226 251.141 0.911877 239.03C5.88601 226.877 7.29535 209.623 35.8137 198.797L36.7671 198.258Z" fill="#31185E"/>
<path d="M147.607 281.668L169.577 273.455L164.105 306.595L146.986 307.466L143.214 283.99L147.607 281.668Z" fill="#F8BD8C"/>
<path d="M79.2131 295.397L61.3062 299.544L60.6015 295.189L59.3994 288.014L60.6429 288.47L79.2131 295.397Z" fill="#F8BD8C"/>
<path d="M177.452 203.028L163.4 303.07L74.1975 291.083L63.6689 335.09C63.6689 335.09 184.499 364.414 208.375 356.45C232.251 348.445 221.017 238.408 214.717 224.43C208.375 210.411 204.105 199.461 195.691 196.807C187.193 194.111 177.452 203.028 177.452 203.028Z" fill="#31185E"/>
<path d="M122.364 160.266C120.498 164.579 117.224 168.561 112.167 170.386C101.016 174.409 87.0473 166.031 79.5861 160.846L79.5032 158.689C80.1664 158.772 80.8711 158.897 81.7001 158.938C86.6328 159.353 93.9696 159.229 103.172 156.906C109.763 155.247 114.488 152.592 117.763 150.021L120.25 149.73L122.364 160.266Z" fill="#EAB186"/>
<path d="M127.794 108.917C129.825 134.84 117.597 156.989 98.5707 158.482C79.5446 159.975 62.4668 140.191 60.4357 114.309C58.4045 88.3865 72.1249 66.155 91.1509 64.6619C110.177 63.1687 125.721 82.9945 127.794 108.917Z" fill="#F8BD8C"/>
<path d="M101.804 165.741C83.607 168.437 65.783 149.606 61.9281 123.766C61.555 121.278 61.3477 118.83 61.2234 116.383C65.4929 141.518 83.0267 159.602 100.892 156.989C117.307 154.542 128.374 135.463 127.587 112.733C127.67 113.148 127.752 113.604 127.794 114.019C131.607 139.859 120.001 163.045 101.804 165.741Z" fill="#1A1A1A"/>
<path d="M74.7777 51.6383C74.7777 51.6383 74.5704 70.8835 79.3373 73.6624C84.1042 76.4414 89.6172 71.3812 93.9696 70.6346C98.3219 69.888 107.11 69.1415 113.286 74.4919C119.462 79.8839 124.768 95.5621 124.768 95.5621L126.136 100.83C126.136 100.83 129.742 101.742 130.115 96.8064C130.488 91.8707 129.493 71.1323 130.115 69.1415C130.737 67.1091 130.488 65.0767 128.208 62.7955C125.928 60.5143 123.027 56.9473 123.897 55.4542C124.768 53.9195 128.581 50.0207 124.892 46.5782C121.203 43.1771 103.503 41.0203 100.187 44.0481C96.9126 47.0759 84.6431 35.421 74.7777 51.6383Z" fill="#1A1A1A"/>
<path d="M71.4202 53.09C71.4202 53.09 54.1351 54.9979 53.762 70.1784C53.762 70.1784 51.6895 73.5795 47.5029 79.0958C43.3163 84.6122 48.249 93.903 49.4097 99.4194C50.5288 104.936 52.8916 109.498 52.7672 111.157C52.6428 112.816 55.7931 115.969 58.6533 114.724C61.5134 113.439 62.1352 110.079 62.1352 110.079C62.1352 110.079 62.3839 88.6355 65.5342 84.8196C68.6844 81.0038 74.0731 77.2709 77.1819 75.6948C80.2908 74.1187 80.9954 71.1323 80.9954 70.759C80.9954 70.3858 77.0576 49.606 77.0576 49.606L71.4202 53.09Z" fill="#1A1A1A"/>
<path d="M67.6068 118.25C69.9695 123.144 69.099 128.494 65.6586 130.154C62.2181 131.854 57.4513 129.241 55.0885 124.347C52.7258 119.453 53.5963 114.102 57.0368 112.443C60.4772 110.742 65.2026 113.314 67.6068 118.25Z" fill="#F8BD8C"/>
<path d="M134.716 111.531C134.095 116.923 130.488 120.987 126.675 120.531C122.861 120.075 120.25 115.347 120.872 109.955C121.493 104.563 125.1 100.498 128.913 100.954C132.727 101.369 135.338 106.139 134.716 111.531Z" fill="#F8BD8C"/>
<path d="M82.5707 101.742C80.208 101.908 77.7209 102.198 75.3582 102.696C72.9955 103.194 70.6742 103.899 68.8918 104.977L68.8089 105.019C67.897 105.599 66.6535 105.309 66.0732 104.397C65.4928 103.484 65.783 102.281 66.6535 101.701C69.182 100.042 71.7934 99.2535 74.4048 98.6314C77.0163 98.0092 79.5448 97.5945 82.2391 97.3456C83.4412 97.2212 84.5189 98.1337 84.6433 99.3365C84.7676 100.539 83.8557 101.618 82.6536 101.742H82.6122H82.5707Z" fill="#1A1A1A"/>
<path d="M80.5394 111.157C80.8296 113.065 79.7519 114.766 78.1767 115.015C76.6016 115.264 75.0679 113.895 74.7777 112.028C74.4876 110.121 75.5653 108.42 77.1404 108.171C78.757 107.922 80.2907 109.249 80.5394 111.157Z" fill="#1A1A1A"/>
<path d="M102.633 99.3364C104.954 98.9631 107.483 98.6728 109.887 98.6313C112.291 98.5898 114.737 98.7142 116.685 99.3779L116.768 99.4193C117.804 99.7511 118.923 99.212 119.255 98.175C119.587 97.1381 119.048 96.0597 118.053 95.6864C115.193 94.6495 112.498 94.4836 109.804 94.4421C107.11 94.4421 104.54 94.608 101.845 94.9813C100.643 95.1472 99.7729 96.2671 99.9387 97.4699C100.105 98.6728 101.224 99.5438 102.426 99.3779H102.467L102.633 99.3364Z" fill="#1A1A1A"/>
<path d="M106.737 108.046C106.903 109.954 108.312 111.365 109.928 111.24C111.545 111.116 112.706 109.457 112.54 107.549C112.374 105.641 110.965 104.231 109.348 104.355C107.732 104.479 106.571 106.139 106.737 108.046Z" fill="#1A1A1A"/>
<path d="M84.8918 153.92C85.8867 154.583 89.3686 153.754 90.4877 153.505C92.3945 153.09 94.5914 152.385 95.7935 150.726C97.1614 148.818 96.5396 145.956 96.3738 143.799C96.3324 143.177 96.4153 141.477 95.9178 140.979C95.9178 140.979 100.933 140.232 100.975 140.232C100.519 140.315 101.887 147.366 102.094 147.947C102.674 149.482 104.208 150.353 105.742 150.726C107.317 151.141 109.058 151.182 110.716 151.058C111.13 151.016 115.027 150.685 115.068 150.27C115.027 150.602 114.778 150.892 114.529 151.141C111.959 153.754 109.141 156.118 106.322 158.441C106.322 158.441 92.8919 159.561 92.5189 159.187C92.1043 158.814 84.8918 153.92 84.8918 153.92Z" fill="#1A1A1A"/>
<path d="M109.887 135.255C108.105 138.408 104.374 141.021 99.69 141.933C93.4309 143.136 87.5863 141.021 85.3479 137.08C85.3479 137.039 85.3894 136.956 85.4723 136.914C86.2598 136.251 87.0888 135.67 87.9593 135.172L106.364 132.974C107.773 133.264 109.017 133.804 109.887 135.255Z" fill="#FCFCFC"/>
<path d="M83.6898 156.408C83.2753 152.592 82.1976 140.315 83.8142 136.665V136.417L84.353 135.794C85.3479 134.923 86.2598 134.301 87.2132 133.804C90.1976 132.061 93.9282 131.066 97.9075 130.9C100.104 130.817 102.301 130.859 104.374 131.108L104.871 131.19C105.452 131.273 106.032 131.315 106.612 131.439C108.105 131.771 109.928 132.393 111.172 134.467C112.415 136.624 112.954 138.947 113.493 141.228C113.618 141.809 113.783 142.389 113.908 142.97C114.778 146.495 115.068 149.44 114.778 152.302L111.752 152.012C112.001 149.523 111.752 146.869 110.965 143.716C110.799 143.136 110.675 142.514 110.55 141.933C110.053 139.818 109.597 137.785 108.56 136.043C108.063 135.172 107.358 134.757 105.991 134.467C105.493 134.343 104.996 134.301 104.54 134.26L104.001 134.177C102.094 133.969 100.063 133.886 98.0319 133.969C94.5086 134.094 91.2754 134.965 88.7054 136.458C87.9593 136.873 87.2546 137.329 86.5914 137.91L86.5499 137.951C85.6795 139.32 85.9282 148.445 86.7157 156.118L83.6898 156.408Z" fill="#1A1A1A"/>
<path d="M92.3946 124.43C92.2288 124.43 92.1045 124.347 92.0216 124.222C91.8972 124.015 91.9801 123.766 92.1874 123.642L95.462 121.9C96.4983 121.36 97.0786 120.365 96.9542 119.328L95.2962 107.798C95.2547 107.59 95.4206 107.341 95.6278 107.341C95.8351 107.3 96.0838 107.466 96.0838 107.673L97.7418 119.204C97.9491 120.531 97.203 121.9 95.8351 122.605L92.5604 124.347C92.519 124.388 92.4361 124.43 92.3946 124.43Z" fill="#1A1A1A"/>
<path d="M111.048 466.363C110.592 466.363 110.219 465.99 110.219 465.534C109.887 451.805 109.058 429.49 108.146 427.085C105.12 425.301 90.2391 420.656 82.695 418.416C82.239 418.292 81.9903 417.835 82.1147 417.379C82.239 416.923 82.695 416.674 83.1509 416.799C84.0629 417.089 105.659 423.476 109.182 425.757C109.721 426.131 110.426 426.546 111.213 446.288C111.628 455.828 111.835 465.368 111.835 465.451C111.877 465.948 111.504 466.322 111.048 466.363Z" fill="#666B6D"/>
<path d="M60.2285 300.374C60.0627 300.374 59.8969 300.332 59.7311 300.208C59.5238 300.042 59.3995 299.835 59.3995 299.586C59.2751 297.097 55.959 257.736 55.9176 257.321C55.8761 256.865 56.2077 256.45 56.6637 256.409C57.1196 256.367 57.5342 256.699 57.5756 257.155C57.7 258.648 60.5186 291.83 60.9746 298.466C65.6171 297.222 85.5966 291.913 93.5552 290.336C94.0112 290.253 94.4257 290.544 94.55 291C94.6329 291.456 94.3428 291.871 93.8868 291.954C84.9334 293.738 60.6844 300.249 60.4357 300.332C60.3943 300.374 60.3114 300.374 60.2285 300.374Z" fill="#1D1647"/>
<path d="M38.508 361.593C35.8966 361.593 33.4924 361.303 31.5027 360.681C19.6063 356.782 11.4818 324.803 11.1502 323.435C11.0259 322.978 11.316 322.522 11.772 322.439C12.2279 322.315 12.6839 322.605 12.7668 323.061C12.8497 323.393 21.0156 355.496 32.0416 359.146C43.2334 362.796 70.2181 353.256 70.5083 353.132C70.9228 352.966 71.4202 353.215 71.586 353.63C71.7518 354.044 71.5031 354.542 71.0886 354.708C70.0937 354.998 51.5236 361.593 38.508 361.593Z" fill="#1D1647"/>
<path d="M103.504 342.804C103.213 342.804 102.923 342.638 102.757 342.348C102.55 341.933 102.716 341.436 103.131 341.228L128.374 328.578C128.789 328.37 129.286 328.536 129.493 328.951C129.701 329.366 129.535 329.864 129.12 330.071L103.877 342.721C103.752 342.804 103.628 342.804 103.504 342.804Z" fill="#1D1647"/>
<path d="M162.571 303.485C162.53 303.485 162.488 303.485 162.447 303.485C161.991 303.402 161.701 302.987 161.742 302.531L168.706 259.022C168.789 258.565 169.203 258.275 169.659 258.316C170.115 258.399 170.405 258.814 170.364 259.27L163.4 302.779C163.359 303.194 162.986 303.485 162.571 303.485Z" fill="#1D1647"/>
<path d="M174.841 357.197C174.799 357.197 174.758 357.197 174.716 357.197L132.934 350.726C132.478 350.644 132.188 350.229 132.229 349.773C132.312 349.316 132.726 349.026 133.182 349.067L174.965 355.538C175.421 355.621 175.711 356.035 175.67 356.492C175.587 356.907 175.255 357.197 174.841 357.197Z" fill="#1D1647"/>
<path d="M384.003 101.991L376.459 129.49L392.708 148.528L415.921 136.915L414.967 107.881L384.003 101.991Z" fill="#F8BD8C"/>
<path d="M466.947 344.961V481.502H397.724V348.404L462.387 345.169L466.947 344.961Z" fill="#31185E"/>
<path d="M420.232 351.307L417.869 357.86L415.548 364.331L407.713 386.065L397.765 413.647L381.765 481.502H319.132C319.174 481.71 319.174 481.793 319.174 481.793L310.593 482L310.635 481.502L314.075 453.713L314.573 449.648L315.94 438.74L317.225 428.537L318.179 420.822L322.656 384.696L323.858 374.866L326.801 351.307H420.232Z" fill="#31185E"/>
<path d="M378.242 124.43C378.242 124.43 344.21 145.21 329.205 152.51C314.2 159.81 304.417 170.469 300.935 176.649C297.495 182.829 289.412 188.428 289.992 192.369C290.572 196.309 276.728 213.148 273.826 227.209C270.925 241.27 265.743 287.889 265.743 289.548C265.743 291.249 274.987 329.988 274.987 329.988C274.987 329.988 302.096 356.948 307.858 363.128C313.619 369.308 330.946 379.428 333.226 379.428C335.547 379.428 349.93 369.889 349.392 360.349C348.811 350.809 344.791 323.269 340.728 318.789C337.578 315.264 333.723 312.112 330.78 307.383C329.951 306.056 329.246 304.646 328.583 303.028C325.682 295.728 333.765 278.308 333.765 278.308C333.765 278.308 359.713 216.508 358.552 208.088C357.392 199.669 366.055 169.888 363.734 162.008C361.537 154.21 378.242 124.43 378.242 124.43Z" fill="#C5A2FD"/>
<path d="M469.931 200.249C469.931 200.249 475.693 279.47 475.113 292.95C474.533 306.429 471.714 314.31 475.154 329.449C478.553 344.629 476.937 349.109 475.154 354.708C473.372 360.308 451.486 359.768 451.486 359.768L348.811 353.796L310.22 298.01L360.376 141.85L378.242 124.43C378.242 124.43 398.718 141.85 415.713 131.439C415.713 131.439 463.009 158.109 469.641 163.169C476.273 168.271 469.931 200.249 469.931 200.249Z" fill="#C5A2FD"/>
<path d="M470.304 165.284C470.304 165.284 486.843 181.751 486.47 192.618C486.097 203.484 490.698 243.924 489.911 255.538C489.123 267.151 491.072 267.524 492.605 276.151C494.139 284.779 500.481 301.991 501.061 321.071C501.642 340.15 510.015 353.92 504.253 363.501C498.491 373.041 494.18 375.861 494.18 375.861C494.18 375.861 492.73 361.303 490.16 359.851C487.548 358.441 475.196 354.791 475.196 354.791L461.517 203.484L470.304 165.284Z" fill="#C5A2FD"/>
<path d="M380.273 105.807C378.615 101.95 391.34 127.25 404.314 125.799C415.465 124.596 415.921 103.982 415.921 103.982C415.921 103.982 411.983 110.494 400.211 110.494C387.112 110.535 380.273 105.807 380.273 105.807Z" fill="#EAB186"/>
<path d="M438.968 73.0403C438.677 78.5982 434.988 82.9118 430.76 82.7044C426.532 82.4555 423.34 77.7687 423.631 72.2108C423.921 66.6529 427.61 62.3393 431.838 62.5467C436.066 62.7956 439.258 67.4824 438.968 73.0403Z" fill="#F2B588"/>
<path d="M377.495 69.6394C377.205 75.1973 373.516 79.5109 369.288 79.3035C365.06 79.0546 361.868 74.3678 362.158 68.8099C362.449 63.252 366.138 58.9385 370.366 59.1458C374.594 59.3947 377.827 64.0816 377.495 69.6394Z" fill="#F2B588"/>
<path d="M435.486 72.7915C431.465 96.4332 417.744 116.798 398.843 115.761C379.941 114.724 370.034 97.1383 367.05 69.1001C364.438 44.5044 384.791 25.0933 403.693 26.1303C422.594 27.1257 439.672 48.3617 435.486 72.7915Z" fill="#F8BD8C"/>
<path d="M392.128 35.4211C392.169 36.9972 391.92 39.4858 392.086 40.2739C392.501 42.3477 393.62 44.3801 395.361 45.3755C396.604 46.0392 398.014 46.1636 399.382 46.1636C404.397 46.288 409.661 44.1312 414.47 44.3386C416.667 44.4216 418.366 46.0392 420.231 47.3249C423.713 49.6476 430.138 49.1084 430.138 49.1084C433.413 53.7123 433.745 60.556 437.102 64.7866C437.89 64.2889 438.636 63.6252 439.382 63.0031C443.9 59.2287 444.149 58.5236 442.698 52.5925C441.537 47.8226 444.729 45.7903 446.346 41.9744C448.584 36.7484 452.439 31.8956 448.501 27.8309C443.361 22.5219 439.672 18.2913 436.397 11.3232C434.574 7.46587 432.128 3.23526 428.149 2.48868C421.724 1.28585 416.791 8.37836 410.325 4.06479C407.962 2.48868 405.682 0.456322 402.946 0.124509C400.086 -0.248781 397.268 1.28585 394.946 3.11083C392.045 5.39204 389.392 8.1295 385.993 9.58118C380.397 12.0283 373.931 12.9823 369.329 17.5447C366.262 20.5725 364.563 24.7202 362.987 28.7849C361.661 32.2274 359.34 36.2092 359.008 39.9006C358.635 44.0897 361.039 53.0072 364.355 55.6617C365.93 56.9475 367.133 59.9753 367.133 59.9753C367.133 59.9753 372.231 50.6016 373.06 48.4863C373.889 46.371 378.076 40.8131 380.977 38.8222C383.837 36.7899 384.832 36.0433 387.112 35.0064C388.604 34.2598 392.045 32.6007 392.128 35.4211Z" fill="#31185E"/>
<path d="M385.869 68.0631C385.786 69.7222 384.376 70.9665 382.718 70.8835C381.06 70.8006 379.817 69.3904 379.9 67.7313C379.983 66.0722 381.392 64.8279 383.05 64.9109C384.667 65.0353 385.952 66.4455 385.869 68.0631Z" fill="#1B191B"/>
<path d="M421.392 70.0126C421.309 71.6717 419.9 72.916 418.242 72.833C416.584 72.75 415.34 71.3398 415.423 69.6808C415.506 68.0217 416.916 66.7774 418.574 66.8604C420.19 66.9433 421.475 68.3535 421.392 70.0126Z" fill="#1B191B"/>
<path d="M375.713 59.5191C374.926 59.5191 374.221 59.0628 373.889 58.2748C373.475 57.2793 373.931 56.0765 374.967 55.6617C384.584 51.6385 391.838 55.4958 392.128 55.6617C393.081 56.2009 393.454 57.4037 392.915 58.3577C392.376 59.3117 391.174 59.685 390.221 59.1872C389.931 59.0213 384.252 56.118 376.459 59.3532C376.252 59.4776 376.003 59.5191 375.713 59.5191Z" fill="#31185E"/>
<path d="M411.858 60.7634C411.071 60.722 410.366 60.1828 410.117 59.4362C409.744 58.3993 410.325 57.2379 411.361 56.9061C421.185 53.505 428.19 57.8186 428.48 57.9845C429.434 58.5652 429.682 59.8095 429.102 60.722C428.522 61.6345 427.278 61.9248 426.366 61.3441C426.118 61.1782 420.563 57.9016 412.646 60.639C412.397 60.7634 412.107 60.8049 411.858 60.7634Z" fill="#31185E"/>
<path d="M436.646 64.1229C436.563 63.6667 436.356 63.2934 436.066 63.0031C435.983 62.9201 435.9 62.8786 435.817 62.7957C435.651 62.6712 435.486 62.5883 435.32 62.5053C434.615 62.2565 433.662 61.9247 432.377 61.6343C431.631 61.4684 430.429 61.2196 428.936 61.0122C427.486 60.7633 425.828 60.5559 424.004 60.3486C421.392 60.0582 418.574 59.8508 415.921 59.8508C414.47 59.8508 413.102 59.9338 411.817 60.0582C411.403 60.0997 411.03 60.1826 410.656 60.2241C405.89 60.9707 405.682 62.132 405.724 62.7957C405.724 62.9201 405.641 62.9616 405.516 62.9201C404.522 62.298 403.361 62.0491 402.2 61.9661C401.04 61.9247 399.838 62.0491 398.801 62.5468C398.719 62.5883 398.594 62.5053 398.636 62.4224C398.76 61.7173 398.636 60.39 392.832 59.0628C392.708 59.0213 392.625 59.0213 392.501 58.9798C391.009 58.648 389.351 58.4406 387.651 58.2747C385.62 58.1088 383.506 58.0259 381.516 58.0259C378.573 57.9844 375.837 58.1088 373.931 58.2747C373.185 58.3162 372.604 58.3992 372.148 58.4406C370.78 58.6065 369.703 58.8139 368.957 59.0213C368.542 59.1043 368.21 59.3531 367.962 59.6435C367.672 59.9753 367.464 60.39 367.464 60.8878C367.464 60.9292 367.464 60.9707 367.464 61.0122C367.464 61.8002 367.92 62.5468 368.625 62.8786C368.915 63.0031 369.247 63.2104 369.537 63.5837C370.283 64.5792 370.449 65.4087 371.319 65.8235C371.361 65.8235 371.402 65.9064 371.402 65.9479C371.278 67.8973 371.278 71.174 372.065 73.6626C372.563 75.2387 373.268 76.483 374.262 77.4784C375.216 78.4324 376.459 79.1375 378.034 79.6352C379.568 80.1329 381.309 80.4232 383.05 80.5477C384.874 80.6306 386.739 80.5062 388.273 80.1329C391.63 79.3034 394.2 76.9392 395.444 73.4137C396.605 70.22 397.06 67.0678 396.978 65.2013C397.226 65.2843 397.475 65.2428 397.724 65.0354H397.765C397.807 64.9939 397.889 64.9525 397.931 64.911C398.345 64.5377 399.63 63.5837 402.159 63.7496C404.687 63.8741 405.848 64.9525 406.221 65.3672C406.263 65.4087 406.221 65.4917 406.263 65.5331H406.18C406.346 65.699 406.636 65.8235 406.843 65.8235C406.926 65.8235 406.967 65.8649 406.967 65.9479C406.719 67.8143 406.926 70.9251 407.713 74.1188C408.584 77.7687 410.905 80.4232 414.138 81.5846C415.631 82.1238 417.454 82.4556 419.278 82.5386C421.019 82.6215 422.802 82.5386 424.377 82.2067C425.372 81.9994 426.242 81.709 426.988 81.2943C428.812 80.3818 430.056 78.9716 430.967 76.8563C432.004 74.4506 432.335 71.174 432.418 69.2246C432.418 69.1831 432.46 69.1416 432.501 69.1001C433.413 68.7683 433.62 67.9803 434.449 67.0678C434.74 66.736 435.03 66.5701 435.32 66.4871C435.651 66.3627 435.942 66.1553 436.149 65.9064C436.356 65.699 436.48 65.4502 436.563 65.1598C436.605 64.9939 436.646 64.828 436.688 64.6207C436.688 64.5792 436.688 64.5377 436.688 64.4962C436.646 64.3303 436.646 64.2474 436.646 64.1229ZM394.698 73.0819C393.496 76.4 391.133 78.6397 388.024 79.3863C385.123 80.0914 381.185 79.8841 378.2 78.9301C376.749 78.4324 375.589 77.8102 374.677 76.8977C373.765 75.9852 373.143 74.8654 372.687 73.3722C371.858 70.6762 371.983 66.9433 372.148 65.2428C372.397 64.1644 373.06 62.132 374.47 61.0537C374.677 60.8878 374.884 60.7633 375.133 60.6804C377.661 59.5605 382.967 59.0213 388.148 60.1827C393.371 61.3025 395.32 62.7127 396.066 64.2474C396.107 64.2888 396.107 64.3718 396.149 64.4133C396.48 65.7405 396.024 69.3905 394.698 73.0819ZM431.714 68.4365C431.714 70.137 431.423 73.8699 430.304 76.483C429.434 78.5153 428.232 79.8426 426.449 80.6721C425.786 80.9624 425.04 81.2113 424.211 81.3772C421.144 82.0408 417.206 81.792 414.387 80.7965C411.361 79.7181 409.247 77.2295 408.418 73.8285C407.506 70.0541 407.465 66.3627 407.921 64.9939C407.962 64.9525 408.004 64.911 408.004 64.828C408.915 63.3764 411.03 62.215 416.335 61.6758C421.268 61.1366 426.118 62.0491 428.688 63.2934C428.895 63.3764 429.061 63.5008 429.227 63.5837C431.009 64.5792 431.548 67.1507 431.714 68.4365Z" fill="#1B191B"/>
<path d="M399.133 99.2951C395.444 99.2951 392.874 97.5945 392.832 97.5531C392.708 97.4701 392.667 97.2627 392.749 97.1383C392.832 97.0139 393.04 96.9724 393.164 97.0554C393.413 97.2213 399.423 101.244 406.47 96.1429C406.594 96.0599 406.801 96.0599 406.884 96.2258C406.967 96.3502 406.967 96.5576 406.801 96.6406C404.066 98.6729 401.371 99.2951 399.133 99.2951Z" fill="black"/>
<path d="M399.879 87.8477C399.838 87.8477 399.755 87.8476 399.713 87.8062C399.672 87.7647 398.221 86.8522 398.097 85.6909C397.972 84.654 398.428 79.4279 398.428 79.2205C398.428 79.0546 398.594 78.9302 398.76 78.9302C398.926 78.9302 399.05 79.0961 399.05 79.262C398.884 81.1284 398.636 84.8199 398.718 85.6079C398.801 86.313 399.713 87.0596 400.045 87.267C400.169 87.3499 400.252 87.5573 400.128 87.6817C400.086 87.7647 400.003 87.8477 399.879 87.8477Z" fill="black"/>
<path d="M325.391 242.68C325.267 242.68 325.143 242.639 325.018 242.597C324.604 242.39 324.438 241.892 324.604 241.477C325.516 239.569 333.06 216.923 333.184 215.181C333.226 214.725 333.599 214.393 334.055 214.434C334.511 214.476 334.842 214.849 334.801 215.305C334.635 217.379 326.884 240.482 326.055 242.182C326.013 242.514 325.723 242.68 325.391 242.68Z" fill="#9E4AFF"/>
<path d="M404.397 135.836C401.164 135.836 397.268 135.256 392.708 133.555C392.086 133.348 383.672 129.034 381.972 128.163C381.558 127.956 381.392 127.458 381.599 127.043C381.806 126.628 382.304 126.462 382.718 126.67C386.532 128.619 392.749 131.771 393.247 131.979C408.003 137.371 415.05 130.9 415.133 130.859C415.465 130.527 416.003 130.569 416.294 130.9C416.625 131.232 416.584 131.771 416.252 132.062C416.086 132.269 412.273 135.836 404.397 135.836Z" fill="#9E4AFF"/>
<path d="M397.724 414.435C397.641 414.435 397.516 414.435 397.433 414.393C397.019 414.227 396.77 413.771 396.936 413.315L406.884 385.733C407.05 385.318 407.506 385.069 407.962 385.235C408.377 385.401 408.625 385.857 408.459 386.313L398.511 413.895C398.387 414.227 398.055 414.435 397.724 414.435Z" fill="#9E4AFF"/>
<path d="M687.633 155.081L638.016 155.952L641.498 115.388H683.239L687.633 155.081Z" fill="#F8BD8C"/>
<path d="M697.664 85.1929C697.664 111.696 681.705 133.181 662.058 133.181C642.368 133.181 626.451 111.696 626.451 85.1929C626.451 74.2016 623.798 57.3206 628.441 49.2327C634.949 37.8266 650.576 37.2044 662.099 37.2044C673.54 37.2044 687.094 34.5499 693.602 45.8316C698.245 53.961 697.664 74.1186 697.664 85.1929Z" fill="#1A1A1A"/>
<path d="M703.094 65.0354C703.094 65.0354 706.908 27.8308 701.063 21.6923C695.219 15.5537 698.493 13.7702 692.151 12.0282C685.851 10.2862 685.768 7.05102 675.363 7.05102C673.581 7.05102 672.711 5.88967 662.762 5.88967C659.529 5.88967 654.306 3.23517 646.845 7.34135C639.384 11.4475 634.658 5.72377 629.27 12.6504C623.881 19.577 621.85 15.8441 617.166 26.6695C612.482 37.4949 618.617 42.7624 619.777 54.5003C620.938 66.1967 627.073 75.5704 627.073 75.5704L701.395 73.1648L703.094 65.0354Z" fill="#1A1A1A"/>
<path d="M697.664 77.3953C697.664 103.899 681.705 125.384 662.058 125.384C642.368 125.384 626.451 103.899 626.451 77.3953C626.451 66.404 623.798 49.523 628.441 41.4351C634.949 30.029 650.576 29.4068 662.099 29.4068C673.54 29.4068 687.094 26.7523 693.602 38.034C698.245 46.1634 697.664 66.321 697.664 77.3953Z" fill="#F8BD8C"/>
<path d="M633.663 80.0913C634.119 85.7322 631.549 90.5435 627.943 90.8338C624.337 91.1241 621.021 86.8106 620.565 81.1697C620.109 75.5289 622.679 70.7176 626.285 70.4273C629.933 70.137 633.207 74.492 633.663 80.0913Z" fill="#F8BD8C"/>
<path d="M689.83 79.6767C689.001 85.276 691.281 90.2118 694.845 90.751C698.452 91.2901 702.016 87.184 702.845 81.5846C703.675 75.9853 701.395 71.0495 697.83 70.5104C694.224 70.0126 690.617 74.1188 689.83 79.6767Z" fill="#F8BD8C"/>
<path d="M651.487 53.3805C650.617 53.339 649.871 53.3805 649.083 53.4219C648.296 53.4634 647.508 53.5049 646.721 53.5878C645.145 53.7538 643.612 53.9611 642.037 54.2515C640.461 54.5833 638.928 54.9566 637.394 55.4958C635.86 56.035 634.368 56.7401 632.959 57.6111C632.296 58.0258 631.964 58.8554 632.171 59.6849C632.461 60.6803 633.456 61.2195 634.451 60.9707L634.534 60.9292C635.86 60.5559 637.187 60.2656 638.596 60.0167C639.964 59.7679 641.373 59.602 642.824 59.4361C644.234 59.3116 645.684 59.1872 647.135 59.1457C647.84 59.1042 648.586 59.1042 649.291 59.0628C649.995 59.0213 650.741 59.0213 651.405 59.0213H651.487C652.98 58.9798 654.182 57.8185 654.223 56.3253C654.223 54.7077 653.021 53.4219 651.487 53.3805Z" fill="#1A1A1A"/>
<path d="M688.669 57.611C687.26 56.6985 685.767 56.0349 684.234 55.4957C682.7 54.9565 681.166 54.5832 679.591 54.2514C678.016 53.961 676.482 53.7122 674.907 53.5878C674.12 53.5048 673.332 53.4633 672.545 53.4219C671.757 53.3804 671.011 53.3804 670.14 53.3804C668.648 53.4218 667.446 54.6247 667.446 56.1178C667.405 57.6525 668.648 58.9382 670.182 58.9797H670.265C670.928 58.9797 671.674 58.9797 672.379 59.0212C673.083 59.0627 673.83 59.0627 674.534 59.1041C675.985 59.1871 677.394 59.2701 678.845 59.3945C680.254 59.5604 681.664 59.7263 683.073 59.9752C684.441 60.224 685.809 60.5144 687.135 60.8876L687.218 60.9291C687.964 61.1365 688.835 60.8462 689.291 60.1411C689.788 59.3115 689.54 58.1502 688.669 57.611Z" fill="#1A1A1A"/>
<path d="M646.721 72.3353C646.721 74.1188 645.56 75.5704 644.109 75.5704C642.658 75.5704 641.498 74.1188 641.498 72.3353C641.498 70.5518 642.658 69.1001 644.109 69.1001C645.56 69.1001 646.721 70.5518 646.721 72.3353Z" fill="#1A1A1A"/>
<path d="M680.586 72.3353C680.586 74.1188 679.425 75.5704 677.975 75.5704C676.524 75.5704 675.363 74.1188 675.363 72.3353C675.363 70.5518 676.524 69.1001 677.975 69.1001C679.425 69.1001 680.586 70.5518 680.586 72.3353Z" fill="#1A1A1A"/>
<path d="M662.099 91.9536C661.726 91.9536 658.368 91.7463 657.581 90.6679C657.415 90.4605 657.374 90.1701 657.456 89.9213C657.912 88.4281 659.612 78.4323 659.653 78.3493C659.653 78.2249 659.778 78.1419 659.902 78.1834C660.026 78.1834 660.109 78.3078 660.068 78.4323C659.985 78.847 658.327 88.5526 657.871 90.0872C657.83 90.2116 657.83 90.3775 657.954 90.502C658.493 91.29 661.146 91.5389 662.14 91.5804C662.265 91.5804 662.348 91.6633 662.348 91.7877C662.306 91.8707 662.223 91.9536 662.099 91.9536Z" fill="#2C2A30"/>
<path d="M622.057 33.5131C622.057 33.5131 630.016 45.0022 637.477 42.9698C644.897 40.9374 649.125 32.4347 652.648 36.2921C656.171 40.1494 662.265 39.5272 667.032 36.4994C671.799 33.5131 670.223 37.3705 676.482 38.3244C682.742 39.3199 685.768 37.3705 690.369 43.1772C694.97 48.9839 699.654 46.205 698.079 38.3244C696.503 30.4439 685.892 13.4799 676.482 18.3327C667.115 23.2269 622.057 33.5131 622.057 33.5131Z" fill="#1A1A1A"/>
<path d="M697.581 60.9291C697.415 60.8876 697.291 60.8461 697.125 60.8046C694.721 60.2654 692.11 59.8922 689.457 59.7262C686.762 59.5603 683.985 59.5603 681.332 59.6848C676.192 59.9336 671.55 60.7217 668.814 61.5927C666.576 62.3393 663.964 63.3762 661.726 63.3762C659.488 63.3762 656.876 62.3393 654.638 61.5927C651.653 60.5973 646.43 59.8092 640.752 59.6018C637.974 59.5189 635.073 59.5603 632.296 59.8092C630.016 60.0166 627.86 60.3484 625.829 60.8461C625.207 61.012 624.586 61.1779 624.005 61.3438L624.296 66.6528C624.296 66.6528 625.083 66.4869 625.788 66.9847C625.912 67.0676 626.036 67.192 626.119 67.3165C626.327 67.5239 626.451 67.8142 626.575 68.229C626.7 68.6852 626.865 69.4318 627.114 70.3857C627.446 71.7959 627.86 73.6624 628.399 75.4459C629.062 77.6442 629.891 79.8424 630.928 81.1282C631.674 82.0407 632.586 82.7873 633.663 83.3265C636.98 85.027 641.539 85.0685 644.897 84.944C650.824 84.6952 654.721 82.0407 656.379 77.5612C656.752 76.4828 657.125 75.4874 657.456 74.5334C658.493 71.4227 659.239 68.9755 660.026 68.0631C660.607 67.3994 661.228 67.3579 661.767 67.3579C662.265 67.3579 662.928 67.3994 663.508 68.0631C664.296 68.9755 665.001 71.2982 665.995 74.2845C666.327 75.3215 666.741 76.4413 667.156 77.6027C668.814 82.0822 672.71 84.7367 678.638 84.9855C681.954 85.1099 686.472 85.0685 689.788 83.4094C690.866 82.8702 691.819 82.1651 692.566 81.2111C693.933 79.4691 694.97 76.2339 695.674 73.3721C695.923 72.3766 696.172 71.4227 696.338 70.5931C696.545 69.5977 696.752 68.7682 696.876 68.3119C697.042 67.8142 697.25 67.4409 697.54 67.2335C697.581 67.192 697.664 67.1506 697.705 67.1091C698.41 66.6114 699.198 66.8188 699.198 66.8188L699.488 61.5097C698.866 61.2609 698.244 61.095 697.581 60.9291ZM653.643 77.6442C652.068 80.6719 649.373 82.1651 645.353 82.7043C641.332 83.202 636.524 82.414 634.119 80.9623C633.995 80.8793 633.871 80.7964 633.746 80.6719C632.42 79.5936 631.549 77.3953 631.011 75.4044C630.803 74.6164 630.596 73.8283 630.472 73.2062C630.389 72.8329 630.306 72.4181 630.223 71.9619C629.767 69.3073 629.435 65.2841 631.549 63.8324C634.037 62.0904 640.296 61.966 644.441 62.2148C647.55 62.4222 654.348 63.2518 655.591 65.6574C656.503 67.3994 655.798 71.5471 654.845 74.6578C654.431 75.9021 654.016 76.939 653.643 77.6442ZM692.98 73.2062C692.98 73.2891 692.939 73.3721 692.939 73.4135C692.441 75.6948 691.529 79.1373 689.747 80.6305C689.623 80.7549 689.457 80.8379 689.332 80.9208C686.887 82.3725 682.078 83.1605 678.099 82.6628C674.078 82.1651 671.384 80.6305 669.809 77.6027C669.394 76.8561 668.938 75.6118 668.524 74.2016C667.653 71.1738 667.032 67.3165 667.902 65.6574C669.187 63.2103 675.944 62.3807 679.052 62.2148C683.198 61.966 689.457 62.0904 691.944 63.8324C694.182 65.4085 693.685 69.8051 693.187 72.4596C693.063 72.7084 693.022 72.9988 692.98 73.2062Z" fill="#1A1A1A"/>
<path d="M738.742 155.952C738.742 155.952 768.131 168.105 774.141 175.239C780.152 182.332 800.546 242.929 800.546 274.741C800.546 306.554 805.354 355.372 800.546 364.58C795.737 373.788 774.141 419.329 759.758 429.864C745.374 440.399 739.488 439.611 739.488 439.611L735.965 392.286L751.385 317.379L743.55 204.522L738.742 155.952Z" fill="#E2B897"/>
<path d="M661.063 414.061C659.571 420.947 657.705 447.989 656.006 477.728C655.923 478.972 655.881 480.217 655.798 481.461H581.311C580.482 436.21 582.015 392.784 582.015 392.784C582.015 392.784 582.72 392.825 583.964 392.908C584.627 392.95 585.414 392.991 586.326 393.074C586.409 393.074 586.492 393.074 586.616 393.074H586.658C593.415 393.531 606.637 394.609 620.068 396.6C627.073 397.637 634.161 398.922 640.462 400.54C649.249 402.78 656.42 405.559 659.529 409.084C659.736 409.333 659.944 409.582 660.109 409.831C660.234 409.997 660.317 410.163 660.441 410.329C661.104 411.49 661.353 412.734 661.063 414.061Z" fill="#755FAA"/>
<path d="M739.447 400.54V481.502H657L656.296 478.309L656.006 477.728L639.798 447.948L621.187 414.227L618.119 408.669L617.788 408.047L613.643 400.54H739.447Z" fill="#755FAA"/>
<path d="M638.016 135.338H687.633L694.058 146.952L738.784 155.869C738.784 155.869 768.587 170.179 769.457 172.501C770.328 174.824 780.857 294.733 776.463 324.14C772.069 353.547 774.722 386.023 770.328 400.747C765.934 415.43 588.855 406.927 588.855 406.927C588.855 406.927 552.917 188.76 564.316 178.681C575.715 168.644 633 153.007 634.907 149.648C636.772 146.288 638.016 135.338 638.016 135.338Z" fill="#FF7C90"/>
<path d="M776.463 325.343C772.069 354.916 774.722 387.641 770.328 402.448C768.753 407.757 745.582 415.015 715.529 415.762C692.773 416.343 666.161 409.623 643.57 409.084C641.871 409.043 640.171 409.001 638.513 408.96C610.492 408.379 588.855 408.669 588.855 408.669C588.855 408.669 552.917 189.051 564.316 178.93C574.305 170.054 619.612 156.865 631.881 151.514L667.446 214.31L698.493 147.906L738.825 155.994C738.825 155.994 768.628 170.386 769.499 172.75C770.328 175.031 780.857 295.729 776.463 325.343Z" fill="#E2B897"/>
<path d="M738.576 288.553C738.12 288.553 737.747 288.18 737.747 287.724L737.209 250.104C737.126 245.417 735.095 231.149 735.095 231.025C735.012 230.569 735.343 230.154 735.799 230.071C736.255 229.988 736.67 230.32 736.753 230.776C736.835 231.357 738.825 245.293 738.867 250.063L739.405 287.682C739.405 288.138 739.074 288.553 738.576 288.553Z" fill="#B08174"/>
<path d="M649.829 104.065C650.617 108.13 656.171 110.991 662.555 110.535C668.109 110.12 672.503 107.342 673.539 103.94L649.829 104.065Z" fill="white"/>
<path d="M667.902 215.181C667.612 215.181 667.322 215.015 667.198 214.766L650.285 184.903C650.078 184.488 650.203 183.99 650.617 183.783C651.032 183.576 651.529 183.7 651.736 184.115L667.861 212.568L687.882 169.764C688.089 169.349 688.586 169.183 689.001 169.349C689.415 169.557 689.581 170.054 689.415 170.469L668.731 214.725C668.524 214.974 668.234 215.181 667.902 215.181Z" fill="#B08174"/>
<path d="M710.97 416.591C701.229 416.591 689.498 415.845 677.063 413.398C646.14 407.342 625.125 409.209 624.876 409.25C624.42 409.292 624.005 408.96 623.964 408.503C623.922 408.047 624.254 407.632 624.71 407.591C624.917 407.591 646.182 405.642 677.353 411.78C709.063 418.002 736.545 413.066 736.752 413.024C737.208 412.941 737.664 413.19 737.747 413.647C737.83 414.103 737.582 414.518 737.126 414.642C737.043 414.684 726.555 416.591 710.97 416.591Z" fill="#1D1647"/>
<path d="M667.57 463.46C667.115 463.46 666.741 463.087 666.741 462.631V440.233C666.741 440.192 666.741 440.109 666.741 440.067L669.353 427.666C669.436 427.209 669.892 426.919 670.348 427.044C670.804 427.127 671.094 427.583 670.969 428.039L668.358 440.358V462.672C668.4 463.087 668.026 463.46 667.57 463.46Z" fill="#1D1647"/>
<path d="M259.028 116.923C259.028 116.923 269.308 113.107 278.593 117.877C288.458 122.937 293.515 127.997 295.754 170.428C298.034 212.9 297.785 234.136 298.034 237.412C298.282 240.689 217.204 239.694 217.204 239.694V134.053L259.028 116.923Z" fill="#0B0635"/>
<path d="M218.074 237.827C218.074 237.827 176.789 242.307 177.577 313.522C178.364 384.696 163.193 379.719 175.587 430.403C175.587 430.403 203.649 436.085 219.691 424.596L218.074 284.613V237.827Z" fill="#FCFCFC"/>
<path d="M318.718 482L318.759 481.502H186.364C187.691 473.58 190.717 461.884 194.447 448.985C194.779 447.782 195.152 446.579 195.484 445.376V445.293C196.81 440.814 198.178 436.251 199.587 431.647L199.67 431.44C206.095 410.536 213.1 389.549 216.955 378.226C217.867 375.571 218.572 373.456 219.111 371.963C219.608 370.511 219.898 369.723 219.898 369.723H306.034C306.282 370.428 306.738 372.294 307.319 375.032C307.484 375.696 307.609 376.442 307.775 377.23C309.474 385.443 312.086 399.13 314.863 413.978C315.07 415.14 315.277 416.26 315.526 417.462C316.77 424.14 318.013 430.942 319.215 437.496C319.34 438.284 319.505 439.03 319.63 439.777C319.92 441.436 320.251 443.054 320.542 444.671C320.583 444.796 320.583 444.962 320.624 445.086C320.915 446.579 321.163 448.072 321.454 449.565C321.702 450.976 321.951 452.344 322.2 453.713C324.853 468.396 326.884 479.595 327.215 481.502C327.257 481.71 327.257 481.793 327.257 481.793L318.718 482Z" fill="#FF7C90"/>
<path d="M219.981 239.486C219.981 239.486 201.245 244.92 203.774 284.281C206.302 323.642 185.079 372.46 215.629 378.143L299.858 377.106C307.816 377.023 314.2 370.552 314.2 362.589V238.574L296.542 235.504L219.981 239.486Z" fill="#FCFCFC"/>
<path d="M271.505 225.301L241.038 226.214L242.075 200H269.971L271.505 225.301Z" fill="#F8BD8C"/>
<path d="M238.386 221.402H277.308C279.837 221.402 281.992 223.269 282.49 225.882L284.687 237.122L231.173 239.196L233.163 226.131C233.577 223.435 235.774 221.402 238.386 221.402Z" fill="#FCFCFC"/>
<path d="M270.552 209.499C268.811 213.19 265.66 216.84 261.142 217.338C253.391 218.209 245.805 209.582 242.075 204.812C241.329 203.858 240.956 203.07 240.541 202.531C241.163 202.904 242.158 203.567 243.981 204.231C246.966 205.351 251.567 206.512 257.66 206.512C262.096 206.512 265.453 205.434 267.899 204.231L270.261 204.19L270.552 209.499Z" fill="#EAB186"/>
<path d="M283.65 169.266C284.313 190.336 271.754 207.798 255.629 208.296C239.505 208.794 225.909 192.161 225.246 171.091C224.582 150.021 237.142 132.56 253.267 132.062C269.391 131.523 282.987 148.196 283.65 169.266Z" fill="#F8BD8C"/>
<path d="M290.282 171.547C290.282 175.903 286.51 180.133 283.402 180.133C280.293 180.133 277.764 176.608 277.764 172.253C277.764 167.898 281.909 164.372 285.018 164.372C288.127 164.331 290.282 167.192 290.282 171.547Z" fill="#F8BD8C"/>
<path d="M272.873 157.943C272.624 157.943 272.417 157.902 272.168 157.819C265.909 155.745 261.764 157.611 261.598 157.694C260.479 158.234 259.111 157.736 258.572 156.616C258.033 155.496 258.489 154.127 259.608 153.588C259.857 153.464 265.453 150.809 273.578 153.464C274.78 153.837 275.401 155.123 275.028 156.326C274.738 157.321 273.868 157.943 272.873 157.943Z" fill="black"/>
<path d="M229.349 161.552C228.603 161.552 227.898 161.22 227.484 160.556C226.779 159.519 227.028 158.109 228.064 157.404C228.271 157.238 233.411 153.754 241.826 155.164C243.07 155.372 243.899 156.533 243.691 157.777C243.484 159.021 242.323 159.851 241.08 159.644C234.572 158.565 230.759 161.054 230.634 161.137C230.22 161.427 229.764 161.552 229.349 161.552Z" fill="black"/>
<path d="M254.344 179.469H252.064C251.857 179.469 251.691 179.304 251.691 179.096V170.552C251.691 170.345 251.857 170.179 252.064 170.179C252.272 170.179 252.438 170.345 252.438 170.552V178.723H254.344C254.552 178.723 254.717 178.889 254.717 179.096C254.717 179.304 254.552 179.469 254.344 179.469Z" fill="black"/>
<path d="M239.919 168.727C239.919 170.469 238.8 171.921 237.391 171.921C235.981 171.921 234.862 170.511 234.862 168.727C234.862 166.985 235.981 165.533 237.391 165.533C238.8 165.533 239.919 166.985 239.919 168.727Z" fill="black"/>
<path d="M269.308 165.533C269.308 167.275 268.189 168.727 266.779 168.727C265.37 168.727 264.251 167.317 264.251 165.533C264.251 163.791 265.37 162.34 266.779 162.34C268.147 162.381 269.308 163.791 269.308 165.533Z" fill="black"/>
<path d="M245.266 190.046C246.137 193.945 250.696 196.475 255.795 195.77C260.189 195.148 263.588 192.244 264.21 188.885L245.266 190.046Z" fill="#FCFCFC"/>
<path d="M258.241 116.093C266.158 132.02 247.049 137.703 239.795 146.33C231.878 155.745 226.406 174.326 226.821 186.686C227.981 220.448 239.38 247.491 217.163 278.391C221.764 259.644 214.758 245.293 208.914 228.288C202.489 209.582 202.613 190.378 204.81 170.925C206.468 156.284 207.007 132.559 218.033 121.485C224.375 115.098 253.184 105.973 258.241 116.093Z" fill="#0B0635"/>
<path d="M256.417 132.186C256.417 132.186 259.982 138.408 267.899 142.265C279.132 147.698 281.536 165.575 281.536 165.575L286.096 163.086L277.267 129.822L256.417 132.186Z" fill="#0B0635"/>
<path d="M321.495 444.962L315.899 443.137C315.899 443.137 315.194 442.141 315.982 440.897C316.77 439.611 318.593 439.653 319.464 439.777C320.376 439.86 322.2 440.565 322.2 440.565C322.2 440.565 324.397 438.035 326.635 436.915C326.635 436.915 326.055 433.846 327.091 431.814C327.091 431.814 324.77 429.449 325.06 426.007C325.06 426.007 324.811 425.592 324.479 424.928C324.189 425.053 323.609 425.302 323.236 425.509C322.738 425.799 322.697 427.458 322.863 428.454C323.07 429.449 323.277 432.643 322.987 434.468C322.656 436.293 321.288 437.537 319.215 437.454C317.143 437.371 317.06 435.339 316.687 433.556C316.272 431.772 316.438 430.072 316.604 426.836C316.728 423.601 315.899 421.984 315.277 418.914C314.655 415.845 314.904 413.398 314.904 413.398C315.194 410.826 316.189 407.757 316.479 406.969C316.189 405.103 316.189 403.402 316.811 402.116C317.847 399.794 314.448 382.871 314.448 382.871L331.733 384.821L330.117 403.983C330.117 403.983 335.547 415.306 337.329 420.407C339.112 425.509 340.438 428.205 340.189 430.735C340.189 430.735 337.578 440.938 334.884 443.178C332.106 445.501 325.972 449.524 324.189 449.648C322.241 449.814 317.101 449.109 317.101 449.109C317.101 449.109 315.94 449.068 315.111 448.57C315.111 448.57 314.282 448.57 314.904 446.87C315.485 445.086 317.225 445.542 321.495 444.962Z" fill="#F8BD8C"/>
<path d="M304.666 236.832C304.666 236.832 328.873 235.09 337.371 269.059C345.91 303.028 344.998 315.762 344.542 337.371C344.086 358.98 369.288 401.701 346.407 429.2C346.407 429.2 327.05 419.536 309.101 415.886C309.101 415.886 305.951 412.444 307.775 376.774C309.599 341.104 304.666 236.832 304.666 236.832Z" fill="#FCFCFC"/>
<path d="M199.67 431.399C199.67 431.399 192.499 431.855 191.09 431.813C191.09 431.813 191.173 441.851 195.401 445.252L195.484 445.335L199.67 431.399Z" fill="#EAB186"/>
<path d="M211.442 359.52C211.028 359.52 210.655 359.188 210.613 358.773C210.572 358.441 209.784 350.478 211.608 342.141C212.52 337.869 211.898 335.422 210.945 331.689C210.074 328.371 209.038 324.265 208.582 317.296C207.629 302.282 213.225 293.821 213.473 293.447C213.722 293.074 214.261 292.95 214.634 293.24C215.007 293.489 215.131 294.028 214.841 294.401C214.758 294.526 209.328 302.821 210.24 317.213C210.655 324.016 211.691 328.08 212.52 331.316C213.515 335.131 214.219 337.869 213.183 342.556C211.442 350.644 212.23 358.607 212.23 358.69C212.271 359.146 211.94 359.561 211.484 359.603C211.525 359.52 211.484 359.52 211.442 359.52Z" fill="#CCDDE7"/>
<path d="M305.371 372.294C305.329 372.294 305.329 372.294 305.288 372.294C304.832 372.253 304.5 371.838 304.541 371.382C305.205 364.829 305.744 358.939 305.122 353.132C304.79 350.063 304.417 347.035 304.044 344.049C303.215 337.454 302.386 330.652 302.22 323.767C302.22 323.31 302.552 322.937 303.008 322.896C303.464 322.854 303.837 323.228 303.878 323.684C304.044 330.527 304.832 336.956 305.702 343.8C306.075 346.786 306.448 349.856 306.78 352.925C307.402 358.897 306.863 364.87 306.2 371.506C306.158 372.004 305.785 372.294 305.371 372.294Z" fill="#CCDDE7"/>
<path d="M265.66 379.014H215.629C215.173 379.014 214.8 378.64 214.8 378.184C214.8 377.728 215.173 377.354 215.629 377.354H265.619C266.075 377.354 266.448 377.728 266.448 378.184C266.448 378.64 266.116 379.014 265.66 379.014Z" fill="#DC4070"/>
<path d="M948.734 112.36H907.614V149.482H948.734V112.36Z" fill="#F8BD8C"/>
<path d="M948.775 115.388V126.918C945.749 129.988 941.646 132.393 936.464 132.85C925.355 133.845 914.454 125.591 907.656 119.204V115.388C907.697 115.388 907.739 115.388 907.739 115.429C912.754 116.923 920.423 118.499 930.62 118.457C937.998 118.457 943.677 117.047 947.739 115.429L948.775 115.388Z" fill="#EAB186"/>
<path d="M900.112 80.6719C900.609 86.8934 898.205 92.1195 894.681 92.4098C891.199 92.7002 887.925 87.8889 887.427 81.7089C886.93 75.5288 889.334 70.2613 892.858 69.971C896.381 69.6806 899.614 74.4919 900.112 80.6719Z" fill="#F2B588"/>
<path d="M967.76 81.9579C967.014 88.1379 963.615 92.8248 960.133 92.41C956.651 91.9952 954.413 86.6447 955.159 80.4647C955.905 74.2847 959.304 69.5978 962.786 70.0126C966.268 70.4274 968.506 75.7779 967.76 81.9579Z" fill="#F2B588"/>
<path d="M927.967 125.301C946.396 125.301 961.335 105.357 961.335 80.7549C961.335 56.1529 946.396 36.209 927.967 36.209C909.538 36.209 894.599 56.1529 894.599 80.7549C894.599 105.357 909.538 125.301 927.967 125.301Z" fill="#F8BD8C"/>
<path d="M919.759 15.3463C918.764 15.3463 909.811 8.79297 898.288 19.7013C886.764 30.6512 889.417 28.4944 886.225 31.4392C883.034 34.3426 883.821 37.4118 879.593 40.1493C875.365 42.8453 874.578 44.1725 876.401 47.3662C878.267 50.5599 879.552 53.7122 875.448 55.869C871.344 57.9843 869.769 58.5235 871.883 60.3899C873.997 62.2564 872.215 64.7035 876.982 65.4915C881.749 66.2796 884.319 66.7773 885.148 68.8097C885.935 70.842 887.718 70.842 890.122 71.6301C892.526 72.4181 892.899 72.8329 893.687 74.0357C894.474 75.2385 895.345 74.8238 895.345 74.8238C895.345 74.8238 900.153 63.0444 900.402 58.0257C900.65 52.9656 902.225 58.1502 905.997 52.9656C909.77 47.781 910.557 48.2373 913.749 44.1725C916.941 40.1078 915.075 42.6379 917.687 39.776C920.34 36.8312 919.759 15.3463 919.759 15.3463Z" fill="#E2B897"/>
<path d="M928.216 94.0691C927.843 94.0691 927.552 94.0691 927.469 94.0691C927.262 94.0691 927.096 93.8617 927.096 93.6543C927.096 93.4469 927.304 93.2395 927.511 93.281C929.086 93.364 931.822 93.1981 932.444 92.41C933.065 91.6634 932.775 87.5158 932.361 84.7783C932.319 84.5709 932.485 84.3635 932.692 84.3221C932.9 84.2806 933.107 84.4465 933.148 84.6539C933.314 85.8152 934.102 91.6634 933.065 92.9077C932.195 93.9447 929.583 94.0691 928.216 94.0691Z" fill="#080305"/>
<path d="M917.148 103.028H939.2C939.2 103.028 932.195 114.6 921.334 107.093C921.003 106.844 917.148 103.028 917.148 103.028Z" fill="white"/>
<path d="M920.05 66.1551C918.765 66.2795 917.397 66.404 916.07 66.4869C914.744 66.6113 913.417 66.6943 912.132 66.8602C910.847 66.9846 909.562 67.1505 908.277 67.3579C906.993 67.5653 905.79 67.8142 904.547 68.063H904.464C903.594 68.2289 902.723 67.6897 902.557 66.8187C902.391 66.1136 902.764 65.4085 903.386 65.0767C904.713 64.3716 906.122 63.8739 907.531 63.5421C908.941 63.2103 910.391 63.0029 911.801 62.8784C913.21 62.7955 914.661 62.754 916.07 62.837C917.48 62.9199 918.889 63.0443 920.298 63.3762C921.044 63.5421 921.542 64.2886 921.376 65.0767C921.252 65.6988 920.713 66.1136 920.133 66.1551H920.05Z" fill="#080305"/>
<path d="M935.843 63.3762C937.293 63.0443 938.661 62.9199 940.071 62.837C941.48 62.754 942.889 62.7955 944.34 62.8784C945.749 63.0029 947.2 63.2103 948.61 63.5421C950.019 63.8739 951.428 64.3716 952.755 65.0767C953.542 65.4915 953.832 66.4869 953.418 67.275C953.086 67.8971 952.34 68.2289 951.677 68.1045H951.594C950.35 67.8556 949.107 67.6068 947.863 67.3994C946.578 67.2335 945.293 67.0676 944.008 66.9017C942.723 66.7772 941.397 66.6528 940.071 66.5284C938.744 66.404 937.418 66.321 936.091 66.1966H936.05C935.262 66.1136 934.723 65.4085 934.806 64.6205C934.848 63.9983 935.304 63.5006 935.843 63.3762Z" fill="#080305"/>
<path d="M913.915 77.1466C913.915 79.1374 912.671 80.755 911.179 80.755C909.687 80.755 908.443 79.1374 908.443 77.1466C908.443 75.1557 909.687 73.5381 911.179 73.5381C912.671 73.5381 913.915 75.1557 913.915 77.1466Z" fill="#080305"/>
<path d="M946.827 77.1466C946.827 79.1374 945.584 80.755 944.091 80.755C942.599 80.755 941.355 79.1374 941.355 77.1466C941.355 75.1557 942.599 73.5381 944.091 73.5381C945.584 73.5381 946.827 75.1557 946.827 77.1466Z" fill="#080305"/>
<path d="M914.081 30.6512C914.081 30.6512 914.868 46.2464 929.583 50.1037C929.583 50.1037 933.77 49.689 936.92 55.6616C940.112 61.6342 936.713 61.0121 940.485 62.92C944.257 64.8279 943.843 62.7126 949.811 65.2842C955.78 67.8557 953.791 69.5977 958.143 72.1693C962.496 74.6994 971.076 72.7914 972.237 70.6347C973.439 68.4779 975.428 67.8557 976.009 65.6989C976.589 63.5421 976.009 54.1684 976.009 54.1684C976.009 54.1684 968.838 49.0253 966.475 43.0527C964.071 37.0801 967.262 34.5085 962.123 30.6512C956.941 26.7939 949.024 23.3928 947.407 21.6508C945.832 19.9502 943.843 11.3645 937.086 11.8208C930.329 12.2356 921.998 11.5719 919.013 11.8208C916.029 12.0696 914.454 14.5997 914.039 17.3787C913.708 20.1576 914.081 30.6512 914.081 30.6512Z" fill="#E2B897"/>
<path d="M1014.48 481.502H938.247C936.713 461.552 935.345 441.146 935.179 428.993C935.138 426.546 935.179 422.854 935.179 422.854L931.573 481.502H844.981C845.064 464.995 845.935 444.92 848.298 421.112C848.38 420.283 848.463 419.495 848.546 418.665C849.334 410.743 850.329 402.448 851.489 393.738C851.904 390.627 852.318 387.433 852.816 384.24C853.313 380.797 853.811 377.313 854.391 373.788C854.805 371.174 855.22 368.52 855.676 365.824C855.883 364.58 856.09 363.294 856.298 362.008C856.671 359.768 857.044 357.529 857.458 355.247C858.246 350.809 859.033 346.33 859.904 341.726H1000.88C1000.88 341.726 1001.5 344.173 1002.45 348.57C1002.79 350.063 1003.16 351.846 1003.57 353.796C1003.57 353.796 1003.57 353.796 1003.57 353.837C1003.66 354.169 1003.7 354.542 1003.78 354.874C1004.65 359.063 1005.6 364.082 1006.64 369.847C1007.43 374.327 1008.26 379.221 1009.05 384.447C1010.37 393.116 1011.66 402.697 1012.69 412.859C1012.86 414.518 1013.02 416.218 1013.19 417.919C1015.01 437.952 1015.88 460.017 1014.48 481.502Z" fill="#FF7C90"/>
<path d="M986.662 151.099C986.662 151.099 1017.5 160.763 1023.8 166.404C1030.1 172.045 1051.49 220.199 1051.49 245.459C1051.49 270.718 1056.55 309.499 1051.49 316.799C1046.43 324.098 1023.8 360.308 1008.67 368.644C993.543 376.981 987.366 376.359 987.366 376.359L983.677 338.74L999.885 279.262L991.677 189.631L986.662 151.099Z" fill="#755FAA"/>
<path d="M890.246 143.758C893.645 142.472 902.682 139.901 909.065 142.265C915.407 144.629 930.703 146.993 937.956 143.758C945.252 140.523 954.661 140.066 961.211 141.477C967.801 142.887 986.371 146.703 997.149 155.579C1007.97 164.455 1014.52 331.771 1004.53 345.956C1001.05 350.934 983.677 367.815 956.153 362.755C934.184 358.69 909.231 376.4 885.769 364.372C867.448 354.957 852.816 354.874 852.816 354.874C852.816 354.874 830.722 207.051 842.95 173.372C843.033 173.289 844.443 160.888 890.246 143.758Z" fill="#755FAA"/>
<path d="M935.179 423.642C935.179 423.642 935.138 423.642 935.179 423.642C934.682 423.642 934.35 423.228 934.35 422.771C934.475 418.499 936.796 415.43 940.319 410.826C942.889 407.425 946.122 403.194 949.646 396.973C949.853 396.558 950.392 396.434 950.765 396.641C951.179 396.848 951.304 397.388 951.097 397.761C947.532 404.107 944.257 408.379 941.646 411.821C938.205 416.342 936.133 419.08 936.008 422.813C935.967 423.31 935.594 423.642 935.179 423.642Z" fill="#1D1647"/>
<path d="M890.827 146.039C890.827 146.039 865.624 161.469 854.764 167.856C843.904 174.243 836.816 183.617 834.287 189.009C831.8 194.443 825.914 199.337 826.37 202.779C826.784 206.222 816.753 220.988 814.681 233.306C812.608 245.625 808.836 286.479 808.836 287.931C808.836 289.383 815.51 323.352 815.51 323.352C815.51 323.352 835.158 346.994 839.344 352.386C843.531 357.819 856.049 366.654 857.707 366.654C859.365 366.654 869.811 358.275 869.396 349.938C868.982 341.602 866.039 317.462 863.137 313.522C860.857 310.453 858.039 307.674 855.925 303.526C855.344 302.365 854.806 301.12 854.35 299.71C852.277 293.323 858.122 278.059 858.122 278.059C858.122 278.059 876.94 223.932 876.07 216.55C875.241 209.167 881.5 183.078 879.842 176.193C878.184 169.308 890.827 146.039 890.827 146.039Z" fill="#755FAA"/>
<path d="M899.863 369.059C885.189 369.059 878.515 361.054 878.225 360.722C877.935 360.349 877.977 359.851 878.35 359.561C878.723 359.271 879.22 359.312 879.51 359.685C879.593 359.81 886.433 367.898 901.231 367.4C914.039 366.944 920.505 365.409 925.687 364.165C926.765 363.916 927.759 363.667 928.796 363.418C938.164 361.344 951.138 358.939 955.78 361.469C956.195 361.676 956.319 362.215 956.112 362.589C955.905 363.003 955.366 363.128 954.993 362.92C950.392 360.349 934.433 363.874 929.169 365.036C928.174 365.243 927.138 365.492 926.101 365.741C920.837 367.027 914.288 368.561 901.314 369.018C900.816 369.059 900.36 369.059 899.863 369.059Z" fill="#1D1647"/>
<path d="M858.122 295.687C857.749 295.687 857.375 295.438 857.293 295.023C855.386 286.064 856.381 278.059 860.153 271.133C863.635 264.787 865.873 258.358 868.277 251.514C869.686 247.533 871.096 243.385 872.837 239.32C873.003 238.905 873.5 238.698 873.915 238.864C874.329 239.03 874.536 239.528 874.37 239.942C872.671 243.966 871.262 248.072 869.852 252.053C867.572 258.648 865.168 265.45 861.645 271.921C858.039 278.474 857.127 286.106 858.951 294.65C859.034 295.106 858.743 295.521 858.329 295.645C858.246 295.687 858.205 295.687 858.122 295.687Z" fill="#1D1647"/>
<path d="M924.9 146.288C918.599 146.288 907.863 142.762 907.366 142.597C906.951 142.472 906.702 141.974 906.827 141.56C906.951 141.145 907.449 140.896 907.863 141.02C907.987 141.062 920.423 145.127 926.019 144.587C929.21 144.256 931.324 144.339 932.734 144.38C933.646 144.422 934.433 144.463 934.641 144.297C935.014 144.048 935.553 144.173 935.801 144.546C936.05 144.919 935.926 145.458 935.552 145.707C934.889 146.122 934.06 146.081 932.692 146.039C931.324 145.998 929.252 145.915 926.184 146.246C925.811 146.288 925.355 146.288 924.9 146.288Z" fill="#1D1647"/>
<path d="M1138.87 219.204C1131.78 228.329 1120.63 235.753 1108.82 236.085C1107.7 236.126 1105.75 236.251 1103.22 236.458C1084.44 237.951 1031.26 243.551 1007.8 246.039C1000.8 246.786 996.444 247.242 996.403 247.242C993.584 247.533 991.47 237.288 991.346 235.795C990.973 230.569 992.838 225.508 995.408 220.988C997.978 216.425 1003.62 211.116 1001.54 205.351C999.719 200.249 992.672 199.171 989.605 194.733C987.408 191.498 987.781 187.06 989.48 183.576C992.05 178.432 996.817 174.077 1001.96 171.713C1006.39 169.681 1010.25 167.275 1012.24 163.128C1012.69 162.215 1013.02 161.22 1013.27 160.1C1014.64 153.837 1013.4 145.998 1017.67 140.523C1021.23 135.96 1029.81 131.149 1037.94 122.024C1039.22 120.573 1040.51 119.245 1041.83 117.96C1042.12 117.669 1042.41 117.379 1042.75 117.13C1049.58 110.867 1056.88 106.968 1063.01 106.553C1070.6 106.056 1083.28 107.839 1086.06 115.181C1088.84 122.522 1092.4 121.527 1096.96 124.305C1101.52 127.084 1111.89 129.366 1114.25 145.251C1115.57 154.21 1114.25 158.441 1114.21 161.427C1114.21 163.169 1114.58 164.496 1116.2 166.072C1116.74 166.612 1117.44 167.192 1118.31 167.856C1126.06 173.621 1134.19 178.308 1138.91 185.774C1143.6 193.198 1145.96 210.079 1138.87 219.204Z" fill="#231347"/>
<path d="M1138.87 219.204C1131.78 228.329 1120.63 235.753 1108.82 236.085C1107.7 236.126 1105.75 236.251 1103.22 236.458C1103.89 232.725 1104.47 228.287 1104.13 225.301C1103.47 219.204 1103.1 221.9 1101.77 217.877C1100.44 213.812 1104.47 207.425 1104.13 202.655C1103.8 197.926 1098.41 194.899 1096.05 186.437C1093.69 177.976 1098.83 172.709 1098.83 172.709L1114.25 161.427C1114.25 163.169 1114.62 164.496 1116.24 166.072C1116.78 166.612 1117.48 167.192 1118.35 167.856C1126.1 173.621 1134.23 178.308 1138.95 185.774C1143.6 193.198 1145.96 210.079 1138.87 219.204Z" fill="#31185E"/>
<path d="M1081.67 231.481C1078.77 232.725 1075.41 233.928 1071.59 234.675H1053.81C1051.2 234.136 1048.51 233.348 1045.73 232.186L1045.94 222.564L1047.39 199.793L1047.51 198.01L1047.76 193.903L1077.52 194.691L1078.02 198.59L1078.97 206.18L1081.09 222.771L1081.67 231.481Z" fill="#F8BD8C"/>
<path d="M1099.33 171.174C1098.33 175.031 1094.85 177.437 1091.53 176.566C1088.26 175.695 1086.39 171.879 1087.39 168.022C1088.38 164.164 1091.86 161.759 1095.18 162.63C1098.5 163.501 1100.36 167.317 1099.33 171.174Z" fill="#F8BD8C"/>
<path d="M1136.47 240.772L1130.5 380.589L1086.39 382L1001.63 384.654L994.827 238.449L1045.94 222.563C1045.94 222.563 1058.12 231.688 1081.09 222.729C1081.63 222.522 1084.07 222.978 1087.64 223.849C1093.15 225.218 1101.44 227.624 1109.61 230.071C1113.34 232.767 1117.07 235.463 1124.45 236.251C1128.09 236.666 1132.36 238.366 1136.47 240.772Z" fill="white"/>
<path d="M1036.24 180.672C1036.24 180.672 1038.93 194.401 1034.04 203.194C1029.15 211.987 1027.12 212.485 1029.15 220.49C1031.18 228.536 1031.59 226.711 1031.18 231.357C1030.97 233.887 1019.03 240.689 1007.8 245.998C1000.8 246.744 996.444 247.201 996.403 247.201C993.584 247.491 991.47 237.246 991.346 235.753C990.973 230.527 992.838 225.467 995.408 220.946C997.978 216.383 1003.62 211.074 1001.54 205.309C999.719 200.208 992.672 199.129 989.605 194.691C987.408 191.456 987.781 187.018 989.48 183.534C992.05 178.391 996.817 174.036 1001.96 171.672C1006.39 169.639 1010.25 167.234 1012.24 163.086C1012.69 162.173 1013.02 161.178 1013.27 160.058C1014.64 153.795 1013.4 145.956 1017.67 140.481C1021.23 135.919 1029.81 131.107 1037.94 121.983C1039.22 120.531 1040.51 119.204 1041.83 117.918C1042.12 117.628 1042.41 117.337 1042.75 117.088L1045.65 149.316L1036.24 180.672Z" fill="#31185E"/>
<path d="M1091.24 165.16C1091.24 186.977 1078.77 204.687 1063.39 204.687C1048.01 204.687 1034 188.013 1034 166.197C1034 144.38 1047.97 125.674 1063.39 125.674C1078.81 125.674 1091.24 143.302 1091.24 165.16Z" fill="#F8BD8C"/>
<path d="M1052.07 154.583C1051.33 154.334 1050.37 154.127 1049.46 154.003C1048.55 153.837 1047.64 153.712 1046.68 153.671C1044.82 153.546 1042.95 153.588 1041.09 153.837H1041.05C1040.01 153.961 1039.01 153.215 1038.89 152.178C1038.77 151.141 1039.47 150.187 1040.47 150.021C1042.58 149.648 1044.69 149.523 1046.85 149.606C1047.93 149.648 1048.96 149.731 1050.04 149.855C1051.12 150.021 1052.11 150.187 1053.31 150.477C1054.48 150.767 1055.14 151.97 1054.81 153.09C1054.52 154.251 1053.31 154.915 1052.2 154.583C1052.15 154.583 1052.15 154.583 1052.11 154.583H1052.07Z" fill="black"/>
<path d="M1069.48 150.726C1070.68 150.436 1071.68 150.311 1072.76 150.187C1073.83 150.062 1074.87 150.021 1075.95 150.021C1078.06 149.979 1080.22 150.187 1082.29 150.602C1083.33 150.809 1084.03 151.804 1083.82 152.841C1083.62 153.878 1082.66 154.542 1081.63 154.376H1081.58C1079.76 154.086 1077.9 154.003 1076.03 154.086C1075.12 154.127 1074.16 154.21 1073.25 154.334C1072.34 154.459 1071.39 154.666 1070.64 154.874H1070.56C1069.44 155.205 1068.24 154.542 1067.91 153.422C1067.57 152.302 1068.24 151.099 1069.36 150.767C1069.44 150.726 1069.44 150.726 1069.48 150.726Z" fill="black"/>
<path d="M1050.41 160.888C1050.41 162.547 1049.25 163.874 1047.8 163.874C1046.35 163.874 1045.19 162.547 1045.19 160.888C1045.19 159.229 1046.35 157.902 1047.8 157.902C1049.25 157.902 1050.41 159.229 1050.41 160.888Z" fill="black"/>
<path d="M1077.56 161.385C1077.56 163.045 1076.4 164.372 1074.95 164.372C1073.5 164.372 1072.34 163.045 1072.34 161.385C1072.34 159.726 1073.5 158.399 1074.95 158.399C1076.36 158.399 1077.56 159.768 1077.56 161.385Z" fill="black"/>
<path d="M1040.8 166.155C1042.91 169.515 1042.16 173.787 1039.14 175.737C1036.07 177.686 1031.88 176.525 1029.77 173.165C1027.66 169.805 1028.4 165.533 1031.43 163.584C1034.5 161.634 1038.68 162.796 1040.8 166.155Z" fill="#F8BD8C"/>
<path d="M1116.15 166.072C1111.72 169.971 1106.37 174.575 1105.79 175.446C1104.8 176.981 1095.8 177.147 1097.29 174.824C1097.79 174.036 1099.74 162.547 1092.9 163.542C1086.06 164.538 1085.56 160.515 1083.78 157.736C1082 154.957 1083.53 147.615 1083.78 144.961C1084.03 142.348 1080.22 138.449 1075.41 140.232C1070.6 142.016 1060.73 146.33 1057.96 144.546C1055.18 142.763 1057.46 137.205 1049.34 138.449C1041.25 139.735 1040.96 129.075 1040.96 129.075L1041.83 117.918C1048.92 111.157 1056.59 106.927 1062.97 106.512C1070.56 106.014 1083.24 107.798 1086.02 115.139C1088.8 122.48 1092.36 121.485 1096.92 124.264C1101.48 127.043 1111.84 129.324 1114.21 145.21C1116.32 159.312 1111.76 161.676 1116.15 166.072Z" fill="#31185E"/>
<path d="M1136.18 481.502H1003.03C1003.57 461.054 1008.34 437.205 1013.15 417.877C1013.65 415.928 1014.1 414.061 1014.6 412.195C1017.96 399.337 1021.15 389.009 1022.77 383.949C1023.47 381.751 1023.88 380.548 1023.88 380.548L1041.83 379.594L1046.93 379.304L1087.01 377.147L1112.47 375.778C1112.47 375.778 1112.59 377.769 1112.92 381.087C1113.71 388.055 1115.62 400.913 1120.22 414.144C1121.83 418.831 1123.78 423.559 1126.14 428.08C1132.78 440.855 1135.26 463.46 1136.18 481.502Z" fill="#E2B897"/>
<path d="M1040.47 222.356C1040.92 222.273 1041.29 222.646 1041.25 223.103C1040.63 229.739 1036.57 271.174 1035.62 273.041C1034.62 275.073 1033.58 283.493 1033.25 290.253C1032.92 297.014 1032.92 299.378 1033.25 308.835C1033.58 318.292 1034.62 328.412 1035.62 334.841C1036.61 341.27 1040.84 363.957 1041.09 370.303C1041.34 376.649 1041.58 379.47 1042.87 385.027C1044.15 390.585 1046.14 395.894 1045.65 399.71C1045.15 403.526 992.713 418.955 992.713 418.955C992.713 418.955 987.408 415.388 986.62 409.83C985.874 404.273 982.309 401.452 981.563 395.645C980.817 389.839 978.869 355.621 982.931 339.154C986.993 322.688 971.781 310.535 972.485 307.798C973.148 305.102 972.983 257.528 977.791 253.007C982.599 248.445 994.703 237.288 1004.11 236.292C1013.56 235.297 1017.05 231.232 1022.1 227.914C1026.41 225.094 1037.31 222.937 1040.47 222.356Z" fill="#C5A2FD"/>
<path d="M1026.16 309.747C1025.92 309.747 1025.63 309.623 1025.5 309.374C1024.05 307.3 1024.63 305.641 1025.25 303.899C1025.96 301.95 1026.7 299.752 1025.42 295.811C1024.22 292.244 1022.39 289.465 1020.61 286.769C1018.54 283.659 1016.59 280.714 1016.13 277.105C1015.72 273.995 1016.88 269.64 1018.04 265.409C1019.24 260.888 1020.53 256.201 1019.45 254.169C1018.33 252.095 1015.8 250.104 1013.36 248.155C1010.91 246.205 1008.59 244.38 1007.76 242.514C1007.22 241.352 1007.3 239.113 1013.98 233.306C1017.46 230.278 1021.15 227.665 1021.19 227.624C1021.56 227.375 1022.1 227.458 1022.35 227.831C1022.6 228.204 1022.52 228.702 1022.14 228.992C1015.3 233.845 1008.51 240.15 1009.25 241.85C1009.92 243.343 1012.07 245.044 1014.35 246.869C1016.96 248.901 1019.62 251.017 1020.9 253.422C1022.31 256.035 1021.02 260.805 1019.66 265.865C1018.58 269.93 1017.42 274.119 1017.79 276.898C1018.25 280.133 1019.99 282.788 1022.02 285.857C1023.76 288.511 1025.79 291.539 1027.03 295.314C1028.53 299.793 1027.57 302.489 1026.87 304.48C1026.29 306.097 1025.96 307.051 1026.91 308.462C1027.16 308.835 1027.08 309.374 1026.7 309.623C1026.5 309.706 1026.33 309.747 1026.16 309.747Z" fill="#9E4AFF"/>
<path d="M977.833 253.505C976.465 256.367 959.511 273.787 957.77 286.479C956.029 299.171 949.977 303.941 950.475 319.826C950.972 335.712 948.941 340.979 956.029 348.943C963.117 356.865 963.117 363.75 968.174 373.788C973.231 383.825 967.718 388.595 977.833 394.941C987.947 401.287 992.009 367.442 999.594 361.096C1007.18 354.75 1002.62 355.662 999.594 345.169C996.568 334.675 983.884 324.596 983.387 320.905C982.89 317.213 986.579 312.485 987.449 309.582C988.112 307.218 994.537 252.178 995.532 245.251C996.527 238.325 990.185 242.721 990.185 242.721L977.833 253.505Z" fill="#C5A2FD"/>
<path d="M991.594 378.225C991.47 378.225 991.387 378.225 991.263 378.184C990.848 378.018 990.641 377.52 990.807 377.105C994.537 367.939 995.366 366.902 996.734 365.202C997.232 364.538 997.853 363.833 998.724 362.464C1000.09 360.307 1001 359.312 1001.63 358.648C1002.37 357.819 1002.58 357.611 1002.87 355.952C1003.32 353.505 1001.21 351.556 1000.67 351.1C1000.22 350.892 1000.05 350.146 998.848 343.758C997.895 338.532 993.708 329.449 988.693 326.753C986.247 325.426 983.428 323.518 983.387 320.448C983.387 318.789 983.967 317.255 984.548 315.762L984.672 315.388C987.574 307.798 988.859 299.627 989.729 292.659C990.102 289.756 990.185 286.811 990.268 283.949C990.351 281.087 990.434 278.184 990.765 275.239C990.807 274.783 991.221 274.451 991.677 274.534C992.133 274.575 992.465 274.99 992.382 275.446C992.05 278.308 991.967 281.17 991.884 283.99C991.802 286.894 991.719 289.88 991.346 292.866C990.475 299.959 989.19 308.254 986.206 316.01L986.04 316.384C985.501 317.752 985.004 319.08 985.004 320.448C985.045 322.647 987.242 324.14 989.439 325.301C994.952 328.287 999.387 337.744 1000.42 343.426C1001.29 348.03 1001.63 349.441 1001.71 349.855C1002.45 350.519 1005.02 353.008 1004.44 356.243C1004.07 358.275 1003.7 358.773 1002.79 359.768C1002.21 360.432 1001.38 361.344 1000.05 363.377C999.138 364.828 998.517 365.575 997.978 366.28C996.693 367.856 995.947 368.81 992.299 377.769C992.258 378.018 991.926 378.225 991.594 378.225Z" fill="#9E4AFF"/>
<path d="M1046.97 380.133C1046.52 380.133 1046.19 379.802 1046.14 379.345C1046.1 378.889 1046.48 378.516 1046.93 378.474L1094.64 375.903C1095.1 375.861 1095.47 376.235 1095.51 376.691C1095.55 377.147 1095.18 377.52 1094.72 377.562L1047.01 380.133C1046.97 380.133 1046.97 380.133 1046.97 380.133Z" fill="#B08174"/>
<path d="M1145.63 339.154C1149.69 355.621 1147.74 389.839 1146.99 395.646C1146.25 401.452 1142.68 404.273 1141.94 409.831C1141.32 414.352 1137.71 417.545 1136.34 418.582C1136.05 418.831 1135.64 418.872 1135.26 418.79C1129.59 417.089 1083.37 403.277 1082.91 399.71C1082.41 395.894 1084.44 390.585 1085.69 385.028C1085.94 383.908 1086.14 382.912 1086.35 381.958C1087.06 378.184 1087.26 375.363 1087.47 370.303C1087.72 363.957 1091.95 341.27 1092.94 334.841C1093.94 328.412 1094.97 318.292 1095.3 308.835C1095.64 299.378 1095.64 297.014 1095.3 290.253C1094.97 283.493 1093.94 275.031 1092.94 273.041C1092.03 271.216 1088.38 232.394 1087.6 224.14C1087.6 224.057 1087.6 223.974 1087.6 223.891C1087.68 223.227 1088.3 222.729 1088.96 222.854C1092.74 223.476 1102.39 225.301 1106.41 227.914C1107.49 228.619 1108.53 229.366 1109.52 230.112C1113.25 232.808 1116.98 235.504 1124.36 236.292C1128.01 236.666 1132.24 238.366 1136.34 240.772C1142.52 244.339 1148.36 249.523 1151.26 254.127C1156.69 262.796 1154.62 275.239 1155.08 284.944C1155.41 292.12 1154.25 300.83 1155.99 307.84C1156.78 310.494 1141.61 322.647 1145.63 339.154Z" fill="#C5A2FD"/>
<path d="M1099.66 310.37C1099.49 310.37 1099.33 310.328 1099.2 310.204C1098.83 309.955 1098.75 309.416 1098.99 309.042C1099.95 307.632 1099.62 306.678 1099.04 305.061C1098.33 303.07 1097.38 300.374 1098.87 295.894C1100.11 292.12 1102.1 289.092 1103.89 286.438C1105.92 283.368 1107.7 280.672 1108.11 277.479C1108.49 274.7 1107.37 270.511 1106.25 266.446C1104.88 261.386 1103.6 256.616 1105 254.003C1106.29 251.597 1108.94 249.482 1111.55 247.45C1113.83 245.666 1115.99 243.966 1116.65 242.431C1117.44 240.647 1111.31 234.011 1105.21 228.91C1104.88 228.619 1104.8 228.08 1105.09 227.748C1105.38 227.416 1105.92 227.333 1106.25 227.624C1109.48 230.32 1119.84 239.362 1118.14 243.095C1117.32 244.961 1114.99 246.786 1112.55 248.735C1110.1 250.685 1107.53 252.676 1106.46 254.75C1105.38 256.782 1106.62 261.469 1107.86 265.99C1108.98 270.22 1110.19 274.575 1109.77 277.686C1109.27 281.295 1107.33 284.239 1105.29 287.35C1103.51 290.046 1101.65 292.867 1100.49 296.392C1099.16 300.332 1099.95 302.531 1100.65 304.48C1101.27 306.222 1101.85 307.881 1100.4 309.955C1100.15 310.245 1099.91 310.37 1099.66 310.37Z" fill="#9E4AFF"/>
<path d="M1150.6 253.505C1151.97 256.367 1168.92 273.787 1170.66 286.479C1172.4 299.171 1178.46 303.941 1177.96 319.826C1177.46 335.712 1179.49 340.979 1172.4 348.943C1165.32 356.865 1165.32 363.75 1160.26 373.788C1155.2 383.825 1160.71 388.595 1150.6 394.941C1140.49 401.287 1136.42 367.442 1128.84 361.096C1121.25 354.75 1125.81 355.662 1128.84 345.169C1131.86 334.675 1144.55 324.596 1145.05 320.905C1145.54 317.213 1141.85 312.485 1140.98 309.582C1140.32 307.218 1133.9 252.178 1132.9 245.251C1131.91 238.325 1138.25 242.721 1138.25 242.721L1150.6 253.505Z" fill="#C5A2FD"/>
<path d="M1124.69 387.765C1124.4 387.765 1124.11 387.599 1123.95 387.309C1123.95 387.267 1122.41 384.364 1118.93 381.17C1118.35 380.631 1117.81 380.175 1117.23 379.718C1114.29 377.23 1111.76 375.115 1112.67 369.1C1113.21 365.699 1114.25 364.165 1115.37 362.547C1116.53 360.888 1117.69 359.188 1118.64 354.998C1120.55 346.579 1132.94 314.02 1133.48 312.651C1133.65 312.236 1134.1 312.029 1134.56 312.153C1134.97 312.319 1135.18 312.775 1135.06 313.231C1134.93 313.563 1122.21 347.076 1120.3 355.33C1119.26 359.81 1117.94 361.759 1116.78 363.46C1115.74 364.994 1114.83 366.28 1114.37 369.308C1113.58 374.368 1115.49 375.986 1118.35 378.391C1118.93 378.847 1119.51 379.345 1120.09 379.884C1123.82 383.285 1125.4 386.396 1125.44 386.521C1125.65 386.935 1125.48 387.433 1125.07 387.641C1124.94 387.765 1124.82 387.765 1124.69 387.765Z" fill="#9E4AFF"/>
<path d="M1065.83 478.557C1065.38 478.557 1065 478.184 1065 477.728V428.536L1054.27 419.578C1053.94 419.287 1053.85 418.748 1054.14 418.416C1054.43 418.084 1054.97 418.001 1055.3 418.292L1066.33 427.5C1066.54 427.665 1066.62 427.873 1066.62 428.122V477.686C1066.66 478.184 1066.29 478.557 1065.83 478.557Z" fill="#B08174"/>
<path d="M1079.01 206.18C1076.86 209.125 1073.58 211.655 1069.32 212.07C1060.57 212.941 1052.03 204.812 1047.43 199.793L1047.55 198.01C1048.01 198.217 1048.51 198.383 1049.13 198.59C1052.65 199.752 1058.04 200.954 1065.21 200.954C1070.39 200.954 1074.37 199.876 1077.23 198.59H1078.06L1079.01 206.18Z" fill="#EAB186"/>
<path d="M1062.27 173.289H1059.99C1059.78 173.289 1059.62 173.123 1059.62 172.916V164.372C1059.62 164.164 1059.78 163.999 1059.99 163.999C1060.2 163.999 1060.36 164.164 1060.36 164.372V172.543H1062.27C1062.48 172.543 1062.64 172.709 1062.64 172.916C1062.64 173.123 1062.48 173.289 1062.27 173.289Z" fill="black"/>
<path d="M1060.82 187.64C1059.08 187.64 1057.29 187.309 1055.51 186.686C1055.3 186.603 1055.18 186.355 1055.26 186.147C1055.35 185.94 1055.59 185.815 1055.8 185.898C1061.03 187.806 1066.58 186.645 1069.32 183.036C1069.44 182.87 1069.73 182.829 1069.9 182.953C1070.06 183.078 1070.1 183.368 1069.98 183.534C1067.95 186.189 1064.55 187.64 1060.82 187.64Z" fill="#1A1A1A"/>
<path d="M1034.04 174.617C1034.04 174.948 1033.75 175.239 1033.42 175.239C1033.09 175.239 1032.8 174.948 1032.8 174.617C1032.8 174.285 1033.09 173.994 1033.42 173.994C1033.75 173.994 1034.04 174.285 1034.04 174.617Z" fill="black"/>
<path d="M1092.73 174.824C1092.73 175.156 1092.44 175.446 1092.11 175.446C1091.78 175.446 1091.49 175.156 1091.49 174.824C1091.49 174.492 1091.78 174.202 1092.11 174.202C1092.44 174.202 1092.73 174.492 1092.73 174.824Z" fill="black"/>
<path d="M1031.18 173.289C1031.43 173.289 1031.64 173.085 1031.64 172.833C1031.64 172.581 1031.43 172.377 1031.18 172.377C1030.93 172.377 1030.72 172.581 1030.72 172.833C1030.72 173.085 1030.93 173.289 1031.18 173.289Z" fill="black"/>
<path d="M849.624 213.024L835.282 230.071L830.722 235.504L790.266 283.659L792.629 216.508C798.142 216.176 802.453 211.572 802.453 206.056V183.493L831.178 184.53C831.551 187.101 831.966 189.714 832.339 192.286C832.422 192.742 832.463 193.157 832.546 193.613C832.546 193.696 832.546 193.737 832.588 193.82C832.795 195.314 832.961 197.056 833.127 198.881C833.168 199.254 833.209 199.627 833.251 200C833.914 206.637 835.365 213.895 843.158 213.397L849.624 213.024Z" fill="#F8BD8C"/>
<path d="M833.126 198.881C831.178 202.24 828.028 205.351 823.717 205.807C815.468 206.72 807.427 197.844 803.447 192.908C803.033 192.369 802.701 191.912 802.453 191.498V190.917C803.116 191.29 804.069 191.788 805.479 192.327C808.67 193.489 813.52 194.691 819.986 194.691C824.67 194.691 828.235 193.613 830.847 192.327L832.339 192.286C832.422 192.742 832.463 193.157 832.546 193.613C832.546 193.696 832.546 193.737 832.588 193.82C832.836 195.272 832.961 197.056 833.126 198.881Z" fill="#EAB186"/>
<path d="M846.018 177.769C846.018 177.769 880.298 174.036 866.37 131.108C852.401 88.1795 809.499 98.2998 809.499 98.2998C809.499 98.2998 777.748 111.24 773.934 138.449C770.079 165.658 793.126 173.124 793.126 173.124L846.018 177.769Z" fill="black"/>
<path d="M831.054 100.498C831.054 100.498 840.878 83.9488 837.106 79.8011C833.334 75.6535 828.526 70.8422 818.95 72.5427C809.375 74.2847 807.344 83.7829 808.256 86.9351C809.168 90.1288 811.531 96.4333 814.639 101.576C817.79 106.719 831.054 100.498 831.054 100.498Z" fill="black"/>
<path d="M792.256 158.607C790.307 179.221 801.499 197.138 817.292 198.632C833.085 200.125 847.469 184.654 849.417 164.04C851.365 143.426 840.173 125.508 824.38 124.015C808.587 122.522 794.204 137.993 792.256 158.607Z" fill="#F8BD8C"/>
<path d="M816.09 118.914C816.09 118.914 827.945 142.846 850.992 155.745C873.997 168.644 853.272 122.937 853.272 122.937L816.09 118.914Z" fill="black"/>
<path d="M783.51 156.326C783.51 161.012 787.572 165.575 790.971 165.575C794.328 165.575 797.064 161.759 797.064 157.072C797.064 152.385 792.587 148.57 789.23 148.57C785.872 148.528 783.51 151.597 783.51 156.326Z" fill="#F8BD8C"/>
<path d="M855.179 158.69C855.179 163.377 851.116 167.939 847.717 167.939C844.36 167.939 841.624 164.123 841.624 159.436C841.624 154.749 846.101 150.934 849.458 150.934C852.816 150.934 855.179 154.003 855.179 158.69Z" fill="#F8BD8C"/>
<path d="M806.432 155.413C806.432 157.238 807.551 158.69 808.96 158.69C810.37 158.69 811.489 157.197 811.489 155.413C811.489 153.588 810.37 152.136 808.96 152.136C807.551 152.136 806.432 153.588 806.432 155.413Z" fill="black"/>
<path d="M834.453 160.307C835.849 160.307 836.981 158.84 836.981 157.031C836.981 155.221 835.849 153.754 834.453 153.754C833.056 153.754 831.924 155.221 831.924 157.031C831.924 158.84 833.056 160.307 834.453 160.307Z" fill="black"/>
<path d="M813.147 147.781C812.94 147.823 812.733 147.823 812.525 147.781C806.888 146.952 803.448 148.694 803.323 148.735C802.37 149.233 801.168 149.026 800.587 148.279C800.049 147.533 800.339 146.537 801.251 146.039C801.458 145.956 806.142 143.509 813.396 144.588C814.474 144.754 815.137 145.583 814.888 146.454C814.722 147.201 813.976 147.698 813.147 147.781Z" fill="black"/>
<path d="M841.831 149.523C841.624 149.482 841.417 149.399 841.251 149.316C836.152 146.786 832.339 147.408 832.173 147.408C831.137 147.574 830.018 146.993 829.727 146.122C829.437 145.251 830.018 144.38 831.054 144.214C831.261 144.173 836.484 143.302 843.075 146.537C844.028 147.035 844.443 148.03 843.945 148.777C843.489 149.44 842.619 149.689 841.831 149.523Z" fill="black"/>
<path d="M821.686 168.561C821.272 168.561 820.816 168.437 820.484 168.188C819.406 167.4 819.365 166.861 819.489 165.616L819.986 160.307C819.986 160.1 820.194 159.976 820.36 159.976C820.567 159.976 820.691 160.183 820.691 160.349L820.194 165.658C820.069 166.778 820.111 167.027 820.898 167.607C821.189 167.815 821.603 167.898 821.976 167.815L823.303 167.524C823.51 167.483 823.676 167.607 823.717 167.815C823.759 168.022 823.634 168.188 823.427 168.229L822.101 168.52C821.976 168.561 821.81 168.561 821.686 168.561Z" fill="#080305"/>
<path d="M810.411 177.769C811.033 181.834 815.593 184.737 820.857 184.322C825.417 183.949 829.064 181.17 829.935 177.769H810.411Z" fill="white"/>
<path d="M790.598 162.63C791.012 162.879 791.178 163.418 790.929 163.833C790.68 164.248 790.142 164.413 789.727 164.165C789.312 163.916 789.147 163.376 789.395 162.962C789.644 162.505 790.183 162.381 790.598 162.63Z" fill="#080305"/>
<path d="M849.873 164.331C850.287 164.579 850.453 165.119 850.204 165.533C849.956 165.948 849.417 166.114 849.002 165.865C848.588 165.616 848.422 165.077 848.671 164.662C848.919 164.248 849.458 164.082 849.873 164.331Z" fill="#080305"/>
<path d="M870.35 411.531L846.391 421.9L832.546 407.342L862.723 385.567L875.531 409.499L870.35 411.531Z" fill="#F8BD8C"/>
<path d="M734.556 469.184L739.986 467.4C739.986 467.4 740.649 466.446 739.903 465.202C739.157 463.958 737.374 463.999 736.504 464.124C735.633 464.207 733.851 464.87 733.851 464.87C733.851 464.87 731.737 462.423 729.54 461.345C729.54 461.345 730.12 458.358 729.084 456.409C729.084 456.409 731.322 454.128 731.074 450.81C731.074 450.81 731.322 450.395 731.654 449.773C731.944 449.897 732.483 450.146 732.856 450.353C733.354 450.644 733.395 452.261 733.188 453.215C732.981 454.169 732.773 457.239 733.063 459.022C733.354 460.806 734.722 461.967 736.711 461.884C738.701 461.801 738.784 459.852 739.157 458.11C739.53 456.368 739.364 454.75 739.24 451.598C739.115 448.446 739.903 446.911 740.525 443.925C741.105 440.98 740.898 438.574 740.898 438.574C740.649 436.085 739.654 433.141 739.405 432.353C739.696 430.569 739.654 428.91 739.115 427.624C738.079 425.385 741.395 409.001 741.395 409.001L724.69 410.909L726.265 429.408C726.265 429.408 721.043 440.358 719.302 445.293C717.561 450.229 716.317 452.801 716.566 455.248C716.566 455.248 719.094 465.078 721.706 467.276C724.4 469.516 730.328 473.414 732.069 473.539C733.934 473.663 738.908 473 738.908 473C738.908 473 740.027 472.958 740.856 472.502C740.856 472.502 741.644 472.502 741.022 470.843C740.4 469.35 738.701 469.764 734.556 469.184Z" fill="#F8BD8C"/>
<path d="M763.571 228.536C763.571 228.536 749.105 236.458 747.032 247.616C744.96 258.773 737.955 274.534 734.141 281.087C730.286 287.641 725.436 301.12 724.732 305.724C724.027 310.328 714.286 376.318 717.063 392.037C719.84 407.798 717.685 420.034 723.074 422.232C728.462 424.431 745.664 422.232 745.664 422.232L770.784 269.059L763.571 228.536Z" fill="#ABABAB"/>
<path d="M868.277 481.502H729.54C729.872 478.806 730.203 476.069 730.576 473.207C730.991 469.93 731.488 466.529 731.986 463.087C732.276 461.054 732.607 458.981 732.939 456.865C734.431 447.492 736.297 437.537 738.493 427.21C738.618 426.546 738.784 425.882 738.949 425.219C739.115 424.514 739.281 423.767 739.447 423.062C739.447 423.02 739.488 422.937 739.488 422.896C740.193 419.744 740.939 416.591 741.727 413.356C742.183 411.49 742.68 409.582 743.177 407.674C745.167 399.959 747.405 392.12 749.893 384.24C750.349 382.83 750.763 381.461 751.219 380.051C751.219 380.051 751.634 379.636 752.711 379.055C755.157 377.728 760.96 375.364 773.188 374.202H773.23C779.199 373.622 786.66 373.331 796.028 373.539C806.39 373.788 819.033 374.659 834.453 376.567C834.453 376.567 835.323 379.511 836.774 384.24C838.101 388.512 839.924 394.277 842.038 400.582C843.987 406.388 846.225 412.651 848.546 418.707C848.795 419.37 849.085 420.034 849.334 420.698C852.401 428.412 855.593 435.629 858.702 440.814C863.179 448.363 866.287 464.621 868.277 481.502Z" fill="#190444"/>
<path d="M751.219 335.671C751.551 332.187 753.499 308.794 753.499 308.794C753.499 308.794 754.742 275.612 753.582 264.123C752.836 256.906 757.893 242.639 761.748 233.016C762.411 231.357 763.033 229.864 763.613 228.536L771.116 225.426L796.815 214.766C796.815 214.766 791.675 253.381 794.494 274.327C794.494 274.327 835.406 231.523 843.779 211.946C843.779 211.946 871.676 217.047 878.681 216.135C885.645 215.181 901.48 219.37 907.987 268.271C914.495 317.131 935.428 342.722 936.381 351.598C937.293 360.432 941.977 370.221 930.785 381.378C919.635 392.535 901.024 409.748 898.702 413.025C896.381 416.26 873.583 421.859 873.583 421.859L849.914 378.848C849.127 377.438 849.748 375.696 851.199 375.073C855.179 373.373 862.308 370.262 864.298 369.267C867.075 367.856 884.982 358.566 884.982 358.566C884.982 358.566 870.93 339.486 869.189 319.246C868.401 310.204 868.028 303.029 867.904 297.885C867.697 315.223 865.458 351.515 851.282 370.221L843.821 384.198H749.934C749.934 384.198 749.478 381.253 749.934 378.682C750.722 373.995 750.888 339.155 751.219 335.671Z" fill="#ABABAB"/>
<path d="M726.514 423.311C726.431 423.311 726.348 423.311 726.307 423.269L721.25 421.9C720.048 421.569 718.638 420.158 717.934 412.153C717.602 408.172 717.602 404.19 717.602 403.775L715.695 381.129C715.695 381.087 715.695 381.046 715.695 381.004L716.897 361.552C716.939 361.137 721.167 323.269 722.535 314.849C723.944 306.056 726.058 295.563 731.239 284.82C736.379 274.119 744.96 252.593 745.084 252.385C745.25 251.971 745.747 251.763 746.162 251.929C746.576 252.095 746.784 252.593 746.618 253.007C746.535 253.215 737.872 274.824 732.732 285.567C727.675 296.143 725.561 306.429 724.151 315.139C722.825 323.518 718.555 361.344 718.514 361.759L717.312 381.129L719.219 403.734C719.219 403.775 719.219 403.775 719.219 403.817C719.136 412.402 720.255 419.992 721.623 420.366L726.68 421.734C727.136 421.859 727.385 422.315 727.26 422.771C727.219 423.062 726.887 423.311 726.514 423.311Z" fill="#8E8D8E"/>
<path d="M748.483 368.644C748.276 368.644 748.027 368.562 747.861 368.396C747.613 368.105 745.25 364.995 744.918 345.998C744.587 327.002 748.4 312.817 749.436 311.365C749.685 310.992 750.224 310.909 750.597 311.158C750.97 311.407 751.053 311.946 750.804 312.319C750.1 313.439 746.245 327.043 746.576 345.957C746.908 363.916 748.981 367.11 749.146 367.276C749.437 367.608 749.395 368.105 749.063 368.437C748.898 368.603 748.69 368.644 748.483 368.644Z" fill="#8E8D8E"/>
<path d="M794.494 275.198C794.411 275.198 794.328 275.198 794.204 275.156C793.914 275.032 793.706 274.783 793.665 274.451C793.623 274.202 790.805 248.113 795.82 215.056C795.903 214.6 796.318 214.31 796.774 214.351C797.23 214.434 797.52 214.849 797.478 215.305C793.25 243.261 794.618 266.156 795.157 272.502C802.038 265.534 835.24 231.232 843.033 211.697C843.199 211.282 843.696 211.075 844.111 211.241C844.525 211.407 844.733 211.904 844.567 212.319C835.779 234.385 796.732 273.331 795.074 274.949C794.908 275.115 794.701 275.198 794.494 275.198Z" fill="#8E8D8E"/>
<path d="M898.661 413.896C898.454 413.896 898.288 413.813 898.122 413.688C897.79 413.398 897.707 412.859 898.039 412.527C898.122 412.444 906.288 402.738 921.749 389.092L922.288 388.636C927.635 383.908 934.267 378.06 936.34 371.133C938.91 362.506 937.086 352.303 930.827 340.772C925.687 331.233 921.625 320.946 917.728 311.033C917.314 309.955 916.899 308.918 916.485 307.84C916.319 307.425 916.526 306.927 916.941 306.761C917.355 306.595 917.853 306.803 918.018 307.218C918.433 308.296 918.847 309.333 919.262 310.411C923.158 320.283 927.138 330.528 932.278 339.984C938.744 351.888 940.609 362.547 937.915 371.589C935.718 378.972 928.879 385.028 923.366 389.881L922.827 390.337C907.49 403.9 899.365 413.481 899.283 413.605C899.158 413.813 898.909 413.896 898.661 413.896Z" fill="#8E8D8E"/>
<path d="M864.09 338.118C864.049 338.118 864.007 338.118 863.925 338.118C863.469 338.035 863.179 337.578 863.261 337.164C863.261 337.122 863.759 334.592 864.795 328.205C865.831 321.859 866.992 298.134 867.033 297.885C867.075 297.429 867.448 297.056 867.904 297.097C868.36 297.139 868.733 297.512 868.691 297.968C868.65 298.964 867.489 322.066 866.453 328.454C865.417 334.841 864.919 337.412 864.919 337.454C864.837 337.827 864.464 338.118 864.09 338.118Z" fill="#8E8D8E"/>
<path d="M813.934 224.14C812.691 224.14 811.53 223.974 810.411 223.684C802.66 221.568 800.09 212.651 800.048 212.568L800.463 212.443C800.504 212.526 802.991 221.236 810.535 223.269C817.416 225.177 826.245 221.071 836.691 211.075L836.981 211.365C828.111 219.868 820.359 224.14 813.934 224.14Z" fill="#080305"/>
<path d="M588.565 419.495C588.565 419.495 597.269 422.066 598.969 422.44C598.969 422.44 595.984 434.717 589.891 437.703L589.725 437.786L588.565 419.495Z" fill="#EAB186"/>
<path d="M581.062 223.269C581.062 223.269 583.342 221.527 586.243 224.098C601.746 237.744 600.254 261.427 600.005 267.524C599.798 273.621 605.352 295.811 608.295 304.148C611.238 312.485 614.762 317.421 616.917 331.896C619.073 346.371 616.917 375.032 617.166 378.599C617.415 382.124 620.233 399.296 621.726 403.982C622.845 407.508 621.56 418.168 617.705 419.91C613.85 421.61 611.321 423.85 597.145 422.108C582.927 420.366 586.575 415.637 586.368 409.084C586.119 402.531 584.088 396.683 584.005 393.738C583.922 390.834 583.383 385.318 583.383 377.977C583.425 370.635 583.922 373.497 582.471 366.405C581.021 359.312 570.741 323.393 574.471 314.559C578.202 305.724 564.233 276.069 564.44 273.829C564.647 271.589 561.083 251.266 561.083 251.266C561.083 251.266 564.15 241.726 569 234.882C573.891 227.956 580.357 224.181 581.062 223.269Z" fill="#1A1A1A"/>
<path d="M527.88 347.699V374.741L527.3 402.033L527.217 406.222L525.6 481.502H460.605L466.947 404.936L467.652 396.434L467.859 394.111L468.191 389.922L469.558 373.58L470.843 357.86L471.672 347.657H527.88V347.699Z" fill="#ABABAB"/>
<path d="M593.995 481.502H528.999L527.383 404.854L527.341 402.033L526.761 374.742V347.699H582.969L586.285 387.516L586.741 393.116L586.782 393.738L587.072 397.346L588.896 419.619L588.938 419.91L590.388 437.537L593.995 481.502Z" fill="#ABABAB"/>
<path d="M463.755 193.032C463.755 193.032 460.066 170.013 469.061 158.192C478.056 146.371 475.196 136.209 475.196 130.734C475.196 125.26 476.812 107.922 484.605 101.576C492.357 95.2305 495.631 81.2943 520.916 86.3545C520.916 86.3545 527.466 82.5386 544.17 84.6539C560.917 86.7692 567.839 108.752 568.668 113.397C569.497 118.043 571.114 127.748 575.217 132.394C579.28 137.039 583.383 147.615 580.523 158.151C577.663 168.727 577.539 170.842 581.477 180.548C585.414 190.253 583.383 193.032 583.383 193.032C583.383 193.032 535.59 212.651 463.755 193.032Z" fill="#D1D1D3"/>
<path d="M545.994 210.784H506.16L510.181 182.953L510.471 181.087L511.051 177.188H541.103L541.725 181.543L542.927 189.59L545.994 210.784Z" fill="#F8BD8C"/>
<path d="M542.927 189.59C540.647 192.535 537.331 195.065 532.937 195.48C523.86 196.351 514.989 188.097 510.222 182.912L510.512 181.046C510.927 181.212 511.383 181.377 511.88 181.543C515.569 182.746 521.165 183.99 528.668 183.99C534.098 183.99 538.243 182.871 541.228 181.543H541.766L542.927 189.59Z" fill="#EAB186"/>
<path d="M524.73 187.309C543.502 187.309 558.72 166.715 558.72 141.311C558.72 115.907 543.502 95.3135 524.73 95.3135C505.958 95.3135 490.74 115.907 490.74 141.311C490.74 166.715 505.958 187.309 524.73 187.309Z" fill="#F8BD8C"/>
<path d="M501.144 149.358C502.885 154.127 501.393 159.146 497.745 160.598C494.098 162.049 489.745 159.312 488.004 154.542C486.263 149.772 487.756 144.754 491.403 143.302C495.009 141.892 499.362 144.588 501.144 149.358Z" fill="#F8BD8C"/>
<path d="M552.875 149.358C551.134 154.127 552.627 159.146 556.274 160.598C559.922 162.049 564.274 159.312 566.015 154.542C567.756 149.772 566.264 144.754 562.616 143.302C558.969 141.892 554.616 144.588 552.875 149.358Z" fill="#F8BD8C"/>
<path d="M501.269 132.311C500.564 132.311 499.859 131.854 499.569 131.149C499.155 130.195 499.611 129.075 500.523 128.661C509.352 124.803 516.067 128.412 516.357 128.536C517.269 129.034 517.6 130.195 517.103 131.108C516.606 132.02 515.528 132.394 514.616 131.896C514.367 131.771 509.062 129.034 501.973 132.145C501.725 132.269 501.476 132.311 501.269 132.311Z" fill="#1A1A1A"/>
<path d="M533.891 132.311C533.186 132.311 532.481 131.854 532.191 131.149C531.777 130.195 532.233 129.075 533.145 128.661C541.974 124.803 548.689 128.412 548.979 128.536C549.891 129.034 550.223 130.195 549.725 131.108C549.269 132.02 548.15 132.394 547.238 131.896C546.989 131.771 541.684 129.034 534.595 132.145C534.347 132.269 534.098 132.311 533.891 132.311Z" fill="#1A1A1A"/>
<path d="M511.051 142.182C511.051 144.339 509.725 146.122 508.066 146.122C506.408 146.122 505.082 144.38 505.082 142.182C505.082 140.025 506.408 138.242 508.066 138.242C509.683 138.283 511.051 140.025 511.051 142.182Z" fill="#1A1A1A"/>
<path d="M544.088 142.182C544.088 144.339 542.761 146.122 541.103 146.122C539.445 146.122 538.119 144.38 538.119 142.182C538.119 140.025 539.445 138.242 541.103 138.242C542.761 138.283 544.088 140.025 544.088 142.182Z" fill="#1A1A1A"/>
<path d="M520.875 99.4195C520.875 99.4195 500.854 127.997 498.036 142.887C495.175 157.736 478.844 153.09 477.227 153.505C475.61 153.92 487.01 106.18 487.01 106.18L520.875 91.373V99.4195Z" fill="#D1D1D3"/>
<path d="M520.875 89.5481V91.4145V99.461C525.352 108.835 530.989 117.628 537.704 125.425C544.834 133.679 553.746 140.896 562.451 147.325C563.943 148.403 566.098 149.606 567.466 150.809C566.264 143.592 563.984 136.375 562.658 129.158C561.414 122.688 560.627 115.803 558.637 109.374C558.057 108.42 520.875 89.5481 520.875 89.5481Z" fill="#D1D1D3"/>
<path d="M503.838 191.373C503.838 191.373 501.973 195.023 501.973 198.466C501.973 201.908 504.916 211.075 497.165 211.489C489.413 211.863 463.921 228.702 457.247 233.679C450.574 238.657 452.439 249.358 452.439 249.358C452.439 249.358 466.118 387.973 468.356 390.295C470.595 392.576 502.471 359.603 514.367 361.013C526.305 362.464 522.491 365.119 527.3 364.746C532.108 364.372 533.973 360.556 535.424 360.722C536.916 360.93 541.891 361.884 544.295 363.584C546.699 365.326 555.943 362.63 562.243 368.354C568.544 374.078 593.663 393.24 593.663 393.24C593.663 393.24 596.979 366.073 591.425 357.653C585.87 349.233 593.663 274.99 591.425 272.294C589.186 269.598 587.363 224.845 587.363 224.845C587.363 224.845 563.984 212.319 556.481 212.029C548.979 211.738 550.927 193.655 550.927 193.655L503.838 191.373Z" fill="#1A1A1A"/>
<path d="M524.689 173.041C522.948 173.041 521.165 172.709 519.383 172.087C519.176 172.004 519.051 171.755 519.134 171.548C519.217 171.34 519.466 171.216 519.673 171.299C524.896 173.207 530.45 172.045 533.186 168.437C533.31 168.271 533.601 168.229 533.766 168.354C533.932 168.478 533.974 168.769 533.849 168.935C531.86 171.589 528.419 173.041 524.689 173.041Z" fill="#1A1A1A"/>
<path d="M556.896 172.667C556.813 172.667 556.73 172.667 556.647 172.667C554.533 172.584 552.71 171.506 551.673 169.681C551.59 169.515 551.632 169.349 551.798 169.266C551.963 169.183 552.129 169.225 552.212 169.391C553.166 171.008 554.782 172.004 556.689 172.045C558.679 172.128 560.585 171.174 561.704 169.598C563.362 167.151 563.653 163.584 562.326 161.054C561.414 159.312 559.881 158.358 558.015 158.358C557.849 158.358 557.725 158.234 557.725 158.026C557.725 157.819 557.85 157.694 558.057 157.694C560.171 157.694 561.912 158.773 562.948 160.722C564.357 163.46 564.109 167.317 562.285 169.93C561 171.63 558.969 172.667 556.896 172.667Z" fill="#1A1A1A"/>
<path d="M492.439 172.667C490.325 172.667 488.336 171.631 487.134 169.93C485.559 167.649 485.434 164.497 486.802 161.842C488.004 159.519 490.201 158.109 492.647 158.109C492.813 158.109 492.978 158.234 492.978 158.441C492.978 158.607 492.854 158.773 492.688 158.773C490.45 158.773 488.543 160.017 487.382 162.174C486.097 164.621 486.222 167.524 487.673 169.598C488.792 171.216 490.699 172.17 492.688 172.045C494.595 171.962 496.212 171.008 497.165 169.391C497.248 169.225 497.455 169.183 497.579 169.266C497.745 169.349 497.787 169.557 497.704 169.681C496.667 171.506 494.844 172.584 492.73 172.667C492.605 172.667 492.522 172.667 492.439 172.667Z" fill="#1A1A1A"/>
<path d="M524.937 155.952H524.44C522.782 155.952 521.455 154.583 521.455 152.841V143.841C521.455 143.551 521.663 143.343 521.953 143.343C522.243 143.343 522.45 143.592 522.45 143.841V152.344C522.45 153.754 523.569 154.915 524.937 154.915C525.227 154.915 525.435 155.164 525.435 155.413C525.435 155.745 525.186 155.952 524.937 155.952Z" fill="#1A1A1A"/>
<path d="M509.269 382.788L491.362 371.921L492.605 368.271C493.517 366.985 494.512 365.534 493.352 364.414C492.149 363.294 490.243 363.045 488.709 363.792L468.73 373.954L454.595 385.526C463.797 394.609 470.553 395.273 474.699 394.236C475.113 394.443 475.569 394.609 475.984 394.816L491.32 400.747C492.688 401.494 494.512 401.121 495.424 399.959C496.087 399.088 496.502 397.637 493.642 395.895L496.502 397.637C497.953 398.425 499.859 398.01 500.813 396.766C501.683 395.646 501.061 393.945 499.445 392.701L501.683 393.779C503.3 394.609 505.414 394.111 506.284 392.618C507.03 391.291 506.45 389.673 505.082 388.844L501.932 386.936L505.621 387.35C507.404 388.139 509.808 388.429 510.678 386.811C511.383 385.36 510.72 383.701 509.269 382.788Z" fill="#F8BD8C"/>
<path d="M457.247 233.638C457.247 233.638 418.2 270.635 414.594 276.193C411.154 281.461 408.874 282.705 406.47 284.571C404.066 286.438 404.812 287.972 396.687 301.411C390.635 311.448 386.988 328.122 391.174 339.611C395.485 351.515 406.967 359.644 417.62 365.451C429.144 371.755 431.382 373.788 440.584 379.387C449.786 384.986 452.232 386.065 457.247 391.457C460.232 394.65 467.403 396.185 471.714 397.595C473.621 398.217 475.942 396.102 476.481 394.111L484.812 365.741C484.812 365.741 477.6 347.906 463.175 340.648C454.926 336.5 445.31 332.186 440.626 328.039C436.812 324.679 450.615 317.504 453.517 315.015C455.88 312.983 464.999 304.77 466.657 304.19C468.273 303.609 473.165 280.216 473.165 279.843C473.165 279.47 457.247 233.638 457.247 233.638Z" fill="#1A1A1A"/>
<path d="M525.144 455.082C524.647 455.082 524.315 454.667 524.315 454.211C524.357 452.344 525.559 408.545 526.72 403.443C528.046 397.637 538.533 386.728 538.989 386.272C539.321 385.94 539.818 385.94 540.15 386.231C540.481 386.562 540.481 387.06 540.15 387.392C540.025 387.516 529.538 398.466 528.295 403.817C527.176 408.752 525.932 453.796 525.932 454.252C525.973 454.75 525.6 455.082 525.144 455.082Z" fill="#999999"/>
<path d="M459.486 311.116C459.237 311.116 458.988 310.992 458.823 310.785C458.533 310.411 458.615 309.914 458.947 309.623C463.838 305.766 468.191 301.038 471.838 295.646C472.46 294.733 473.082 293.613 473.704 292.452C475.196 289.714 476.771 286.894 479.092 285.484C479.465 285.235 480.004 285.359 480.253 285.774C480.502 286.148 480.377 286.687 479.963 286.936C478.015 288.138 476.564 290.751 475.154 293.323C474.491 294.526 473.869 295.646 473.206 296.641C469.434 302.199 464.957 307.052 459.942 310.992C459.817 311.075 459.652 311.116 459.486 311.116Z" fill="#333333"/>
<path d="M484.688 355.953C484.398 355.953 484.066 355.787 483.942 355.496C483.901 355.455 481.413 350.395 475.9 348.031C469.931 345.501 468.232 343.8 468.149 343.717C467.817 343.385 467.817 342.888 468.149 342.556C468.481 342.224 468.978 342.224 469.31 342.556C469.31 342.556 470.968 344.132 476.522 346.496C482.616 349.109 485.268 354.542 485.393 354.75C485.6 355.165 485.434 355.662 485.02 355.87C484.937 355.911 484.812 355.953 484.688 355.953Z" fill="#333333"/>
<path d="M587.363 374.741C587.28 374.741 587.238 374.741 587.155 374.7C586.699 374.576 586.451 374.161 586.534 373.705C586.534 373.663 587.528 369.35 586.202 361.427L585.912 359.727C585.166 355.496 585.166 355.33 585.622 353.091C585.829 352.22 586.078 351.017 586.409 348.943C587.57 341.602 580.896 315.845 580.855 315.596C580.73 315.14 581.02 314.683 581.435 314.6C581.891 314.476 582.347 314.766 582.43 315.181C582.72 316.259 589.228 341.519 588.026 349.192C587.694 351.307 587.445 352.51 587.238 353.422C586.824 355.33 586.824 355.33 587.528 359.437L587.818 361.137C589.228 369.432 588.192 373.912 588.15 374.078C588.067 374.493 587.736 374.741 587.363 374.741Z" fill="#333333"/>
</g>
<defs>
<clipPath id="clip0_169_13020">
<rect width="1178" height="482" fill="white"/>
</clipPath>
</defs>
</svg>
