<svg width="691" height="680" viewBox="0 0 691 680" fill="none" xmlns="http://www.w3.org/2000/svg">
<g clip-path="url(#clip0_169_12781)">
<path d="M300.638 652.131H240.942L214.69 384.41L175.312 655.188H108.784L142.048 334.426C142.048 334.426 209.116 352.226 278.881 331.19L279.78 345.214L281.399 369.667L300.638 652.131Z" fill="#5F52E2"/>
<path d="M349.725 676.943H246.696V652.131H296.682C296.862 652.131 349.186 658.424 349.725 676.943Z" fill="#2F2D3A"/>
<path d="M118.313 655.188H168.3V680H65.4499C65.9893 661.301 118.313 655.188 118.313 655.188Z" fill="#2F2D3A"/>
<path d="M257.844 352.226C245.977 358.699 233.929 365.172 222.062 371.465C221.163 371.824 221.882 373.263 222.781 372.723C234.649 366.251 246.696 359.778 258.563 353.485C259.462 353.125 258.743 351.867 257.844 352.226Z" fill="#2F2D3A"/>
<path d="M250.831 368.947C243.279 370.925 235.728 372.723 228.176 374.701C227.277 374.881 227.636 376.319 228.535 376.139C236.087 374.162 243.639 372.364 251.191 370.386C252.09 370.206 251.73 368.768 250.831 368.947Z" fill="#2F2D3A"/>
<path d="M178.369 346.293C174.953 356.002 168.12 364.453 159.489 369.847L162.726 341.258C162.906 340.359 161.287 340.359 161.287 341.258C156.792 381.354 152.297 421.629 147.622 461.724C143.127 501.639 138.632 541.555 134.136 581.65C131.619 604.304 129.102 626.959 126.405 649.614C126.225 650.513 127.843 650.513 127.843 649.614L141.508 529.148C146.004 489.233 150.499 449.318 154.994 409.223L159.309 371.645C168.839 366.071 176.211 357.081 179.807 346.652C179.987 345.753 178.729 345.394 178.369 346.293Z" fill="#2F2D3A"/>
<path d="M238.065 34.7011C235.548 35.9597 232.671 36.3193 229.794 36.1395C226.737 35.9597 223.68 34.8809 221.163 33.4425C222.422 39.0162 218.106 44.4102 212.892 46.5678C207.678 48.5456 201.744 48.186 196.17 47.6466C190.776 47.1072 185.022 46.7476 180.167 48.9052C178.729 56.277 177.47 63.8285 176.031 71.2003C174.233 69.2225 170.817 69.2225 168.659 71.0205C168.48 71.2003 168.3 71.2003 168.3 71.3801L167.94 71.0205C162.906 65.0871 158.77 58.4345 157.511 50.883C156.073 43.3314 157.871 34.8809 163.445 29.6667C168.839 24.2727 178.369 22.8343 184.482 27.5091C185.381 21.2161 188.079 14.9232 192.574 10.4282C197.249 5.93322 203.902 3.41603 210.195 4.49482C216.488 5.57362 222.062 10.7878 223.141 17.0808C226.198 13.305 230.154 10.0686 235.008 9.8888C240.942 9.709 246.336 14.7434 247.055 20.6767C247.055 26.4303 243.459 32.3637 238.065 34.7011Z" fill="#2F2D3A"/>
<path d="M215.769 143.3C199.946 143.659 187 116.51 187 116.51L188.798 106.261C192.754 110.756 197.968 113.993 203.722 115.611C212.353 117.948 222.242 115.97 229.255 110.397L230.333 116.51L231.232 121.904C231.412 121.904 231.772 142.94 215.769 143.3Z" fill="#F482BC"/>
<path d="M240.762 83.4268C240.403 91.3379 238.604 99.4289 233.93 105.722C232.671 107.52 231.053 108.958 229.434 110.397C222.422 115.97 212.712 117.948 203.902 115.611C198.148 113.993 192.933 110.756 188.978 106.261C186.101 103.205 183.943 99.6087 182.325 95.6531C178.009 95.8329 173.694 94.2147 170.457 91.3379C167.041 88.1015 165.063 83.4268 165.243 78.5722C165.423 75.8752 166.142 73.1782 168.12 71.3802C168.3 71.2004 168.3 71.2004 168.48 71.0206C170.637 69.4024 174.054 69.2226 175.852 71.2004C177.29 63.8287 178.549 56.2771 179.987 48.9053C185.022 46.9276 190.596 47.2872 195.99 47.6468C201.564 48.1861 207.498 48.7255 212.712 46.568C217.927 44.5902 222.242 39.0164 220.983 33.4426C223.68 35.0608 226.557 35.9598 229.614 36.1396C237.705 50.5235 241.661 67.065 240.762 83.4268Z" fill="#FFA4D2"/>
<path d="M178.009 89.7195C176.211 90.0791 174.054 89.0003 173.514 87.2023C172.975 85.4043 173.874 83.2468 175.672 82.5276C176.031 82.3478 176.391 81.9882 176.211 81.6286C175.672 80.0104 174.953 78.572 174.054 77.1336C173.334 76.0548 172.615 74.6164 171.177 74.4366C169.918 74.2568 168.839 75.1558 168.12 76.2346C167.401 77.673 167.76 79.2912 168.3 80.9094C168.48 81.8084 169.918 81.4488 169.738 80.5498C169.379 79.471 169.019 78.2124 169.379 77.1336C169.738 76.2346 170.637 75.5154 171.536 76.2346C172.256 76.774 172.795 77.8528 173.155 78.7518C173.694 79.6508 174.054 80.5498 174.413 81.4488C172.435 82.7073 171.177 85.2245 171.896 87.5619C172.795 90.0791 175.672 91.6973 178.189 90.9781C179.268 90.9781 178.908 89.5397 178.009 89.7195Z" fill="#2F2D3A"/>
<path d="M226.018 82.168C225.119 84.5054 222.422 85.2245 220.264 85.9437C217.567 86.6629 214.87 86.8427 212.173 86.6629C211.813 86.6629 211.454 86.3033 211.454 85.9437C210.734 78.3922 210.195 70.6608 210.015 63.1093C210.015 62.3901 210.914 62.2103 211.454 62.7497C214.33 66.5254 216.848 70.481 219.005 74.7962C220.804 75.3356 222.422 76.0548 223.86 77.1336C225.658 78.2124 227.097 80.0104 226.018 82.168Z" fill="#E089B5"/>
<path d="M192.754 94.5741C196.527 94.5741 199.586 91.5152 199.586 87.7418C199.586 83.9684 196.527 80.9094 192.754 80.9094C188.98 80.9094 185.921 83.9684 185.921 87.7418C185.921 91.5152 188.98 94.5741 192.754 94.5741Z" fill="#E089B5"/>
<path d="M197.069 74.9762C199.452 74.9762 201.384 72.5612 201.384 69.5822C201.384 66.6032 199.452 64.1882 197.069 64.1882C194.686 64.1882 192.754 66.6032 192.754 69.5822C192.754 72.5612 194.686 74.9762 197.069 74.9762Z" fill="#2F2D3A"/>
<path d="M226.018 69.5821C228.401 69.5821 230.333 67.1672 230.333 64.1882C230.333 61.2092 228.401 58.7942 226.018 58.7942C223.635 58.7942 221.703 61.2092 221.703 64.1882C221.703 67.1672 223.635 69.5821 226.018 69.5821Z" fill="#2F2D3A"/>
<path d="M212.925 99.7412C214.315 97.106 213.732 94.0687 211.624 92.9571C209.516 91.8456 206.68 93.0808 205.291 95.716C203.901 98.3513 204.484 101.389 206.592 102.5C208.7 103.612 211.536 102.376 212.925 99.7412Z" fill="#2F2D3A"/>
<path d="M198.867 56.8165C198.328 56.2771 197.608 55.9175 196.709 55.9175C195.99 55.9175 195.271 56.2771 194.552 56.8165C194.372 56.9963 194.012 57.1761 193.832 57.3559C192.394 58.4347 190.956 59.3337 189.337 59.8731C188.798 60.0529 188.079 60.9519 188.079 61.671C187.899 62.3902 187.899 63.2892 188.438 64.0084C188.798 64.5478 189.517 65.267 190.236 65.267C190.416 65.267 190.776 65.267 190.956 65.4468C191.495 65.4468 192.034 65.267 192.394 65.0872C194.731 64.0084 196.889 62.7498 198.687 60.9519C199.227 60.4125 199.586 59.5135 199.586 58.7943C199.766 58.0751 199.406 57.1761 198.867 56.8165Z" fill="#2F2D3A"/>
<path d="M231.592 50.3435C228.355 48.1859 224.22 47.6465 220.444 48.3657C219.005 48.7253 217.927 50.5233 218.466 51.9617C219.005 53.5799 220.444 54.2991 222.062 53.9395C222.242 53.9395 222.242 53.9395 222.422 53.9395C223.141 53.9395 224.04 53.9395 224.759 53.9395C225.479 54.1193 226.378 54.2991 227.097 54.4789C227.636 54.6587 228.176 55.0183 228.535 55.3779C229.794 56.2769 231.772 55.7375 232.491 54.2991C233.39 52.8607 233.03 51.2425 231.592 50.3435Z" fill="#2F2D3A"/>
<path d="M210.734 1.97769C207.678 -0.539501 203.362 -0.359702 199.766 0.719092C192.574 2.69688 186.46 8.09085 183.943 15.2828C182.325 19.598 182.145 24.2728 183.224 28.7677C183.404 29.6667 184.842 29.3071 184.662 28.4081C182.864 21.396 184.842 13.6646 189.877 8.27065C192.214 5.93326 195.091 3.95547 198.328 2.87668C201.564 1.79789 205.52 0.898891 208.756 2.51708C212.712 4.67467 213.431 9.70904 213.971 13.6646C214.151 14.5636 215.589 14.204 215.409 13.305C214.87 9.16965 214.151 4.67467 210.734 1.97769Z" fill="#2F2D3A"/>
<path d="M248.854 12.5858C245.977 7.91098 240.582 5.93319 235.188 6.65238C228.715 7.73118 223.68 12.5858 220.444 17.9797C219.905 18.6989 221.163 19.5979 221.703 18.6989C224.4 14.3837 228.176 10.2484 233.21 8.63017C238.065 7.01198 243.459 7.91098 246.876 11.8666C249.753 15.2827 250.472 20.3171 249.033 24.4525C247.415 28.9475 243.639 32.3636 239.324 34.1616C233.39 36.499 226.737 35.4202 221.163 32.903C220.444 32.5434 219.725 33.4424 220.264 33.9818C222.242 36.499 222.062 39.9152 220.804 42.6122C219.365 45.6688 216.488 47.6466 213.252 48.5456C205.52 50.7031 197.788 47.6466 190.236 46.7476C186.101 46.2082 181.785 46.5678 178.009 48.3658C177.11 48.7254 177.83 49.984 178.729 49.6244C186.82 45.8486 195.81 49.6244 204.081 50.7032C210.914 51.4223 219.365 49.984 222.242 42.9718C223.321 40.4546 223.501 37.5778 222.422 35.0606C227.456 37.0384 233.03 37.5778 238.245 36.1394C243.1 34.701 247.595 31.2849 249.753 26.6101C251.73 22.1151 251.551 16.9009 248.854 12.5858Z" fill="#2F2D3A"/>
<path d="M180.706 8.45043C178.729 13.305 178.369 18.699 179.628 23.7333C179.807 24.6323 181.246 24.2727 181.066 23.3737C179.807 18.5192 180.167 13.4848 182.145 8.81002C182.505 7.91103 181.066 7.55143 180.706 8.45043Z" fill="#2F2D3A"/>
<path d="M178.009 21.9355C176.031 19.9577 174.773 17.4405 174.233 14.7435C174.233 14.3839 173.694 14.2041 173.334 14.2041C172.975 14.3839 172.795 14.7435 172.795 15.1031C173.334 18.1597 174.773 20.8567 176.931 23.0143C177.65 23.5537 178.729 22.6547 178.009 21.9355Z" fill="#2F2D3A"/>
<path d="M71.0239 140.063L55.0211 161.1C38.8384 149.413 22.6557 137.726 6.65288 126.219C3.05673 120.465 0.899037 113.993 0.179807 107.34C-5.21541e-08 106.261 -5.21541e-08 105.003 0.359615 103.924C0.71923 102.845 1.43846 101.946 2.5173 101.586C3.41634 101.407 4.31538 101.766 5.21442 102.306C5.93365 102.845 6.47307 103.564 7.01249 104.463C10.249 109.318 12.2269 114.892 12.9461 120.645C12.5865 114.172 13.4856 107.52 15.6432 101.407C15.8231 100.687 16.1827 99.9683 16.7221 99.4289C17.2615 98.8895 17.9807 98.3501 18.7 98.3501C19.599 98.3501 20.3182 99.0693 20.6779 99.7885C21.0375 100.508 21.2173 101.407 21.2173 102.306C21.9365 108.059 21.7567 113.993 20.8577 119.746C23.1952 113.453 25.5327 106.98 29.6682 101.586C30.2077 100.867 30.7471 100.148 31.4663 99.7885C32.1855 99.4289 33.2644 99.2491 33.9836 99.7885C34.8826 100.508 34.8826 101.766 34.7028 102.845C34.1634 108.958 32.5451 114.892 30.0278 120.286C35.6019 119.027 41.7153 120.286 46.3903 123.342C49.6269 121.724 53.4028 121.544 56.8192 122.623C60.5951 123.702 63.8317 126.219 66.349 129.096C68.6864 132.332 70.3047 136.108 71.0239 140.063Z" fill="#FFA4D2"/>
<path d="M318.259 376.14C317.54 379.376 316.101 382.253 313.764 384.59C311.606 386.748 308.729 388.186 305.673 389.085C302.616 389.984 299.559 390.164 296.502 390.524C295.424 390.703 293.985 390.524 293.626 389.445C293.266 388.366 294.345 387.467 295.424 386.928C297.941 385.489 300.458 384.051 302.976 382.433C298.48 383.152 293.985 383.332 289.67 382.433C288.771 382.253 287.872 382.073 286.973 381.534C286.253 380.994 285.534 380.095 285.714 379.196C285.894 377.758 287.512 376.859 288.951 376.499C291.468 375.78 293.985 374.881 296.502 374.162C292.547 374.701 288.231 373.982 284.635 372.184C283.556 371.645 282.298 370.566 282.298 369.487C282.298 369.307 282.298 369.127 282.478 368.948C283.017 367.869 284.276 367.689 285.534 367.509C288.231 367.33 290.928 367.15 293.626 366.97V366.79C289.13 365.352 285.354 361.756 283.736 357.441C282.118 353.305 282.298 348.451 284.276 344.315L310.168 338.741C315.202 347.192 318.079 356.901 318.799 366.61C318.978 369.847 318.978 373.083 318.259 376.14Z" fill="#FFA4D2"/>
<path d="M316.281 337.303L309.988 338.562L284.096 344.135L279.78 345.034L278.881 331.01C208.936 352.226 142.048 334.426 142.048 334.426L148.161 236.975C148.161 236.975 139.171 252.438 113.279 247.583C87.5662 242.729 49.9865 167.752 49.9865 167.752L55.0211 161.1L71.0239 140.063L73.5412 136.827L112.38 183.395C112.38 183.395 125.506 137.546 142.947 124.601C160.388 111.655 187.18 116.33 187.18 116.33C187.18 116.33 200.126 143.48 215.949 143.12C231.772 142.76 231.412 121.724 231.412 121.724L230.513 116.33C230.513 116.33 267.374 114.172 279.061 132.692C290.389 151.571 316.281 337.303 316.281 337.303Z" fill="#FFAA45"/>
<path d="M122.808 198.678C120.291 194.543 117.774 190.407 115.077 186.272C114.537 185.553 113.279 186.272 113.818 186.991C116.335 191.126 118.853 195.262 121.55 199.397C121.909 200.296 123.168 199.577 122.808 198.678Z" fill="#2F2D3A"/>
<path d="M124.607 192.385C122.269 190.048 119.752 187.53 117.414 185.193C116.695 184.474 115.796 185.553 116.335 186.272C118.673 188.609 121.19 191.126 123.528 193.464C124.247 194.003 125.326 193.104 124.607 192.385Z" fill="#2F2D3A"/>
<path d="M154.095 169.191C152.117 186.452 149.959 203.712 147.982 220.793C147.442 225.648 146.723 230.502 146.183 235.537C146.004 236.436 147.622 236.436 147.622 235.537C149.6 218.276 151.757 201.015 153.735 183.934C154.275 179.08 154.994 174.225 155.533 169.191C155.713 168.292 154.275 168.292 154.095 169.191Z" fill="#2F2D3A"/>
<path d="M276.364 263.945C274.566 241.83 272.588 219.894 270.79 197.779L267.733 160.56C267.733 159.661 266.115 159.661 266.295 160.56L271.869 227.086C273.667 249.201 275.645 271.137 277.443 293.252L280.5 330.471C280.5 331.37 282.118 331.37 281.938 330.471C279.96 308.175 278.162 286.06 276.364 263.945Z" fill="#2F2D3A"/>
<path d="M305.493 370.026C305.313 368.768 304.774 367.689 304.234 366.43C303.695 365.172 302.976 363.913 302.256 362.655C300.818 360.137 299.02 357.98 297.042 356.002C296.323 355.283 295.424 356.362 295.963 357.081C299.2 360.317 301.717 364.453 303.335 368.768C303.695 369.487 304.054 370.566 303.695 371.465C303.155 372.723 301.357 371.645 300.638 371.285C298.48 370.206 296.323 368.768 294.525 367.15C293.805 366.43 292.727 367.509 293.446 368.228C295.603 370.206 298.121 372.004 300.818 373.083C301.897 373.622 303.335 373.982 304.234 373.083C305.673 372.184 305.673 371.105 305.493 370.026Z" fill="#2F2D3A"/>
<path d="M277.263 34.3414C272.049 32.1838 265.216 34.1616 262.519 39.3758C260.901 42.4324 265.576 45.1294 267.194 42.0728C269.172 38.297 274.386 37.9374 277.443 40.8142C281.219 44.4102 281.039 50.3435 278.881 54.8385C276.184 60.2325 271.509 64.0083 266.834 67.6042C261.979 71.2002 257.304 74.976 253.708 79.8306C251.73 82.7074 256.405 85.4044 258.383 82.5276C266.834 70.8406 284.635 65.8063 285.894 49.4445C286.074 43.1516 283.017 36.6788 277.263 34.3414Z" fill="#2F2D3A"/>
<path d="M253.708 87.0227C253.529 86.6631 253.349 86.4833 253.169 86.1237C252.989 85.9439 252.629 85.7641 252.27 85.5843C251.91 85.4045 251.551 85.4045 251.191 85.4045C251.011 85.4045 250.652 85.4045 250.472 85.5843C249.932 85.7641 249.573 85.9439 249.213 86.3035C249.033 86.4833 248.854 86.6631 248.854 86.8429C248.674 87.2025 248.494 87.7419 248.494 88.2813V88.4611C248.494 88.8207 248.494 89.1803 248.674 89.5399C248.854 89.8995 249.033 90.0793 249.213 90.4389C249.393 90.6187 249.753 90.7985 250.112 90.9783C250.472 91.1581 250.831 91.1581 251.191 91.1581C251.371 91.1581 251.73 91.1581 251.91 90.9783C252.45 90.7985 252.809 90.6187 253.169 90.2591L253.529 89.7197C253.708 89.3601 253.888 88.8207 253.888 88.2813V88.1015C254.068 87.7419 253.888 87.3823 253.708 87.0227Z" fill="#2F2D3A"/>
<path d="M291.288 82.5276C290.389 78.7519 286.793 75.8751 282.837 76.0549C278.702 76.4145 275.645 79.8306 275.285 83.966C275.105 85.4044 276.544 86.663 277.982 86.663C279.601 86.663 280.5 85.4044 280.679 83.966C280.859 82.168 282.837 80.9094 284.455 81.6286C286.793 82.5276 286.253 85.764 286.074 87.7418C285.354 94.2146 283.916 100.687 281.938 106.98C280.859 110.217 286.074 111.655 287.152 108.419C288.591 104.104 289.67 99.6085 290.389 95.2934C291.108 91.3378 292.187 86.663 291.288 82.5276Z" fill="#2F2D3A"/>
<path d="M283.916 112.554C280.5 112.554 280.5 117.948 283.916 117.948C287.332 117.948 287.332 112.554 283.916 112.554Z" fill="#2F2D3A"/>
<path d="M580.059 620.486L578.62 646.198H550.391L546.794 620.486H580.059Z" fill="#FFA4D2"/>
<path d="M445.922 620.486L439.449 646.198H411.22L412.838 620.486H445.922Z" fill="#FFA4D2"/>
<path d="M511.013 331.549C556.144 330.83 575.743 318.244 582.756 311.771C585.093 318.784 587.071 325.436 588.15 331.19C593.904 359.958 584.015 620.486 584.015 620.486H579.879H546.794H539.782L514.249 366.251L507.596 368.948L452.935 620.486H445.922H412.838H408.702C408.702 620.486 428.122 359.958 433.875 331.19C434.954 325.436 436.932 318.604 439.27 311.771C446.462 318.244 465.881 330.83 511.013 331.549Z" fill="#2F2D3A"/>
<path d="M578.62 646.198C578.62 646.198 617.459 652.671 617.459 676.943H547.693L550.391 646.198H578.62Z" fill="#FFAA45"/>
<path d="M439.449 646.198L442.146 676.943H372.381C372.381 652.671 411.22 646.198 411.22 646.198H439.449Z" fill="#FFAA45"/>
<path d="M662.95 204.252C667.265 203.533 671.581 201.555 675.177 199.038C677.155 197.599 678.953 195.981 681.29 195.442C683.088 195.082 684.887 195.442 686.505 196.161C688.123 196.7 689.562 197.419 690.461 198.858C691.36 200.476 691.18 202.454 690.64 204.072C689.382 208.207 686.145 211.624 682.369 213.781C678.593 215.939 674.278 217.197 670.142 218.096C660.792 220.254 651.083 221.333 641.553 221.333L625.55 197.24C626.269 195.981 627.168 195.082 628.427 194.183C630.225 192.925 632.203 192.205 634.181 191.666C642.272 189.688 651.083 191.486 657.915 196.341C661.332 193.284 665.827 191.486 670.502 191.306C672.12 191.306 673.918 191.486 674.638 192.925C674.997 193.824 674.817 194.722 674.458 195.621C674.098 196.341 673.379 197.06 672.66 197.779C669.603 200.116 666.366 202.454 662.95 204.252Z" fill="#FFA4D2"/>
<path d="M364.47 196.161C371.123 191.306 380.113 189.508 388.204 191.486C390.182 192.025 392.34 192.745 393.958 194.003C395.037 194.722 396.116 195.801 396.835 197.06L380.832 221.153C371.123 221.153 361.593 220.074 352.243 217.916C347.927 217.017 343.792 215.759 340.016 213.601C336.24 211.444 333.003 208.027 331.745 203.892C331.205 202.094 331.026 200.116 331.925 198.678C332.824 197.24 334.442 196.52 335.88 195.981C337.499 195.442 339.297 194.902 341.095 195.262C343.432 195.621 345.23 197.419 347.208 198.858C350.804 201.555 354.94 203.353 359.435 204.072C356.019 202.274 352.782 199.937 349.905 197.419C349.186 196.88 348.647 196.161 348.107 195.262C347.748 194.543 347.568 193.464 347.927 192.565C348.647 191.126 350.445 190.767 352.063 190.947C356.558 191.486 361.053 193.284 364.47 196.161Z" fill="#FFA4D2"/>
<path d="M464.083 252.078C464.263 252.078 464.263 252.078 464.083 252.078C464.263 252.078 464.263 252.078 464.083 252.078ZM496.448 137.546C497.527 143.12 501.303 156.425 514.249 156.425C530.612 156.425 541.041 133.771 541.041 133.771C541.041 133.771 552.728 125.68 565.854 138.086C567.652 139.704 569.27 141.682 571.068 144.019C586.172 164.336 591.387 221.512 591.387 221.512L623.213 194.363L625.191 197.24L641.193 221.333L642.632 223.49C642.632 223.49 607.749 257.472 588.869 266.822C571.428 275.452 559.561 255.494 557.943 252.438C559.741 256.214 573.945 286.06 582.576 311.772C575.564 318.244 555.965 330.83 510.833 331.549C465.701 330.83 446.102 318.244 439.09 311.772C447.721 286.06 461.925 256.214 463.723 252.438C461.925 255.674 450.058 275.452 432.797 266.822C413.917 257.472 379.034 223.49 379.034 223.49L380.473 221.333L396.475 197.24L398.453 194.363L430.279 221.512C430.279 221.512 435.673 164.516 450.597 144.019C452.036 142.041 453.654 140.243 455.452 138.805C471.275 125.68 495.729 135.209 495.729 135.209C495.729 135.209 496.269 136.108 496.448 137.546Z" fill="#533BC7"/>
<path d="M457.25 191.666C456.351 186.811 455.272 181.957 454.373 176.922C454.194 176.023 452.755 176.383 452.935 177.282C456.351 194.722 459.588 212.163 463.004 229.603L465.881 244.347C466.061 245.246 467.499 244.886 467.32 243.987C463.903 226.547 460.667 209.106 457.25 191.666Z" fill="#2F2D3A"/>
<path d="M571.968 182.856C566.753 196.88 561.539 210.904 556.144 224.929L551.829 236.256C551.469 236.436 551.29 236.616 551.469 237.155C553.447 242.729 555.425 248.303 557.403 253.876C557.763 254.775 559.201 254.416 558.842 253.517C556.864 248.123 555.066 242.729 553.088 237.335C558.302 223.31 563.517 209.286 568.731 195.262L573.226 183.215C573.586 182.316 572.327 181.957 571.968 182.856Z" fill="#2F2D3A"/>
<path d="M465.881 243.987C464.982 247.044 463.903 250.1 463.004 253.157C462.645 254.056 464.083 254.416 464.443 253.517C465.342 250.46 466.421 247.403 467.32 244.347C467.499 243.448 466.061 243.088 465.881 243.987Z" fill="#2F2D3A"/>
<path d="M502.022 205.87C498.067 210.005 492.493 212.702 486.739 213.062C481.165 213.601 475.411 211.983 470.736 208.747C468.219 206.949 465.881 204.611 464.263 201.914C463.723 201.195 462.465 201.914 463.004 202.634C466.241 207.668 471.096 211.444 476.67 213.421C482.423 215.399 488.896 215.04 494.471 212.702C497.707 211.444 500.584 209.466 502.921 206.949C503.641 206.23 502.562 205.151 502.022 205.87Z" fill="#2F2D3A"/>
<path d="M552.908 209.466C547.334 213.242 540.681 215.04 534.028 214.5C527.555 213.961 521.262 211.084 516.587 206.769C515.868 206.05 514.789 207.129 515.508 207.848C523.419 215.219 534.927 217.916 545.356 214.86C548.413 213.961 551.11 212.522 553.807 210.904C554.526 210.185 553.807 208.927 552.908 209.466Z" fill="#2F2D3A"/>
<path d="M440.888 235.537L433.336 222.411C432.797 221.512 431.538 222.411 432.077 223.131L439.629 236.256C440.169 237.155 441.427 236.436 440.888 235.537Z" fill="#2F2D3A"/>
<path d="M443.046 227.446C441.068 225.828 439.09 224.03 437.112 222.411C436.752 222.232 436.393 222.052 436.033 222.411C435.853 222.591 435.673 223.131 436.033 223.49C438.011 225.108 439.989 226.906 441.967 228.525C442.326 228.704 442.686 228.884 443.046 228.525C443.405 228.165 443.405 227.626 443.046 227.446Z" fill="#2F2D3A"/>
<path d="M588.69 225.648C585.273 229.963 581.857 234.098 578.441 238.414C577.901 239.133 578.8 240.212 579.519 239.492C582.936 235.177 586.352 231.042 589.768 226.727C590.308 226.007 589.229 224.929 588.69 225.648Z" fill="#2F2D3A"/>
<path d="M587.251 223.131C587.071 222.771 586.532 222.591 586.172 222.951C583.835 224.749 581.497 226.547 578.98 228.345C578.62 228.525 578.441 229.064 578.8 229.424C578.98 229.783 579.519 229.963 579.879 229.603C582.216 227.805 584.554 226.007 587.071 224.209C587.251 223.85 587.431 223.49 587.251 223.131Z" fill="#2F2D3A"/>
<path d="M531.691 103.744C534.927 113.813 537.984 123.702 541.22 133.77C541.22 133.77 530.792 156.425 514.429 156.425C501.483 156.425 497.707 143.12 496.628 137.546C497.347 133.411 497.887 129.275 498.606 124.96C504.54 126.578 510.833 126.399 516.587 124.061C524.139 120.825 529.533 113.633 531.511 105.722C531.331 105.182 531.511 104.463 531.691 103.744Z" fill="#F482BC"/>
<path d="M528.994 84.8651C531.691 90.7985 532.59 97.2713 531.691 103.564C531.691 104.283 531.511 105.003 531.331 105.542C529.353 113.453 523.959 120.645 516.407 123.882C510.833 126.219 504.36 126.399 498.426 124.781C496.628 124.241 495.01 123.702 493.392 122.983C486.199 119.746 480.266 114.172 475.771 107.879C471.275 101.766 467.859 95.1137 464.622 88.2813C465.342 88.1015 466.241 87.3823 466.78 86.6631C470.736 81.449 472.174 74.6166 471.096 68.3236C478.108 70.3014 486.02 68.5034 491.414 63.6489C496.808 58.7943 499.685 51.2427 498.786 44.0508L499.145 43.6912C506.158 50.3437 512.451 57.5357 518.025 65.4468C518.025 63.6489 519.104 61.8509 520.543 60.9519C522.88 59.5135 526.117 60.0529 528.454 61.8509C530.612 63.6489 531.87 66.166 532.59 68.863C533.489 74.4368 532.41 80.3702 528.994 84.8651Z" fill="#FFA4D2"/>
<path d="M540.861 88.8207C544.457 85.4046 549.671 83.6066 554.706 84.146C559.201 84.5056 563.696 87.0227 565.315 91.3379C566.753 94.7541 565.854 98.8895 563.696 101.946C561.539 105.003 558.662 107.52 555.425 109.498C559.92 110.037 564.416 111.835 567.652 115.071C570.889 118.308 572.687 122.983 572.327 127.478C571.967 131.793 569.63 135.748 566.034 137.906C552.908 125.68 541.22 133.591 541.22 133.591C537.984 123.522 534.927 113.633 531.691 103.564C532.769 97.2713 531.691 90.6187 528.994 84.8652C532.23 80.3702 533.489 74.4368 532.23 68.863C531.511 66.166 530.252 63.4691 528.094 61.8509C525.937 60.2327 522.7 59.5135 520.183 60.9519C518.565 61.8509 517.666 63.6489 517.666 65.4469C512.092 57.7155 505.798 50.3437 498.786 43.6912L498.426 44.0508C499.505 51.2427 496.628 58.7943 491.054 63.6489C485.66 68.5034 477.748 70.3014 470.736 68.3236C471.995 74.6166 470.376 81.449 466.421 86.6631C465.881 87.3823 465.162 88.1015 464.263 88.2813C467.499 95.1137 470.916 101.946 475.411 107.879C480.086 114.172 486.02 119.746 493.032 122.983C494.65 123.702 496.269 124.241 498.067 124.781C497.347 128.916 496.808 133.231 496.089 137.366C495.729 135.928 495.729 134.849 495.729 134.849C495.729 134.849 471.275 125.5 455.452 138.445L455.272 138.265C450.777 134.31 448.08 128.197 448.44 122.084C448.799 115.97 451.856 110.217 456.711 106.621C458.869 105.003 461.746 103.744 464.443 103.924C461.746 100.148 459.588 95.8329 457.97 91.5177C454.733 93.1359 450.597 93.4955 447.181 92.2369C443.405 90.9783 440.169 87.9217 438.55 84.146C436.752 79.8308 437.292 74.9762 439.27 70.661C442.686 62.9297 451.317 57.5357 459.768 57.8953C457.79 54.8387 455.992 51.6023 454.913 48.1861C453.834 44.77 453.654 40.8144 454.733 37.3982C456.171 32.5436 460.307 28.7678 464.982 26.9699C469.657 25.1719 475.051 25.1719 479.906 26.2507C484.761 27.3295 489.436 29.487 493.931 31.8244C497.168 28.2285 501.663 25.7113 506.518 24.9921C511.732 24.0931 517.306 25.3517 521.801 28.2285C527.375 31.8244 530.971 37.7578 533.668 43.871C540.142 57.8953 542.479 73.5378 540.861 88.8207Z" fill="#2F2D3A"/>
<path d="M529.173 72.2791C528.454 71.2003 527.195 70.4811 525.937 70.6609C525.397 70.8407 524.858 71.0205 524.319 71.3801C523.779 70.1215 523.419 69.0427 523.06 67.7841C522.88 67.0649 522.52 66.1659 522.7 65.4467C522.88 64.5477 524.139 64.5477 524.498 65.4467C524.858 66.3457 526.296 65.9861 525.937 65.0871C525.577 64.0083 524.678 63.2891 523.419 63.4689C522.161 63.6487 521.442 64.5477 521.262 65.8063C521.082 67.0649 521.621 68.5033 522.161 69.7619C522.52 71.2003 523.06 72.4589 523.779 73.8973C524.139 74.6165 525.038 74.2569 525.218 73.5377C525.218 72.6387 526.117 72.2791 526.836 72.4589C527.555 72.6387 528.274 73.5377 528.454 74.2569C528.993 75.8751 528.274 77.4933 527.016 78.3923C526.296 78.9317 527.375 80.0105 528.094 79.4711C530.072 77.4933 530.792 74.4367 529.173 72.2791Z" fill="#2F2D3A"/>
<path d="M514.969 95.4732C518.345 95.4732 521.082 92.7362 521.082 89.36C521.082 85.9838 518.345 83.2468 514.969 83.2468C511.592 83.2468 508.855 85.9838 508.855 89.36C508.855 92.7362 511.592 95.4732 514.969 95.4732Z" fill="#E089B5"/>
<path d="M510.408 82.1876C512.346 80.8009 512.512 77.7126 510.779 75.2897C509.045 72.8669 506.069 72.027 504.13 73.4138C502.192 74.8006 502.026 77.8889 503.759 80.3117C505.493 82.7345 508.47 83.5744 510.408 82.1876Z" fill="#2F2D3A"/>
<path d="M483.609 94.6454C485.548 93.2586 485.714 90.1703 483.98 87.7475C482.247 85.3246 479.27 84.4848 477.331 85.8715C475.393 87.2583 475.227 90.3467 476.961 92.7695C478.694 95.1923 481.671 96.0322 483.609 94.6454Z" fill="#2F2D3A"/>
<path d="M514.096 108.826C515.164 106.696 513.87 103.887 511.207 102.552C508.543 101.217 505.519 101.863 504.451 103.993C503.383 106.124 504.677 108.933 507.34 110.268C510.004 111.602 513.028 110.957 514.096 108.826Z" fill="#2F2D3A"/>
<path d="M498.246 68.5035C498.426 67.7843 498.786 67.0651 499.505 66.5257C500.224 66.1661 500.944 65.9863 501.663 65.9863C502.022 65.9863 502.202 65.9863 502.562 65.9863C504.36 65.9863 505.978 65.8065 507.776 65.4469C508.495 65.2671 509.394 65.6267 509.934 66.1661C510.473 66.7055 511.013 67.4247 511.013 68.1439C511.013 68.8631 510.833 69.7621 510.294 70.3015C510.114 70.4813 509.934 70.6611 509.754 70.8409C509.394 71.2005 508.855 71.3803 508.316 71.3803C505.798 71.9197 503.281 72.0995 500.764 71.7399C500.045 71.7399 499.325 71.2005 498.786 70.4813C498.426 70.1217 498.067 69.2227 498.246 68.5035Z" fill="#2F2D3A"/>
<path d="M467.859 82.3478C469.297 78.7518 472.174 75.875 475.771 74.2569C477.209 73.7175 479.007 74.6165 479.546 76.0548C480.086 77.673 479.367 79.1114 477.748 79.8306C477.569 79.8306 477.569 80.0104 477.389 80.0104C476.67 80.37 475.95 80.9094 475.411 81.4488C474.871 81.9882 474.332 82.7074 473.972 83.2468C473.613 83.7862 473.433 84.3256 473.253 84.865C472.714 86.3034 470.736 87.0226 469.297 86.3034C467.859 85.4044 467.32 83.7862 467.859 82.3478Z" fill="#2F2D3A"/>
<path d="M492.672 84.5056C492.672 84.5056 491.594 94.035 491.234 99.4289C491.054 103.385 502.562 105.003 504.18 96.7319L492.672 84.5056Z" fill="#E089B5"/>
<path d="M498.786 34.881C491.234 26.4304 479.546 21.7556 468.219 22.6546C462.824 23.194 457.43 24.8122 453.474 28.4082C449.159 32.184 447.721 37.9376 449.339 43.5113C451.317 49.8043 456.351 54.1195 461.386 58.075C450.957 58.6144 439.629 61.671 434.595 71.56C432.437 75.8751 432.077 81.0893 434.055 85.5843C436.213 90.4389 440.708 93.1358 445.743 93.6752C452.396 94.3944 458.689 91.1581 464.622 88.2813C465.521 87.9217 464.802 86.6631 463.903 87.0227C459.048 89.5399 453.834 92.0571 448.26 92.2369C443.405 92.4167 438.55 90.6187 436.033 86.1237C433.875 82.1681 433.696 77.3135 435.494 73.1782C437.292 68.863 441.068 65.4468 445.203 63.2892C450.777 60.2326 457.25 59.5134 463.544 59.3336C464.263 59.3336 464.443 58.4346 463.903 57.8952C459.228 54.2993 454.194 50.5235 451.497 44.9497C450.238 42.2527 449.698 39.1961 450.238 36.3194C450.777 33.8022 452.036 31.6446 453.834 29.8466C457.43 26.2506 462.465 24.6324 467.32 24.093C472.534 23.5536 477.928 24.2728 482.963 25.891C488.537 27.8688 493.751 31.285 497.707 35.78C498.246 36.679 499.325 35.6002 498.786 34.881Z" fill="#2F2D3A"/>
<path d="M579.34 113.993C576.643 110.936 572.507 109.498 568.551 108.958C564.775 108.599 560.999 109.138 557.223 110.037C563.157 106.081 568.731 101.047 568.911 93.4955C569.091 89.8996 567.652 86.1238 564.595 83.9662C560.999 81.2692 555.965 81.6288 552.009 82.7076C546.794 84.146 542.119 86.6632 538.164 90.0794C537.444 90.6188 538.523 91.6976 539.243 91.1582C542.479 88.2814 546.435 86.1238 550.57 84.6854C554.346 83.4268 558.842 82.7076 562.618 84.3258C565.854 85.944 567.472 89.1804 567.652 92.7763C567.652 96.5521 566.214 99.9683 563.876 102.665C560.819 106.261 556.684 108.778 552.728 111.116C552.009 111.475 552.548 112.734 553.268 112.374C560.819 110.397 569.99 108.239 576.643 113.273C579.34 115.431 581.318 118.847 581.138 122.263C580.958 125.68 578.441 128.556 575.384 130.175C571.248 132.332 566.393 132.332 561.898 131.793C560.999 131.613 560.999 133.231 561.898 133.231C566.393 133.771 571.068 133.771 575.204 131.973C578.441 130.534 581.497 127.657 582.217 124.061C583.116 120.645 581.857 116.869 579.34 113.993Z" fill="#2F2D3A"/>
<path d="M466.42 103.205C461.206 102.306 455.632 103.564 451.317 106.801C447.001 110.037 444.484 115.071 443.945 120.465C443.765 123.522 444.304 126.579 445.383 129.455C445.743 130.354 447.001 129.635 446.642 128.736C444.664 124.061 444.844 118.667 447.001 114.172C449.159 109.857 453.115 106.621 457.79 105.182C460.487 104.463 463.184 104.283 465.881 104.643C466.96 104.823 467.32 103.385 466.42 103.205Z" fill="#2F2D3A"/>
<path d="M459.408 99.7884C454.014 99.6086 448.62 101.227 444.304 104.463C443.585 105.003 444.304 106.261 445.023 105.722C449.159 102.665 454.194 101.047 459.408 101.227C460.307 101.407 460.307 99.7884 459.408 99.7884Z" fill="#2F2D3A"/>
<path d="M554.706 47.2873C554.706 47.1075 554.706 46.9277 554.706 46.7479C554.706 46.3883 554.526 46.0287 554.346 45.8489C554.167 45.4893 553.807 45.1297 553.627 44.7701C553.447 44.5903 553.088 44.4105 552.908 44.2307C552.728 44.0509 552.189 43.8711 552.009 43.8711H551.829C551.649 43.8711 551.469 43.8711 551.29 43.8711C551.11 43.8711 550.93 43.8711 550.75 43.8711C550.57 43.8711 550.57 43.8711 550.391 43.8711C550.031 43.8711 549.671 43.8711 549.312 44.0509H549.132C548.952 44.2307 548.593 44.2307 548.413 44.4105C548.053 44.5903 547.873 44.7701 547.693 44.9499C547.514 44.9499 547.514 45.1297 547.514 45.1297C547.334 45.3095 547.154 45.6691 546.974 46.0287C546.794 46.2085 546.794 46.5681 546.615 46.7479V46.9277C546.615 47.1075 546.615 47.2873 546.615 47.4671C546.615 47.6469 546.615 47.8267 546.615 48.0065C546.615 48.3661 546.615 48.7257 546.794 49.0853C546.794 49.2651 546.794 49.2651 546.794 49.4449C546.974 49.8045 546.974 50.1641 547.154 50.3439C547.154 50.5237 547.334 50.7035 547.514 50.7035C547.693 50.8833 547.693 51.0631 547.873 51.0631C548.053 51.2429 548.413 51.4227 548.772 51.6025C549.132 51.7823 549.492 51.9621 549.851 52.1419C550.211 52.1419 550.57 52.3217 550.75 52.3217C550.93 52.3217 551.11 52.3217 551.469 52.3217C551.649 52.3217 551.829 52.3217 552.009 52.1419C552.189 52.1419 552.368 51.9621 552.548 51.9621C552.728 51.9621 552.908 51.7823 553.088 51.7823C553.447 51.6025 553.627 51.4227 553.807 51.2429L553.987 51.0631C554.526 50.5237 554.706 50.1641 554.886 49.4449C555.066 49.0853 555.066 48.7257 555.066 48.3661C555.066 48.1863 555.066 48.1863 555.066 48.0065C554.706 47.6469 554.706 47.4671 554.706 47.2873Z" fill="#2F2D3A"/>
<path d="M566.034 12.0466C565.315 7.3718 561.718 2.87683 556.864 1.79803C551.829 0.719237 546.974 2.69703 543.918 6.8324C543.019 8.091 543.738 9.88899 544.817 10.6082C546.255 11.3274 547.694 10.788 548.593 9.70919C550.57 7.0122 554.526 6.29301 557.403 7.9112C560.46 9.70919 561.539 13.6648 560.1 16.9011C558.482 20.8567 554.706 23.5537 552.009 26.6103C549.132 29.8467 546.615 33.8023 546.615 38.2972C546.615 41.7134 552.009 41.7134 552.009 38.2972C552.009 33.0831 556.684 29.4871 559.92 26.2507C563.517 22.1153 566.753 17.4405 566.034 12.0466Z" fill="#2F2D3A"/>
</g>
<defs>
<clipPath id="clip0_169_12781">
<rect width="691" height="680" fill="white"/>
</clipPath>
</defs>
</svg>
