<svg width="60" height="60" viewBox="0 0 60 60" fill="none" xmlns="http://www.w3.org/2000/svg">
<circle cx="30" cy="30" r="30" fill="#6646FF"/>
<path fill-rule="evenodd" clip-rule="evenodd" d="M24.8128 40.6616C21.2612 40.773 18.2885 37.991 18.1644 34.4399V28.2166L18.1561 25.1066C17.942 23.9799 18.5105 22.8497 19.5428 22.3499L26.2844 18.3283C28.4496 17.0016 31.1759 17.0016 33.3411 18.3283L40.0828 22.3549C41.115 22.8547 41.6835 23.9849 41.4694 25.1116L41.4611 28.2233V34.4449C41.3344 37.9941 38.3624 40.7731 34.8128 40.6616H24.8128Z" stroke="white" stroke-width="1.5" stroke-linecap="round" stroke-linejoin="round"/>
<path d="M18.5347 24.4592C18.1771 24.2502 17.7178 24.3706 17.5088 24.7282C17.2997 25.0858 17.4202 25.5452 17.7778 25.7542L18.5347 24.4592ZM26.3396 29.89L26.7246 29.2463L26.7181 29.2425L26.3396 29.89ZM33.2846 29.89L32.9061 29.2425L32.8996 29.2464L33.2846 29.89ZM41.8464 25.7542C42.204 25.5452 42.3244 25.0858 42.1154 24.7282C41.9064 24.3706 41.447 24.2502 41.0894 24.4592L41.8464 25.7542ZM32.9644 24.7226C33.3663 24.823 33.7735 24.5787 33.8739 24.1769C33.9744 23.775 33.7301 23.3678 33.3282 23.2673L32.9644 24.7226ZM29.813 23.1616L29.9949 22.434C29.8755 22.4042 29.7505 22.4042 29.6311 22.434L29.813 23.1616ZM26.2977 23.2673C25.8959 23.3678 25.6516 23.775 25.752 24.1769C25.8525 24.5787 26.2597 24.823 26.6615 24.7226L26.2977 23.2673ZM17.7778 25.7542L25.9611 30.5375L26.7181 29.2425L18.5347 24.4592L17.7778 25.7542ZM25.9546 30.5337C28.33 31.9545 31.2941 31.9545 33.6696 30.5337L32.8996 29.2464C30.9983 30.3836 28.6258 30.3836 26.7246 29.2464L25.9546 30.5337ZM33.6631 30.5375L41.8464 25.7542L41.0894 24.4592L32.9061 29.2425L33.6631 30.5375ZM33.3282 23.2673L29.9949 22.434L29.6311 23.8892L32.9644 24.7226L33.3282 23.2673ZM29.6311 22.434L26.2977 23.2673L26.6615 24.7226L29.9949 23.8892L29.6311 22.434Z" fill="white"/>
</svg>
